<?xml version="1.0" encoding="UTF-8" standalone="no"?>
<svg
   xmlns:dc="http://purl.org/dc/elements/1.1/"
   xmlns:cc="http://creativecommons.org/ns#"
   xmlns:rdf="http://www.w3.org/1999/02/22-rdf-syntax-ns#"
   xmlns:svg="http://www.w3.org/2000/svg"
   xmlns="http://www.w3.org/2000/svg"
   xmlns:sodipodi="http://sodipodi.sourceforge.net/DTD/sodipodi-0.dtd"
   xmlns:inkscape="http://www.inkscape.org/namespaces/inkscape"
   id="Capa_5"
   data-name="Capa 5"
   viewBox="0 0 303.67252 341.93751"
   version="1.1"
   sodipodi:docname="garden.svg"
   inkscape:version="0.92.5 (2060ec1f9f, 2020-04-08)"
   width="303.67252"
   height="341.9375">
  <metadata
     id="metadata39">
    <rdf:RDF>
      <cc:Work
         rdf:about="">
        <dc:format>image/svg+xml</dc:format>
        <dc:type
           rdf:resource="http://purl.org/dc/dcmitype/StillImage" />
      </cc:Work>
    </rdf:RDF>
  </metadata>
  <defs
     id="defs37" />
  <sodipodi:namedview
     pagecolor="#ffffff"
     bordercolor="#666666"
     borderopacity="1"
     objecttolerance="10"
     gridtolerance="10"
     guidetolerance="10"
     inkscape:pageopacity="0"
     inkscape:pageshadow="2"
     inkscape:window-width="1920"
     inkscape:window-height="1055"
     id="namedview35"
     showgrid="false"
     inkscape:zoom="0.77698034"
     inkscape:cx="255.64672"
     inkscape:cy="189.95679"
     inkscape:window-x="0"
     inkscape:window-y="0"
     inkscape:window-maximized="1"
     inkscape:current-layer="Capa_5" />
  <g
     id="g938"
     transform="rotate(90,151.82544,151.82544)">
    <path
       transform="translate(-33.59,-306.56)"
       id="path2"
       d="m 33.59,424.29 c 2.55,-0.55 0.08,-4.12 3.45,-4.6 l 1,2.47 -1.17,8 -1.33,1.33 -1.93,-1.12 z"
       inkscape:connector-curvature="0" />
    <path
       transform="translate(-33.59,-306.56)"
       id="path4"
       d="m 112.9,574.21 c 22.86,9 25.31,6.66 25.69,2.85 0.26,-2.51 3.42,-3.34 2.68,-6.35 -0.62,-2.52 2.78,-3.13 3.55,-5.17 0.14,-2.57 -1.11,-4.46 -2.79,-6.22 -1.68,-1.76 -2.71,-4.13 -4.6,-4.92 -1.89,-0.79 -3.94,-1.45 -5.55,-2.81 a 8.73,8.73 0 0 0 -6.4,-2.33 c -2.4,0.15 -4.82,0 -7.78,0 7.91,-3.95 13.78,-3.95 20.84,-1 2.85,1.18 6.07,3 7.65,6.54 1.39,3.1 3.55,5.85 5.55,9 2.9,0.73 6.49,1.06 9,4.61 -0.22,2.53 0.39,5.5 -0.64,9 -0.28,-0.4 -0.13,-0.07 0.12,0.16 3.11,2.87 4.12,3.28 7,1 3.07,-2.36 6.66,-3.8 9.73,-6.07 5.85,-4.33 12.56,-7.16 18.75,-10.9 3.73,-2.26 7.65,-4.22 11.3,-6.64 1.4,-0.93 3.09,-1.4 4.58,-2.21 q 8.73,-4.78 17.4,-9.65 a 7.88,7.88 0 0 0 2.36,-1.63 c 1.46,-1.84 2.73,-3.82 4.47,-6.31 l 1.32,2.74 c -1.23,2.37 -2.6,5.44 -4.4,8.23 a 6.68,6.68 0 0 0 -1.2,3.22 c -0.06,0.66 -0.86,1.81 -1.31,1.8 -3.13,-0.07 -4.15,2.74 -6.15,4.2 a 29.23,29.23 0 0 1 -6.36,3.81 c -2.5,1 -3.92,3.67 -6.36,5.2 -2.61,1.63 -5.18,3.43 -8,4.36 -2.82,0.93 -4.23,4.33 -7.61,3.8 -1.59,3.23 -5.17,2.31 -7.73,3.52 -5,2.39 -9.26,6 -14.14,8.61 -2,1 -3.17,2.17 -5.17,0.31 -0.49,-0.44 -2,-0.21 -2.79,0.19 -4,2 -4,2 -7.07,2 a 9.31,9.31 0 0 1 -1.28,-1.31 c -0.63,-1 -1.84,-2.6 -1.61,-2.84 0.94,-1 0.63,-2.51 1.2,-3.19 2.09,-2.53 0.06,-4.23 -0.81,-6.13 a 16.68,16.68 0 0 0 -2,-2.84 c -3.69,2.55 -3.94,2.67 -2.78,5.2 1.16,2.53 0.82,4.44 -1.25,6.33 -4.42,4.07 -5.36,10 -7.78,15.14 -0.16,0.33 -0.28,1 -0.1,1.14 2.92,2.89 -0.74,4.33 -1.09,6.65 -1.28,-0.38 -2.51,-0.4 -3.18,-1 -1.88,-1.77 -3.5,-1.68 -5.08,0.23 -2.18,2.66 -5.94,1.41 -8.35,3.46 -1.52,-2.27 -2.87,0.53 -4.5,0.2 -1.29,-0.26 -2.85,0.77 -4.28,1.25 -3.84,1.3 -3.84,1.31 -6,-2.79 -3,2.16 -6.44,1.16 -9.85,1.46 -0.27,-0.77 -0.35,-2 -0.79,-2.11 -2.16,-0.72 -4.88,0 -6.23,-2.68 -4.07,2.72 -5.76,-2.19 -8.78,-3 -3.02,-0.81 -5.66,-3.9 -8.58,-5.78 -4.71,-3 -7.31,-7.6 -9.9,-12.34 -3.84,-7 -7.81,-14 -12.15,-20.67 A 54.83,54.83 0 0 1 49.41,552.86 40,40 0 0 0 44.79,545 c -2.9,-4 -5.64,-8.43 -2.68,-13.79 0.35,-0.63 0,-1.59 0.28,-2.33 0.54,-1.71 1.69,-3.37 1.7,-5.06 0.01,-1.69 -1.08,-3.59 -1.58,-5.42 a 16.42,16.42 0 0 1 -0.36,-2.91 c -0.23,-2.61 -0.59,-5.22 -0.59,-7.82 a 77,77 0 0 1 0.6,-7.71 11.62,11.62 0 0 1 0.69,-3.38 c 1.1,-2.59 0.68,-4.94 -0.94,-7.62 a 28.71,28.71 0 0 0 2.33,-2.44 c 2,-2.63 4.1,-5 1.86,-8.89 -1.06,-1.84 -0.6,-4.82 -0.21,-7.19 0.62,-3.81 -1.09,-7 -2.71,-9.93 -1.08,-2 -2.66,-3.71 -3.54,-5.9 a 4.52,4.52 0 0 0 -2,-2.07 5.24,5.24 0 0 1 -2.81,-5 c 0,-3.47 0,-6.93 0,-10.68 h 4.32 C 41,431.31 45,427 45.87,421.17 c 2.62,-2.62 4.3,-6.3 8.73,-6.8 1.56,-0.17 3,-1.64 4.11,-2.31 L 55.46,408.25 51.1,412 c -0.49,0 -1.29,0 -2.09,0 -4,-0.14 -6.11,-2.53 -4,-5.64 2.9,-4.33 1.63,-8.83 2.12,-13.3 l 3.44,-2.2 a 36.86,36.86 0 0 1 -1,-6.05 17,17 0 0 0 -1.26,-6.25 C 47,375 44.93,371.5 45.72,367.35 c 0.09,-0.47 -1,-1.16 -1.58,-1.75 -4.13,1.48 0.14,6.87 -3.91,8.29 -0.21,-1.68 -1.66,-2.11 -2.82,-3 -0.67,-0.54 -0.4,-2.41 -1.23,-3.71 -0.58,-0.91 -0.18,-2.6 -1.25,-3.63 2,-1.25 0.4,-3.53 1.33,-4.95 2.18,-3.3 3.09,-7.64 7.62,-9.12 a 5,5 0 0 0 2.94,-2.92 c 0.58,-2.53 2.68,-2.72 4.25,-3 2.57,-0.45 5.79,-1 7.82,0.07 4.56,2.54 7.19,-0.77 10.41,-2.36 a 19.05,19.05 0 0 0 4.25,-3 c 2.8,-2.53 6.66,-3.2 9.39,-1.92 3.86,1.81 7.76,2.09 12.41,2.37 -1.28,2.19 -2.14,3.87 -3.2,5.41 -0.81,1.17 -1.83,2.12 -3.54,1.82 a 2.92,2.92 0 0 0 -2.22,0.41 c -2.64,2.49 -5.86,1.88 -9,2 a 9.2,9.2 0 0 0 -3.41,0.58 28.92,28.92 0 0 1 -14.35,3 l -3.11,5.06 2.16,2.37 c 0.65,-0.13 1.13,-0.08 1.39,-0.3 0.77,-0.65 1.43,-1.45 2.18,-2.13 2.09,-1.88 2.51,-1.84 5.59,0.53 L 60.76,361 c -0.48,2.52 -1.17,5.15 -1.45,7.82 a 51.64,51.64 0 0 1 -1.07,8.12 c -0.68,2.53 -0.68,4.76 -4.39,4.66 0.71,2 2.09,4 1.59,4.68 -2.27,3.13 0.64,4.83 1.3,7.19 1.57,5.52 4.33,10.8 3.72,17.09 a 29.31,29.31 0 0 1 3.46,1.91 c 1.78,1.32 3.11,1 4.68,-0.48 0.87,-0.82 2.32,-1 4.57,-2 l -3,5.77 c 1.4,-0.2 3.31,-0.12 3.43,-0.54 a 5.88,5.88 0 0 1 3.71,-4.32 c 4.23,-1.11 7.64,-4.29 12.51,-3.93 6.9,0.51 12.88,-2.39 17.69,-7.28 2.69,-2.74 6.06,-4.79 8.22,-8.09 0.25,-0.37 1,-0.39 2,-0.73 -1.32,2.63 -2.19,5 -3.63,7 -1.44,2 -3.94,2.94 -5,5.81 -0.83,2.18 -4,3.45 -7,5.76 l -10.9,1.83 c -1.46,1.45 -3.21,3.48 -5.23,5.17 -2.89,2.42 -4.44,2.21 -7.53,-0.49 -2.06,0.77 -3.81,2.1 -6.21,2.34 a 15.67,15.67 0 0 0 -6.88,2.43 c -2.25,1.5 -4.59,0.76 -6.84,1.25 -1.19,2.8 -3.48,5.61 0.06,8.37 0.68,-1.1 1.36,-2.21 1.86,-3 0.45,-0.3 0.61,-0.49 0.73,-0.47 1.74,0.27 3.74,4.61 2.45,5.84 -2.84,2.71 -2.19,5.66 -1.3,8.79 a 7.45,7.45 0 0 1 0.56,2.81 c -0.24,2.09 -1.68,4.61 -0.94,6.12 1,2 0.68,3.84 1,5.73 0.45,2.44 1.11,4.84 1.7,7.26 0,0.17 0.36,0.27 0.4,0.44 1.06,4.25 -0.73,7.92 -2.24,12.28 -1.16,-1.6 -1.73,-3.12 -2.81,-3.71 -1.08,-0.59 -2.67,-0.27 -4,-0.34 -0.08,5.49 0.85,6.78 5.44,7.46 0.89,2.76 1.94,5.6 2.68,8.53 a 5.11,5.11 0 0 1 -0.43,3.44 8.7,8.7 0 0 0 -0.51,7.56 c 2.43,4.72 -0.25,8.78 -0.48,13.1 0,0.9 -0.79,1.74 -0.92,2.65 a 30.49,30.49 0 0 0 0,3.87 c 1.07,0 2.23,0.33 2.55,0 3,-3.55 6.91,-2.11 11,-2.48 -0.2,2.88 -1.8,4.12 -3.81,5 -4.25,1.79 -4.51,2.48 -2.37,6.79 0.34,0.67 0.41,1.73 0.93,2 2.62,1.42 3.78,4.21 5.91,6.08 a 60.25,60.25 0 0 1 6.48,6.5 c 3.27,3.92 8.07,4.17 12.4,5.52 1.3,0.4 2.83,0.06 4.38,0.06 l 0.75,2.08 c -4.92,0.32 -9.8,0.31 -13.72,3.53 2.66,4.6 5.06,6.17 9.74,8 4.34,1.66 9.33,3.39 10.8,8.23 a 11.19,11.19 0 0 0 4,5.67 6.88,6.88 0 0 0 5.27,2 c 6.2,-0.84 11,1.91 -3,-3.28 -20.08,-9.77 -18.33,-12.54 -20.6,-12.75 -1.41,-0.13 -2.58,-1.49 -4.32,-1.21 -0.77,0.13 -1.69,-0.59 -2.59,-1 l -1.88,3.85 c 1.92,1.08 3.59,2.57 5.46,2.89 1.45,0.14 3.3,-0.91 23.76,8.03 z m -47.46,-29.72 4.77,-3.38 a 16,16 0 0 1 -2.27,-1 c 0.77,-3.23 -2.8,-3.15 -3.48,-4.5 l 1.11,-4.08 -3.36,-1.71 c -0.57,1.15 -1.21,2.46 -1.83,3.7 0.92,1.21 2.46,2.33 2.41,3.36 -0.15,3 1.68,5 2.69,7.39 l -3.16,1.55 c -2.6,3.37 2.27,3.89 1.82,6.44 l -1.21,1.29 c 1.56,1.56 3.07,3.19 4.72,4.66 0.57,0.51 1.5,0.61 3.12,1.22 -2.04,-5.61 -6.39,-9.43 -5.33,-14.94 z m 42.72,53.22 c 0,1.18 -0.1,2.41 0,3.62 0.24,2.58 2.25,3.89 4.53,2.78 a 17.67,17.67 0 0 0 4.24,-3 c 3.19,-3 2.94,-5.75 -0.81,-7.53 -1.11,-0.53 -2.69,-0.08 -3.77,-0.08 -1.57,1.58 -2.87,2.87 -4.19,4.21 z M 49.71,506.14 c -1.28,2.72 -3,5.34 -3.61,8.2 -0.26,1.28 1.82,3 2.93,4.71 0.86,-0.55 1.34,-0.86 1.82,-1.15 2.76,-1.69 4.9,-4.89 4.74,-7.11 -0.24,-3.34 -3.22,-3.34 -5.88,-4.65 z M 101.12,589 c -0.66,-0.86 -1.25,-2.29 -2.28,-2.78 -0.77,-0.37 -2.14,0.39 -3.19,0.78 -2.73,1 -1.74,4.14 -3.3,5.94 -0.83,1 0.52,3.6 1.63,4.06 1.64,0.68 4.76,-0.05 5.31,-1.48 0.71,-1.95 1.14,-4.01 1.83,-6.52 z m -56.3,-149.77 7.91,-12.94 c -4.06,1.12 -6.44,2.44 -7.91,4.56 z"
       inkscape:connector-curvature="0" />
    <path
       transform="translate(-33.59,-306.56)"
       id="path6"
       d="m 273.18,347.08 c -2.74,-0.73 -6.83,-2.65 -8.15,-3.9 a 17.23,17.23 0 0 1 -3.38,-3.51 c -0.79,-1.38 -3,-0.53 -3.32,-2.84 -0.12,-1 -2.35,-1.71 -3.5,-2.69 a 6.9,6.9 0 0 1 -1.2,-1.94 c -0.83,-1.49 -1.63,-3 -2.45,-4.49 -1.62,-3 -2.08,-3.14 -5.93,-2.7 -3.85,0.44 -7.83,0.67 -11.69,1.29 a 49.65,49.65 0 0 0 -7.08,2.05 c -3.35,1.08 -6.69,2.2 -10.72,1.29 v -6.74 c -4.58,-1.75 -5.51,4.72 -9.85,3.47 -3.17,-0.91 -5.58,3.81 -9.32,2.09 -1.72,-3.32 -1.7,-3.2 -5.43,-2.78 -1.34,0.15 -3.76,-1 -4,-0.56 -1,1.86 -2.28,-0.37 -3.2,0.47 -1.52,1.38 -2.91,1 -4.16,-0.43 -2.14,1.55 -5.54,1 -6.58,4.2 0.89,0.52 1.94,1.53 3.11,1.69 1.46,0.21 3,0.38 4.49,-0.91 2.59,-2.21 3,-2 5.39,0.23 0.56,0.52 1.08,1.09 1.49,1.51 -1.08,4.11 -4.77,5.09 -7.35,5.13 -4.23,0.06 -8.16,2 -12.31,1.42 -2.16,-0.29 -3.63,1.35 -5.61,1.3 -1.83,0 -4.35,0.77 -5.38,-0.14 -3.95,-3.51 -9.2,-1.08 -13.28,-3.51 -2.05,-1.22 -4.3,-2.11 -6.39,-3.12 0.45,-2.15 1.45,-3 3.37,-3.07 a 67.59,67.59 0 0 0 18,-3.7 37.12,37.12 0 0 0 8.25,-3.69 c 4.09,-2.56 8.68,-2.83 13.18,-3.61 1.6,-0.27 3.33,-1 4.78,-0.67 2,0.47 3.41,-1.05 5.32,-0.64 a 14.79,14.79 0 0 0 5.47,0 c 2.23,-0.37 4.36,-1.5 6.58,-1.7 1.52,-0.14 3.18,-0.09 4.74,-0.1 1.8,0 3.2,-1.74 5.29,-1.95 2.09,-0.21 3.76,-1.9 5.74,-2.2 1.98,-0.3 3.46,-1.73 5.24,-2.12 3.17,-0.71 6.32,-1.3 9.23,-2.84 0.59,-0.31 1.57,0 2.32,0.19 0.91,0.23 1.85,1.07 2.63,0.91 3.29,-0.68 6.34,0.55 9.24,1.45 3.73,1.15 7.4,1 11.14,1.07 3.36,0 8.34,1.52 12,3.42 a 3.7,3.7 0 0 1 2.26,2 c 0.93,2.07 3.41,3.09 5.88,3.1 7.74,0.05 15.52,0.52 23.19,-0.15 5.23,-0.46 10.65,-1.23 15.52,-3.71 a 11.62,11.62 0 0 1 1.25,-0.71 c 1.72,2.08 2.83,-1.65 4.72,-0.43 1,0.65 2.77,0.09 4.2,0.14 a 2.78,2.78 0 0 1 1.05,0.4 c 1.35,0.67 2.72,1.31 4,2 a 5.32,5.32 0 0 1 1.84,1.42 c 3.28,4.72 9,6.36 12.83,10.38 4.14,0.59 6.52,5 10.63,5.22 3.6,0.16 6.67,1.79 10,2.43 4.18,0.8 5.15,3.79 6,6.95 a 15.7,15.7 0 0 0 1.22,3.8 c 2,3.62 1.09,6.36 -2.57,9 a 15.1,15.1 0 0 0 -5.31,6.14 c -0.89,2 -1.07,3.74 0.49,5.46 -2.35,2.8 -2.35,2.8 -2.27,13.6 1.17,0.82 2.16,1.14 2.42,-0.82 0.15,-1.15 0,-2.64 0.6,-3.39 1.88,-2.18 -0.39,-3.62 -0.7,-6 l 4.33,-1.94 c 0.75,2.39 1.38,4.18 1.86,6 0.79,3 -1.05,5.71 -1.35,8.62 -0.12,1.1 -0.84,2.12 -1.05,3.22 -0.43,2.2 0.33,4.23 1.18,6.23 0.71,1.68 -3,3.37 -0.05,5.16 a 1.2,1.2 0 0 1 0,1.14 c -2.68,2.67 -0.1,6.27 -1.65,9.13 -1.11,2.05 -1.91,3.85 -5,4 -2.4,0.16 -4.82,1.39 -7.7,0.74 -0.15,-0.88 -0.33,-2 -0.55,-3.32 -4.05,-0.41 -7.22,0.6 -8.81,4.73 a 23.39,23.39 0 0 0 0.06,5.13 c 0.17,0.74 0.69,1.68 0.42,2.22 -2,3.89 -3.76,8 -8.46,10.93 v 3.86 c -3.51,-1.75 -5.75,1.45 -8.6,1.23 0.56,-3.09 -1.25,-4.69 -3.59,-6.18 a 12.32,12.32 0 0 1 -3.69,-3.57 c -2.31,-3.65 -1.29,-6.17 3,-7.37 3.45,-1 6.49,-2.31 8.9,-5.17 2.14,-2.52 4.41,-5.07 7.91,-5.94 0.95,-0.24 5.35,-6.23 6.11,-8.26 a 28,28 0 0 1 3.59,-7 11.59,11.59 0 0 0 2.24,-8.3 c -0.29,-4.17 0.71,-8.09 1.88,-12.07 0.71,-2.42 0.41,-5.15 0.57,-7.74 -2,-0.05 -2.07,-2.49 -3.5,-3.05 a 53.28,53.28 0 0 0 -6.16,-1.64 v -2.88 c 1.67,-0.49 3,-1.55 5,-0.6 1.69,0.77 4,0.16 7.3,0.16 a 18.75,18.75 0 0 0 1.42,-2.33 c 0.4,-0.85 1,-2.19 0.69,-2.68 -1.68,-2.38 -1,-5 -1.17,-7.92 -4.51,-3.39 -7.13,-9.8 -14.67,-10.56 0.45,3 -0.69,4.51 -3.28,5.56 -1.89,0.76 -2.32,3.75 -4.83,4.25 -0.34,-0.34 -1,-0.71 -1.16,-1.22 -1,-4.2 -4.71,-5 -7.91,-5.76 a 18.11,18.11 0 0 1 -6.39,-2.37 c -0.78,-0.52 -1.7,-1.3 -2.5,-1.24 -4.37,0.36 -7.78,-1.54 -11.37,-3.72 -1.3,-0.79 -4.61,0.06 -5.89,1.3 -1.72,1.68 -3.74,2 -5.62,2.87 -2.47,1.19 -2.9,2.19 -2.38,5.26 a 25.65,25.65 0 0 1 0,3.56 l -3.75,3 c 0.25,4.86 0.55,9.27 -3.43,12.51 a 3.43,3.43 0 0 0 -1.25,2.47 c 0.18,2.27 -0.13,4.79 -1.51,6.07 -2,1.84 0.12,4.5 -2,6.05 a 2.3,2.3 0 0 0 -0.24,2.23 c 2.31,2.86 2.1,7 5.23,9.54 a 17.65,17.65 0 0 1 5,5.83 8.38,8.38 0 0 0 5.38,4.43 4.41,4.41 0 0 1 2.06,0.87 c 4,4.12 9.83,3.84 14.67,5.94 1.55,0.67 3.62,0.25 5.44,0.12 4,-0.28 6.43,1.56 7.61,5.93 a 50.06,50.06 0 0 1 -5.93,0.18 c -2.1,-0.19 -4.18,-1.18 -6.22,-1.05 -1.73,0.1 -3.4,-2.38 -5.39,0.26 -2.76,-3.45 -6.8,-4.84 -10.42,-7 -4.13,-2.41 -8.56,-4.42 -12,-8.05 -3.14,-3.3 -4.76,-7.46 -7.24,-11.13 a 7.19,7.19 0 0 1 -0.66,-2.77 c -0.38,-2.26 -0.72,-4.52 -1.15,-7.22 l -4.76,1 v -4 l 2.75,-1.31 -3.94,-0.61 c 1.13,-4.48 1.13,-4.48 4.6,-5.92 v 7 c 2.53,-2.79 4.69,-4.58 6.07,-6.86 1.67,-2.76 1.38,-4.73 0.27,-7.12 l 4.71,-4.73 c 0,-2.43 -0.31,-3.93 0.06,-5.25 0.93,-3.33 -2.43,-4.75 -3,-7.38 -3.55,-0.66 -4.53,-4.42 -8.19,-6.21 -5,-0.49 -10.57,0 -14.62,5.73 1.79,1.69 3.7,3.48 5.59,5.28 a 8.81,8.81 0 0 1 3.16,6.24 z m 54.75,-30.43 h -9.53 c 0,2.45 1.1,3.42 3.27,3.48 3,0.09 6,0.28 9.51,0.45 z"
       inkscape:connector-curvature="0" />
    <path
       transform="translate(-33.59,-306.56)"
       id="path8"
       d="m 125.65,342.89 -4.25,-2.74 a 10.82,10.82 0 0 1 4.65,-7.57 c 1.48,-1 4.52,-2.11 6.76,0.7 -0.41,4 -5.13,6.16 -5,11 1,0.08 2.39,0.64 3,0.16 4.67,-3.35 9.5,-2.83 14.48,-1.06 a 4.5,4.5 0 0 0 1.34,0 c 0.8,1.6 1.63,3.24 2.18,4.35 h 5.82 c 2.34,3.05 5.9,6.22 6.25,11.61 0.12,1.69 2,3.54 3.56,4.79 1.56,1.25 3.28,2.52 5.15,0.38 2.79,1.46 6.39,0.71 8.79,3.3 1.38,1.5 2.87,2.9 4.24,4.28 0.45,3.17 0.47,6.39 1.44,9.31 0.87,2.63 2.78,4.92 4.31,7.5 2.58,-0.73 3.66,-2.76 4.62,-4.95 a 5.76,5.76 0 0 1 6.18,-3.78 l 3.38,5.19 c -2.24,2.7 -6.52,2.57 -8.39,5.9 -1.87,3.33 -6.89,2.24 -8.08,5.74 -3.91,1.37 -5.56,-0.68 -6.59,-3.58 a 3.65,3.65 0 0 1 0,-2.07 c 2.1,-7.08 0.37,-12.05 -5.65,-16.11 a 10.15,10.15 0 0 1 -1.82,-1.51 9.94,9.94 0 0 0 -9,-3.4 4.46,4.46 0 0 1 -1.82,0 c -2,-0.68 -4.08,-1.16 -5.75,-2.29 a 6.85,6.85 0 0 1 -3.32,-5.92 c 0.12,-3.58 -2.11,-5.71 -4.47,-7.75 -4.59,1.59 -8,4.3 -9.72,8.81 a 48.74,48.74 0 0 0 -1.7,6.65 c -1.17,5.47 -3.65,10.35 -6.45,15.64 -1.73,-2.09 0.1,-4.75 -2.05,-6.23 -0.47,-0.33 -0.47,-2.22 0,-2.92 2.14,-3.17 0.64,-6.66 1.31,-10.27 l -6.53,-5.21 c 1.15,-1.89 4.22,-2.52 2,-5.3 -0.48,0.16 -1.19,0.18 -1.53,0.54 a 10,10 0 0 1 -8.46,3.29 6.36,6.36 0 0 0 -4.52,0.9 c -2.58,1.79 -7.81,-2.12 -9.07,-5.14 -0.1,-0.25 1,-0.87 0.92,-1.27 -0.08,-0.4 -0.69,-0.87 -1.2,-1.46 2.17,-0.83 4.25,-1.76 6.41,-2.4 a 5.37,5.37 0 0 1 3.27,0 c 2.78,1.15 5.06,1.25 7.58,-1 2.29,-1.95 5.82,-2.3 7.73,-6.11 z"
       inkscape:connector-curvature="0" />
    <path
       transform="translate(-33.59,-306.56)"
       id="path10"
       d="M 331.86,437.77 V 440 l 6.35,0.36 c -0.88,2 -0.67,4.12 -3.22,4.76 a 1.49,1.49 0 0 0 -0.87,0.8 c -2.27,5.56 -7.92,7.07 -12.23,10.13 -2.13,1.52 -3.46,4.54 -6.85,4.12 -0.64,-0.08 -1.35,0.77 -2.06,0.81 -2,0.12 -4.13,-0.27 -6.08,0.14 -1.79,0.38 -3.35,1.91 -5.13,2.24 -1.36,0.24 -2.92,-0.62 -4.7,-1.06 -2,2.77 -6.41,3.78 -7,8.18 -2,1.42 -3.12,3.69 -6.22,4.31 -2.77,0.54 -5.08,3.47 -8.25,5.84 l -5.51,-0.26 c 2.4,-3.64 6.45,-3.48 8.95,-6.2 a 10.66,10.66 0 0 1 -0.9,-2.07 11.73,11.73 0 0 1 0,-2.39 c -1.32,0.39 -2.94,2.11 -2.34,-0.82 1.86,-1.52 3.21,0.25 4.79,0.69 1.93,0.54 3.39,-0.92 4.69,-1.82 1.3,-0.9 1.92,-2.76 2.85,-4.23 l -4.43,-6.26 c -4.54,1 -6.84,4.74 -10.26,7.78 -2.09,-0.89 -4.29,-2 -6.6,-2.76 a 47,47 0 0 0 -5.58,-1.26 38.1,38.1 0 0 1 -6.18,-1.31 16.45,16.45 0 0 0 -5.62,-1.25 c -1.15,0 -2.27,-1.1 -4.15,-2.11 l 5.36,-3.89 c 5.36,5.78 12.1,7.34 20.34,5.6 1.3,-1.66 2.89,-3.94 4.73,-6 a 4.33,4.33 0 0 1 3.62,-1.51 76,76 0 0 0 9.51,0.57 c 3.11,-0.12 6.38,1.08 9.41,-0.88 0.2,-0.13 1.69,1 2.49,-0.26 0.65,0.69 1.26,1.68 2.16,0.26 1.56,1.5 3.14,0 4.32,-0.41 3.28,-1.18 6.32,-2.95 10,-2.38 0.57,0.08 1.23,-0.9 1.94,-1.13 2,-0.64 4,-1.15 6.25,-1.77 0.93,-3 4.81,-3.86 6.42,-6.79 z"
       inkscape:connector-curvature="0" />
    <path
       transform="translate(-33.59,-306.56)"
       id="path12"
       d="m 234,455.61 -2.95,2.95 c -3.81,0.38 -7.57,-0.88 -11.33,-2.38 a 36,36 0 0 0 -7.53,-2.38 12.85,12.85 0 0 1 -5.7,-2.55 c -1.84,-1.33 -3.77,-2.85 -5.89,-3.4 -5.79,-1.48 -10.65,-4.8 -15.84,-7.46 -4.26,-2.18 -8.57,-9.15 -8.11,-13 a 31.59,31.59 0 0 1 1.17,-3.78 A 49.13,49.13 0 0 0 179,418 c 0.25,-1.87 -0.42,-3.89 1,-5.58 a 14,14 0 0 0 -1.34,-1.59 l 4.11,-4.5 c -0.27,3.89 0.52,6.83 -1.32,9.51 2.49,2.64 0.28,4.49 -1,6.58 l 3.45,3.72 c -0.53,3.19 2.27,4.79 3.55,7.07 1.78,3.2 5.34,4.7 8.56,5.61 3.56,1 6.4,3.29 9.82,4.35 3.58,1.12 5.85,4.3 9.26,5.65 2.84,5 8.05,4 12.52,4.86 2.11,0.39 4.56,-0.83 6.39,1.93 z M 188.05,438 c -1.32,-1.86 -2.55,-3.79 -4,-5.56 -1.24,-1.53 -3.18,-2.6 -2.65,-5.08 a 13.17,13.17 0 0 0 -2,-0.76 c -0.05,6 3.11,10.74 8.65,11.4 z"
       inkscape:connector-curvature="0" />
    <path
       transform="translate(-33.59,-306.56)"
       id="path14"
       d="m 199.58,374.56 c 0.8,-4 1.22,-7.19 2.1,-10.25 a 13.92,13.92 0 0 0 -0.44,-8.43 c -1.38,-4.52 -4.61,-7.82 -6.47,-11.95 a 3.57,3.57 0 0 0 -2.28,-1.69 c -2.43,-0.51 -2.37,-2.92 -3.51,-4.37 -0.93,-1.17 0.52,-3.72 2.37,-4.95 1.51,-1 4.57,-0.86 5.29,0.65 1.15,2.42 3.35,3.88 4.74,6 3.44,5.12 6.38,10.66 5.67,17.06 -0.41,3.69 -0.92,7.36 -1.27,11.07 -0.26,2.69 -1.9,5.43 -6.2,6.86 z"
       inkscape:connector-curvature="0" />
    <path
       transform="translate(-33.59,-306.56)"
       id="path16"
       d="m 244.72,390 c -1.8,0 -3.6,0.14 -5.38,0 -7.94,-0.71 -15.57,1.19 -23.24,2.73 a 9.92,9.92 0 0 1 -10,-4.43 c 0.89,-2 3,-2.69 4.38,-1.84 4.22,2.57 7.72,-0.4 11.54,-0.81 a 26.69,26.69 0 0 1 8.13,0 15.43,15.43 0 0 0 3.34,0.65 c 4.1,-0.1 7.76,1.58 11.23,3.7 z"
       inkscape:connector-curvature="0" />
    <path
       transform="translate(-33.59,-306.56)"
       id="path18"
       d="m 131.09,508.65 c -3.52,1.12 -4.46,-2.16 -6.59,-3.48 -2.18,-0.24 -4.83,0.9 -6.73,-2.15 2.4,-2.65 4.8,-5.49 7.44,-8.07 a 3.58,3.58 0 0 1 3.19,-0.56 3,3 0 0 1 1.83,2.82 c 0.08,3.7 0.53,7.38 0.86,11.44 z"
       inkscape:connector-curvature="0" />
    <path
       transform="translate(-33.59,-306.56)"
       id="path20"
       d="m 92,515.38 c -0.71,1.66 -1.15,3.55 -2.23,5 -1.08,1.45 -2.74,2 -4,3.11 -1.69,1.4 -3.4,-2.16 -5,0.1 l -4.06,-3.14 c 0.94,-1.1 2.06,-2.38 -0.39,-3.51 0.52,-0.3 0.84,-0.64 1.17,-0.66 2.12,-0.12 4.33,0.39 6.2,-1.22 0.31,-0.42 7.31,0.12 8.31,0.32 z"
       inkscape:connector-curvature="0" />
    <path
       transform="translate(-33.59,-306.56)"
       id="path22"
       d="m 266.82,437.37 1.93,-4.39 h 7.66 l 0.83,2.19 c 2,0.81 3.27,-2.59 5.5,-0.76 1.9,1.55 4.72,2.11 5.27,5.54 -3.6,0.4 -7,0.72 -10.34,-0.94 -4.19,-2.09 -4.22,-2 -8.87,-1.27 a 6.67,6.67 0 0 1 -1.98,-0.37 z"
       inkscape:connector-curvature="0" />
    <path
       transform="translate(-33.59,-306.56)"
       id="path24"
       d="m 167.05,595.87 c 0.51,-1.7 0.92,-3.09 1.41,-4.76 0.51,0.35 1.1,1.09 1.57,1 2.84,-0.41 5.93,-0.63 7.83,-3.11 2,-2.64 5.13,-3.44 7.72,-5.08 0.79,-0.5 2.16,-0.08 3.31,-0.08 -0.53,3.75 -2.9,5.56 -5.61,7.11 -4,2.26 -8.76,2.32 -12.68,4.82 -0.83,0.56 -2.3,0.1 -3.55,0.1 z"
       inkscape:connector-curvature="0" />
    <path
       transform="translate(-33.59,-306.56)"
       id="path26"
       d="m 117.41,546.11 c -1.42,2.09 -2.19,3.9 -4.32,3.8 -4,-0.18 -8.17,4.65 -12.26,0 4.47,-3.42 8.91,-4.5 16.58,-3.8 z"
       inkscape:connector-curvature="0" />
    <path
       transform="translate(-33.59,-306.56)"
       id="path28"
       d="m 273.19,347.08 c 1.4,0 2.8,0 4.2,0 4.2,0.1 5.46,2.12 3.75,6.09 -0.73,1.68 -1.63,3.28 -2.75,5.49 -1.86,-4.13 -3.53,-7.85 -5.2,-11.58 z"
       inkscape:connector-curvature="0" />
    <path
       transform="translate(-33.59,-306.56)"
       id="path30"
       d="m 259.14,491.66 c 2.72,1.45 2.62,-2.88 5.34,-2.31 0.07,1.22 0.14,2.55 0.21,3.82 l -7.43,8.68 c -2.81,-2.28 -0.34,-3.81 0.08,-5.46 a 42.76,42.76 0 0 1 1.8,-4.73 z"
       inkscape:connector-curvature="0" />
    <path
       transform="translate(-33.59,-306.56)"
       id="path32"
       d="m 322.29,428 c -6.36,7.1 -6.53,7.15 -12.48,4.11 3.15,-1.4 6.18,-2.83 9.28,-4.07 0.82,-0.35 1.91,-0.04 3.2,-0.04 z"
       inkscape:connector-curvature="0" />
  </g>
</svg>
