<svg id="Capa_5" data-name="Capa 5" xmlns="http://www.w3.org/2000/svg" viewBox="0 0 342 303.74"><path d="M33.59,424.29c2.55-.55.08-4.12,3.45-4.6l1,2.47-1.17,8-1.33,1.33-1.93-1.12Z" transform="translate(-33.59 -306.56)"/><path d="M112.9,574.21c22.86,9,25.31,6.66,25.69,2.85.26-2.51,3.42-3.34,2.68-6.35-.62-2.52,2.78-3.13,3.55-5.17.14-2.57-1.11-4.46-2.79-6.22s-2.71-4.13-4.6-4.92-3.94-1.45-5.55-2.81a8.73,8.73,0,0,0-6.4-2.33c-2.4.15-4.82,0-7.78,0,7.91-3.95,13.78-3.95,20.84-1,2.85,1.18,6.07,3,7.65,6.54,1.39,3.1,3.55,5.85,5.55,9,2.9.73,6.49,1.06,9,4.61-.22,2.53.39,5.5-.64,9-.28-.4-.13-.07.12.16,3.11,2.87,4.12,3.28,7,1,3.07-2.36,6.66-3.8,9.73-6.07,5.85-4.33,12.56-7.16,18.75-10.9,3.73-2.26,7.65-4.22,11.3-6.64,1.4-.93,3.09-1.4,4.58-2.21q8.73-4.78,17.4-9.65a7.88,7.88,0,0,0,2.36-1.63c1.46-1.84,2.73-3.82,4.47-6.31l1.32,2.74c-1.23,2.37-2.6,5.44-4.4,8.23a6.68,6.68,0,0,0-1.2,3.22c-.06.66-.86,1.81-1.31,1.8-3.13-.07-4.15,2.74-6.15,4.2a29.23,29.23,0,0,1-6.36,3.81c-2.5,1-3.92,3.67-6.36,5.2-2.61,1.63-5.18,3.43-8,4.36s-4.23,4.33-7.61,3.8c-1.59,3.23-5.17,2.31-7.73,3.52-5,2.39-9.26,6-14.14,8.61-2,1-3.17,2.17-5.17.31-.49-.44-2-.21-2.79.19-4,2-4,2-7.07,2a9.31,9.31,0,0,1-1.28-1.31c-.63-1-1.84-2.6-1.61-2.84.94-1,.63-2.51,1.2-3.19,2.09-2.53.06-4.23-.81-6.13a16.68,16.68,0,0,0-2-2.84c-3.69,2.55-3.94,2.67-2.78,5.2s.82,4.44-1.25,6.33c-4.42,4.07-5.36,10-7.78,15.14-.16.33-.28,1-.1,1.14,2.92,2.89-.74,4.33-1.09,6.65-1.28-.38-2.51-.4-3.18-1-1.88-1.77-3.5-1.68-5.08.23-2.18,2.66-5.94,1.41-8.35,3.46-1.52-2.27-2.87.53-4.5.2-1.29-.26-2.85.77-4.28,1.25-3.84,1.3-3.84,1.31-6-2.79-3,2.16-6.44,1.16-9.85,1.46-.27-.77-.35-2-.79-2.11-2.16-.72-4.88,0-6.23-2.68-4.07,2.72-5.76-2.19-8.78-3s-5.66-3.9-8.58-5.78c-4.71-3-7.31-7.6-9.9-12.34-3.84-7-7.81-14-12.15-20.67a54.83,54.83,0,0,1-4.26-8.67A40,40,0,0,0,44.79,545c-2.9-4-5.64-8.43-2.68-13.79.35-.63,0-1.59.28-2.33.54-1.71,1.69-3.37,1.7-5.06s-1.08-3.59-1.58-5.42a16.42,16.42,0,0,1-.36-2.91c-.23-2.61-.59-5.22-.59-7.82a77,77,0,0,1,.6-7.71,11.62,11.62,0,0,1,.69-3.38c1.1-2.59.68-4.94-.94-7.62a28.71,28.71,0,0,0,2.33-2.44c2-2.63,4.1-5,1.86-8.89-1.06-1.84-.6-4.82-.21-7.19.62-3.81-1.09-7-2.71-9.93-1.08-2-2.66-3.71-3.54-5.9a4.52,4.52,0,0,0-2-2.07,5.24,5.24,0,0,1-2.81-5c0-3.47,0-6.93,0-10.68h4.32C41,431.31,45,427,45.87,421.17c2.62-2.62,4.3-6.3,8.73-6.8,1.56-.17,3-1.64,4.11-2.31l-3.25-3.81L51.1,412c-.49,0-1.29,0-2.09,0-4-.14-6.11-2.53-4-5.64,2.9-4.33,1.63-8.83,2.12-13.3l3.44-2.2a36.86,36.86,0,0,1-1-6.05,17,17,0,0,0-1.26-6.25C47,375,44.93,371.5,45.72,367.35c.09-.47-1-1.16-1.58-1.75-4.13,1.48.14,6.87-3.91,8.29-.21-1.68-1.66-2.11-2.82-3-.67-.54-.4-2.41-1.23-3.71-.58-.91-.18-2.6-1.25-3.63,2-1.25.4-3.53,1.33-4.95,2.18-3.3,3.09-7.64,7.62-9.12a5,5,0,0,0,2.94-2.92c.58-2.53,2.68-2.72,4.25-3,2.57-.45,5.79-1,7.82.07,4.56,2.54,7.19-.77,10.41-2.36a19.05,19.05,0,0,0,4.25-3c2.8-2.53,6.66-3.2,9.39-1.92,3.86,1.81,7.76,2.09,12.41,2.37-1.28,2.19-2.14,3.87-3.2,5.41-.81,1.17-1.83,2.12-3.54,1.82a2.92,2.92,0,0,0-2.22.41c-2.64,2.49-5.86,1.88-9,2a9.2,9.2,0,0,0-3.41.58,28.92,28.92,0,0,1-14.35,3L56.52,357l2.16,2.37c.65-.13,1.13-.08,1.39-.3.77-.65,1.43-1.45,2.18-2.13,2.09-1.88,2.51-1.84,5.59.53L60.76,361c-.48,2.52-1.17,5.15-1.45,7.82a51.64,51.64,0,0,1-1.07,8.12c-.68,2.53-.68,4.76-4.39,4.66.71,2,2.09,4,1.59,4.68-2.27,3.13.64,4.83,1.3,7.19,1.57,5.52,4.33,10.8,3.72,17.09a29.31,29.31,0,0,1,3.46,1.91c1.78,1.32,3.11,1,4.68-.48.87-.82,2.32-1,4.57-2l-3,5.77c1.4-.2,3.31-.12,3.43-.54a5.88,5.88,0,0,1,3.71-4.32c4.23-1.11,7.64-4.29,12.51-3.93,6.9.51,12.88-2.39,17.69-7.28,2.69-2.74,6.06-4.79,8.22-8.09.25-.37,1-.39,2-.73-1.32,2.63-2.19,5-3.63,7s-3.94,2.94-5,5.81c-.83,2.18-4,3.45-7,5.76L91.2,411.27c-1.46,1.45-3.21,3.48-5.23,5.17-2.89,2.42-4.44,2.21-7.53-.49-2.06.77-3.81,2.1-6.21,2.34a15.67,15.67,0,0,0-6.88,2.43c-2.25,1.5-4.59.76-6.84,1.25-1.19,2.8-3.48,5.61.06,8.37.68-1.1,1.36-2.21,1.86-3,.45-.3.61-.49.73-.47,1.74.27,3.74,4.61,2.45,5.84-2.84,2.71-2.19,5.66-1.3,8.79a7.45,7.45,0,0,1,.56,2.81c-.24,2.09-1.68,4.61-.94,6.12,1,2,.68,3.84,1,5.73.45,2.44,1.11,4.84,1.7,7.26,0,.17.36.27.4.44,1.06,4.25-.73,7.92-2.24,12.28-1.16-1.6-1.73-3.12-2.81-3.71s-2.67-.27-4-.34c-.08,5.49.85,6.78,5.44,7.46.89,2.76,1.94,5.6,2.68,8.53a5.11,5.11,0,0,1-.43,3.44,8.7,8.7,0,0,0-.51,7.56c2.43,4.72-.25,8.78-.48,13.1,0,.9-.79,1.74-.92,2.65a30.49,30.49,0,0,0,0,3.87c1.07,0,2.23.33,2.55,0,3-3.55,6.91-2.11,11-2.48-.2,2.88-1.8,4.12-3.81,5-4.25,1.79-4.51,2.48-2.37,6.79.34.67.41,1.73.93,2,2.62,1.42,3.78,4.21,5.91,6.08a60.25,60.25,0,0,1,6.48,6.5c3.27,3.92,8.07,4.17,12.4,5.52,1.3.4,2.83.06,4.38.06l.75,2.08c-4.92.32-9.8.31-13.72,3.53,2.66,4.6,5.06,6.17,9.74,8,4.34,1.66,9.33,3.39,10.8,8.23a11.19,11.19,0,0,0,4,5.67,6.88,6.88,0,0,0,5.27,2c6.2-.84,11,1.91-3-3.28-20.08-9.77-18.33-12.54-20.6-12.75-1.41-.13-2.58-1.49-4.32-1.21-.77.13-1.69-.59-2.59-1l-1.88,3.85c1.92,1.08,3.59,2.57,5.46,2.89C90.59,566.32,92.44,565.27,112.9,574.21ZM65.44,544.49l4.77-3.38a16,16,0,0,1-2.27-1c.77-3.23-2.8-3.15-3.48-4.5l1.11-4.08-3.36-1.71c-.57,1.15-1.21,2.46-1.83,3.7.92,1.21,2.46,2.33,2.41,3.36-.15,3,1.68,5,2.69,7.39l-3.16,1.55c-2.6,3.37,2.27,3.89,1.82,6.44l-1.21,1.29c1.56,1.56,3.07,3.19,4.72,4.66.57.51,1.5.61,3.12,1.22C68.73,553.82,64.38,550,65.44,544.49Zm42.72,53.22c0,1.18-.1,2.41,0,3.62.24,2.58,2.25,3.89,4.53,2.78a17.67,17.67,0,0,0,4.24-3c3.19-3,2.94-5.75-.81-7.53-1.11-.53-2.69-.08-3.77-.08C110.78,595.08,109.48,596.37,108.16,597.71ZM49.71,506.14c-1.28,2.72-3,5.34-3.61,8.2-.26,1.28,1.82,3,2.93,4.71.86-.55,1.34-.86,1.82-1.15,2.76-1.69,4.9-4.89,4.74-7.11C55.35,507.45,52.37,507.45,49.71,506.14ZM101.12,589c-.66-.86-1.25-2.29-2.28-2.78-.77-.37-2.14.39-3.19.78-2.73,1-1.74,4.14-3.3,5.94-.83,1,.52,3.6,1.63,4.06,1.64.68,4.76-.05,5.31-1.48C100,593.57,100.43,591.51,101.12,589ZM44.82,439.23l7.91-12.94c-4.06,1.12-6.44,2.44-7.91,4.56Z" transform="translate(-33.59 -306.56)"/><path d="M273.18,347.08c-2.74-.73-6.83-2.65-8.15-3.9a17.23,17.23,0,0,1-3.38-3.51c-.79-1.38-3-.53-3.32-2.84-.12-1-2.35-1.71-3.5-2.69a6.9,6.9,0,0,1-1.2-1.94c-.83-1.49-1.63-3-2.45-4.49-1.62-3-2.08-3.14-5.93-2.7s-7.83.67-11.69,1.29a49.65,49.65,0,0,0-7.08,2.05c-3.35,1.08-6.69,2.2-10.72,1.29V322.9c-4.58-1.75-5.51,4.72-9.85,3.47-3.17-.91-5.58,3.81-9.32,2.09-1.72-3.32-1.7-3.2-5.43-2.78-1.34.15-3.76-1-4-.56-1,1.86-2.28-.37-3.2.47-1.52,1.38-2.91,1-4.16-.43-2.14,1.55-5.54,1-6.58,4.2.89.52,1.94,1.53,3.11,1.69,1.46.21,3,.38,4.49-.91,2.59-2.21,3-2,5.39.23.56.52,1.08,1.09,1.49,1.51-1.08,4.11-4.77,5.09-7.35,5.13-4.23.06-8.16,2-12.31,1.42-2.16-.29-3.63,1.35-5.61,1.3-1.83,0-4.35.77-5.38-.14-3.95-3.51-9.2-1.08-13.28-3.51-2.05-1.22-4.3-2.11-6.39-3.12.45-2.15,1.45-3,3.37-3.07a67.59,67.59,0,0,0,18-3.7A37.12,37.12,0,0,0,167,322.5c4.09-2.56,8.68-2.83,13.18-3.61,1.6-.27,3.33-1,4.78-.67,2,.47,3.41-1.05,5.32-.64a14.79,14.79,0,0,0,5.47,0c2.23-.37,4.36-1.5,6.58-1.7,1.52-.14,3.18-.09,4.74-.1,1.8,0,3.2-1.74,5.29-1.95s3.76-1.9,5.74-2.2,3.46-1.73,5.24-2.12c3.17-.71,6.32-1.3,9.23-2.84.59-.31,1.57,0,2.32.19.91.23,1.85,1.07,2.63.91,3.29-.68,6.34.55,9.24,1.45,3.73,1.15,7.4,1,11.14,1.07,3.36,0,8.34,1.52,12,3.42a3.7,3.7,0,0,1,2.26,2c.93,2.07,3.41,3.09,5.88,3.1,7.74.05,15.52.52,23.19-.15,5.23-.46,10.65-1.23,15.52-3.71a11.62,11.62,0,0,1,1.25-.71c1.72,2.08,2.83-1.65,4.72-.43,1,.65,2.77.09,4.2.14a2.78,2.78,0,0,1,1.05.4c1.35.67,2.72,1.31,4,2a5.32,5.32,0,0,1,1.84,1.42c3.28,4.72,9,6.36,12.83,10.38,4.14.59,6.52,5,10.63,5.22,3.6.16,6.67,1.79,10,2.43,4.18.8,5.15,3.79,6,6.95a15.7,15.7,0,0,0,1.22,3.8c2,3.62,1.09,6.36-2.57,9a15.1,15.1,0,0,0-5.31,6.14c-.89,2-1.07,3.74.49,5.46-2.35,2.8-2.35,2.8-2.27,13.6,1.17.82,2.16,1.14,2.42-.82.15-1.15,0-2.64.6-3.39,1.88-2.18-.39-3.62-.7-6l4.33-1.94c.75,2.39,1.38,4.18,1.86,6,.79,3-1.05,5.71-1.35,8.62-.12,1.1-.84,2.12-1.05,3.22-.43,2.2.33,4.23,1.18,6.23.71,1.68-3,3.37-.05,5.16a1.2,1.2,0,0,1,0,1.14c-2.68,2.67-.1,6.27-1.65,9.13-1.11,2.05-1.91,3.85-5,4-2.4.16-4.82,1.39-7.7.74-.15-.88-.33-2-.55-3.32-4.05-.41-7.22.6-8.81,4.73a23.39,23.39,0,0,0,.06,5.13c.17.74.69,1.68.42,2.22-2,3.89-3.76,8-8.46,10.93v3.86c-3.51-1.75-5.75,1.45-8.6,1.23.56-3.09-1.25-4.69-3.59-6.18a12.32,12.32,0,0,1-3.69-3.57c-2.31-3.65-1.29-6.17,3-7.37,3.45-1,6.49-2.31,8.9-5.17,2.14-2.52,4.41-5.07,7.91-5.94.95-.24,5.35-6.23,6.11-8.26a28,28,0,0,1,3.59-7,11.59,11.59,0,0,0,2.24-8.3c-.29-4.17.71-8.09,1.88-12.07.71-2.42.41-5.15.57-7.74-2-.05-2.07-2.49-3.5-3.05a53.28,53.28,0,0,0-6.16-1.64v-2.88c1.67-.49,3-1.55,5-.6,1.69.77,4,.16,7.3.16a18.75,18.75,0,0,0,1.42-2.33c.4-.85,1-2.19.69-2.68-1.68-2.38-1-5-1.17-7.92-4.51-3.39-7.13-9.8-14.67-10.56.45,3-.69,4.51-3.28,5.56-1.89.76-2.32,3.75-4.83,4.25-.34-.34-1-.71-1.16-1.22-1-4.2-4.71-5-7.91-5.76a18.11,18.11,0,0,1-6.39-2.37c-.78-.52-1.7-1.3-2.5-1.24-4.37.36-7.78-1.54-11.37-3.72-1.3-.79-4.61.06-5.89,1.3-1.72,1.68-3.74,2-5.62,2.87-2.47,1.19-2.9,2.19-2.38,5.26a25.65,25.65,0,0,1,0,3.56l-3.75,3c.25,4.86.55,9.27-3.43,12.51a3.43,3.43,0,0,0-1.25,2.47c.18,2.27-.13,4.79-1.51,6.07-2,1.84.12,4.5-2,6.05a2.3,2.3,0,0,0-.24,2.23c2.31,2.86,2.1,7,5.23,9.54a17.65,17.65,0,0,1,5,5.83,8.38,8.38,0,0,0,5.38,4.43,4.41,4.41,0,0,1,2.06.87c4,4.12,9.83,3.84,14.67,5.94,1.55.67,3.62.25,5.44.12,4-.28,6.43,1.56,7.61,5.93a50.06,50.06,0,0,1-5.93.18c-2.1-.19-4.18-1.18-6.22-1.05-1.73.1-3.4-2.38-5.39.26-2.76-3.45-6.8-4.84-10.42-7-4.13-2.41-8.56-4.42-12-8.05-3.14-3.3-4.76-7.46-7.24-11.13a7.19,7.19,0,0,1-.66-2.77c-.38-2.26-.72-4.52-1.15-7.22l-4.76,1v-4l2.75-1.31-3.94-.61c1.13-4.48,1.13-4.48,4.6-5.92v7c2.53-2.79,4.69-4.58,6.07-6.86,1.67-2.76,1.38-4.73.27-7.12l4.71-4.73c0-2.43-.31-3.93.06-5.25.93-3.33-2.43-4.75-3-7.38-3.55-.66-4.53-4.42-8.19-6.21-5-.49-10.57,0-14.62,5.73,1.79,1.69,3.7,3.48,5.59,5.28A8.81,8.81,0,0,1,273.18,347.08Zm54.75-30.43H318.4c0,2.45,1.1,3.42,3.27,3.48,3,.09,6,.28,9.51.45Z" transform="translate(-33.59 -306.56)"/><path d="M125.65,342.89l-4.25-2.74a10.82,10.82,0,0,1,4.65-7.57c1.48-1,4.52-2.11,6.76.7-.41,4-5.13,6.16-5,11,1,.08,2.39.64,3,.16,4.67-3.35,9.5-2.83,14.48-1.06a4.5,4.5,0,0,0,1.34,0c.8,1.6,1.63,3.24,2.18,4.35h5.82c2.34,3.05,5.9,6.22,6.25,11.61.12,1.69,2,3.54,3.56,4.79s3.28,2.52,5.15.38c2.79,1.46,6.39.71,8.79,3.3,1.38,1.5,2.87,2.9,4.24,4.28.45,3.17.47,6.39,1.44,9.31.87,2.63,2.78,4.92,4.31,7.5,2.58-.73,3.66-2.76,4.62-4.95a5.76,5.76,0,0,1,6.18-3.78l3.38,5.19c-2.24,2.7-6.52,2.57-8.39,5.9s-6.89,2.24-8.08,5.74c-3.91,1.37-5.56-.68-6.59-3.58a3.65,3.65,0,0,1,0-2.07c2.1-7.08.37-12.05-5.65-16.11a10.15,10.15,0,0,1-1.82-1.51,9.94,9.94,0,0,0-9-3.4,4.46,4.46,0,0,1-1.82,0c-2-.68-4.08-1.16-5.75-2.29a6.85,6.85,0,0,1-3.32-5.92c.12-3.58-2.11-5.71-4.47-7.75-4.59,1.59-8,4.3-9.72,8.81a48.74,48.74,0,0,0-1.7,6.65c-1.17,5.47-3.65,10.35-6.45,15.64-1.73-2.09.1-4.75-2.05-6.23-.47-.33-.47-2.22,0-2.92,2.14-3.17.64-6.66,1.31-10.27l-6.53-5.21c1.15-1.89,4.22-2.52,2-5.3-.48.16-1.19.18-1.53.54a10,10,0,0,1-8.46,3.29,6.36,6.36,0,0,0-4.52.9c-2.58,1.79-7.81-2.12-9.07-5.14-.1-.25,1-.87.92-1.27s-.69-.87-1.2-1.46c2.17-.83,4.25-1.76,6.41-2.4a5.37,5.37,0,0,1,3.27,0c2.78,1.15,5.06,1.25,7.58-1C120.21,347.05,123.74,346.7,125.65,342.89Z" transform="translate(-33.59 -306.56)"/><path d="M331.86,437.77V440l6.35.36c-.88,2-.67,4.12-3.22,4.76a1.49,1.49,0,0,0-.87.8c-2.27,5.56-7.92,7.07-12.23,10.13-2.13,1.52-3.46,4.54-6.85,4.12-.64-.08-1.35.77-2.06.81-2,.12-4.13-.27-6.08.14-1.79.38-3.35,1.91-5.13,2.24-1.36.24-2.92-.62-4.7-1.06-2,2.77-6.41,3.78-7,8.18-2,1.42-3.12,3.69-6.22,4.31-2.77.54-5.08,3.47-8.25,5.84l-5.51-.26c2.4-3.64,6.45-3.48,8.95-6.2a10.66,10.66,0,0,1-.9-2.07,11.73,11.73,0,0,1,0-2.39c-1.32.39-2.94,2.11-2.34-.82,1.86-1.52,3.21.25,4.79.69,1.93.54,3.39-.92,4.69-1.82s1.92-2.76,2.85-4.23l-4.43-6.26c-4.54,1-6.84,4.74-10.26,7.78-2.09-.89-4.29-2-6.6-2.76a47,47,0,0,0-5.58-1.26,38.1,38.1,0,0,1-6.18-1.31,16.45,16.45,0,0,0-5.62-1.25c-1.15,0-2.27-1.1-4.15-2.11l5.36-3.89c5.36,5.78,12.1,7.34,20.34,5.6,1.3-1.66,2.89-3.94,4.73-6a4.33,4.33,0,0,1,3.62-1.51,76,76,0,0,0,9.51.57c3.11-.12,6.38,1.08,9.41-.88.2-.13,1.69,1,2.49-.26.65.69,1.26,1.68,2.16.26,1.56,1.5,3.14,0,4.32-.41,3.28-1.18,6.32-2.95,10-2.38.57.08,1.23-.9,1.94-1.13,2-.64,4-1.15,6.25-1.77C326.37,441.56,330.25,440.7,331.86,437.77Z" transform="translate(-33.59 -306.56)"/><path d="M234,455.61l-2.95,2.95c-3.81.38-7.57-.88-11.33-2.38a36,36,0,0,0-7.53-2.38,12.85,12.85,0,0,1-5.7-2.55c-1.84-1.33-3.77-2.85-5.89-3.4-5.79-1.48-10.65-4.8-15.84-7.46-4.26-2.18-8.57-9.15-8.11-13a31.59,31.59,0,0,1,1.17-3.78A49.13,49.13,0,0,0,179,418c.25-1.87-.42-3.89,1-5.58a14,14,0,0,0-1.34-1.59l4.11-4.5c-.27,3.89.52,6.83-1.32,9.51,2.49,2.64.28,4.49-1,6.58l3.45,3.72c-.53,3.19,2.27,4.79,3.55,7.07,1.78,3.2,5.34,4.7,8.56,5.61,3.56,1,6.4,3.29,9.82,4.35,3.58,1.12,5.85,4.3,9.26,5.65,2.84,5,8.05,4,12.52,4.86C229.72,454.07,232.17,452.85,234,455.61ZM188.05,438c-1.32-1.86-2.55-3.79-4-5.56-1.24-1.53-3.18-2.6-2.65-5.08a13.17,13.17,0,0,0-2-.76C179.35,432.6,182.51,437.34,188.05,438Z" transform="translate(-33.59 -306.56)"/><path d="M199.58,374.56c.8-4,1.22-7.19,2.1-10.25a13.92,13.92,0,0,0-.44-8.43c-1.38-4.52-4.61-7.82-6.47-11.95a3.57,3.57,0,0,0-2.28-1.69c-2.43-.51-2.37-2.92-3.51-4.37-.93-1.17.52-3.72,2.37-4.95,1.51-1,4.57-.86,5.29.65,1.15,2.42,3.35,3.88,4.74,6,3.44,5.12,6.38,10.66,5.67,17.06-.41,3.69-.92,7.36-1.27,11.07C205.52,370.39,203.88,373.13,199.58,374.56Z" transform="translate(-33.59 -306.56)"/><path d="M244.72,390c-1.8,0-3.6.14-5.38,0-7.94-.71-15.57,1.19-23.24,2.73a9.92,9.92,0,0,1-10-4.43c.89-2,3-2.69,4.38-1.84,4.22,2.57,7.72-.4,11.54-.81a26.69,26.69,0,0,1,8.13,0,15.43,15.43,0,0,0,3.34.65C237.59,386.2,241.25,387.88,244.72,390Z" transform="translate(-33.59 -306.56)"/><path d="M131.09,508.65c-3.52,1.12-4.46-2.16-6.59-3.48-2.18-.24-4.83.9-6.73-2.15,2.4-2.65,4.8-5.49,7.44-8.07a3.58,3.58,0,0,1,3.19-.56,3,3,0,0,1,1.83,2.82C130.31,500.91,130.76,504.59,131.09,508.65Z" transform="translate(-33.59 -306.56)"/><path d="M92,515.38c-.71,1.66-1.15,3.55-2.23,5s-2.74,2-4,3.11c-1.69,1.4-3.4-2.16-5,.1l-4.06-3.14c.94-1.1,2.06-2.38-.39-3.51.52-.3.84-.64,1.17-.66,2.12-.12,4.33.39,6.2-1.22C84,514.64,91,515.18,92,515.38Z" transform="translate(-33.59 -306.56)"/><path d="M266.82,437.37l1.93-4.39h7.66l.83,2.19c2,.81,3.27-2.59,5.5-.76,1.9,1.55,4.72,2.11,5.27,5.54-3.6.4-7,.72-10.34-.94-4.19-2.09-4.22-2-8.87-1.27A6.67,6.67,0,0,1,266.82,437.37Z" transform="translate(-33.59 -306.56)"/><path d="M167.05,595.87c.51-1.7.92-3.09,1.41-4.76.51.35,1.1,1.09,1.57,1,2.84-.41,5.93-.63,7.83-3.11,2-2.64,5.13-3.44,7.72-5.08.79-.5,2.16-.08,3.31-.08-.53,3.75-2.9,5.56-5.61,7.11-4,2.26-8.76,2.32-12.68,4.82C169.77,596.33,168.3,595.87,167.05,595.87Z" transform="translate(-33.59 -306.56)"/><path d="M117.41,546.11c-1.42,2.09-2.19,3.9-4.32,3.8-4-.18-8.17,4.65-12.26,0C105.3,546.49,109.74,545.41,117.41,546.11Z" transform="translate(-33.59 -306.56)"/><path d="M273.19,347.08c1.4,0,2.8,0,4.2,0,4.2.1,5.46,2.12,3.75,6.09-.73,1.68-1.63,3.28-2.75,5.49C276.53,354.53,274.86,350.81,273.19,347.08Z" transform="translate(-33.59 -306.56)"/><path d="M259.14,491.66c2.72,1.45,2.62-2.88,5.34-2.31.07,1.22.14,2.55.21,3.82l-7.43,8.68c-2.81-2.28-.34-3.81.08-5.46A42.76,42.76,0,0,1,259.14,491.66Z" transform="translate(-33.59 -306.56)"/><path d="M322.29,428c-6.36,7.1-6.53,7.15-12.48,4.11,3.15-1.4,6.18-2.83,9.28-4.07C319.91,427.69,321,428,322.29,428Z" transform="translate(-33.59 -306.56)"/></svg>