<svg id="Capa_1" data-name="Capa 1" xmlns="http://www.w3.org/2000/svg" viewBox="0 0 1855.48 601.7"><path d="M1948.18,1308.08H92.69V706.38H1948.18Zm-786.44-593h-1061c-.53,10.86-.31,581.94.2,584.94H1161.74Zm8,584.94H1940.2V715.37l-1-1.08h-42.14c-14,0-28.06-.12-42.09,0s-27.87-.75-41.78.69H1169.79Z" transform="translate(-92.69 -706.38)"/><path d="M334.43,822.12c-.06-1.73-.16-3.47,1.11-5.07,1.44.35,3.24-.74,4.57,1.07.06,1,.13,2.17.21,3.61l3.71-2-3-1.16v-4.08l1-1c1.46.39,3.31-.76,4.66,1.25v3.79a13.64,13.64,0,0,1,1.54-.66,11.13,11.13,0,0,1,1.52-.19l-2.31-2.15V813l2.21-1.56h2.56l1.54,2.32v1.58l-1.68,1.86L357,816l-2.4-2.07v-2.27l1.66-1.66h3l1.76,1.66v2.79l-1.78,1.78h4.85l-2.22-1.39v-3.27l1.67-1.66h3.12l1.88,3.55L366.11,816l1.06,1.06h3.23c.17,1.38,1.32.59,2,.81,1.78.61,3.33,1.8,5.27,2l-.11.1.5.59.23-.23a3.56,3.56,0,0,0-.62-.46c-.43-.53-.82-1.09-1.39-1.89v-2.88l2.86-2.3c-3-3.18-2.76-7.05-1.18-11.65l5.35-4.76v-5.18h-4.81v-6.51h4.77v-4.87h7.23v4.78h5v6.4h-4.77c-.39,1.95,0,3.81-.24,5.72A12.83,12.83,0,0,1,397,804.2c0,2.77.49,6.09-2.38,8.55l3.07,2.36c.06,1.52.3,2.93-.64,4.17l-.1-.11-.59.5.23.23a4,4,0,0,0,.46-.62c.75-.14,1.5.07,2.31-.48a19.54,19.54,0,0,1,3.87-1.53l-4-.29c-.32-1.14-.66-2.32-1.09-3.81l2.15-1.31-.31-.41h3.37l1.64,2.73-1.61,2.94c1.58-.27,3.16.68,4.32-1-1.9-.86-2.17-2.52-2.08-4.4l1.89-1.75h3l1.72,3c-.35,1.5-.73,2.74-2.28,3.31h5.16l-2.21-1.44v-3.2l2.14-1.57h2.67l1.59,2.54c-.5,1.5-.93,3.06-3.36,3.52l4.63.75c-.21-1.34-.46-2.86-.68-4.24l1.21-1.21h3.77l1.67,2.76c-.75,1.37-.92,3.12-3.48,3.22l4.18,1.33c-.24-.9-.43-1.57-.69-2.55l1.5-2.52H432l1.11,1.12c-.22,1.31-.48,2.84-.74,4.36l-2.62.4,3,2c.11-.83.21-1.56.37-2.72l2.21-1.64h2.33l1.79,1.8v2.5l-.77.77c-.87.32-1.8.63-2.44.84l2.38,2.38c0-1,0-2.11.06-3.22l.77-.77h3.25l1.77,1.81v3l-2.71,1.67-2.51-1c1.07,1.56,1.81,2.66,2.62,3.86l1.26-3c1.71.23,3.28-.32,4.9.72-.12-.47-.09-1.1-.39-1.34a27.34,27.34,0,0,0-2.75-1.82c.58-1.36,1.09-2.58,1.62-3.83h3.52l1.63,1.71v3l-2.36,1.51H454l-1.54-1.54v-3l2-1.65h3.71c.33,1.32.66,2.61.94,3.73l-2.27,2.26c.15.14.29.39.44.39,1.42,0,2.85,0,4.86,0-1.48-1-2.41-1.91-2.52-3.58.43-.79,1-1.75,1.54-2.78h3.3l1.68,1.69c.06,1.72,0,3.37-2.54,4.35l1.61.4-.41.64c1.17,0,2.33,0,3.53,0l-.1.11.5.58.22-.22a3.61,3.61,0,0,0-.62-.47c-1.08-1.15-.67-2.59-.76-3.85l1.79-1.85h2.19l1.78,1.78v3l-2.75,2.13,4.1,1a6.31,6.31,0,0,1-.6-1.42,11,11,0,0,1,0-1.82l1.82-1.77h2.9l1.72,1.88v2.2l-3,2.32a3.6,3.6,0,0,0,3,1.45l-.1.11.5.59.22-.23a3.61,3.61,0,0,0-.62-.47c0-.79,0-1.63,0-2.48l1.8-1.78h2.92l1.73,1.95v2.27l-2.88,1.79,2.05,2.06v-1.88l2-1.79H491l.92.92v4l-3.54,1.84c.6.58,1.2,1.15,1.6,1.55l3.3-3.67,3.66,1.73v3.43l-1.88,1.1.35.45-3,.21c.35.66.57,1,.75,1.41s.33.82.61,1.49l2.69-3.34,3.37,1.2c.31,1.17.65,2.46.94,3.59l-2,2c-1.09,0-2.16,0-3.27,0l.11-.1-.51-.59-.22.23a3.56,3.56,0,0,0,.62.46c0,.89,0,1.81,0,3.13l2.41-2.82,3.94,1.71v3.46l-1.66,1.66h-2.16l-1.66-1.59v3.69l2.21-1.14,2.59.74c.28,1,.66,2.25,1.05,3.58l-2.51,1.87h-2.53l-1.33-2.07c-.84.68-1.54,1.44-.82,2.79h2.93l1.76,1.75v3.29l-3.62,1.9c.9,1.35,1.23,2.82-.55,4.62l-2.05.93c.51,1.5,1.42,2.92,1.26,4.61l-8.16.66-4.09,5c.61,2.84-1,4.79-3,6.57-2.28.67-5,.81-5.87,3.74-3,3.27-6.34,6-11.06,6.65v3l-2,1.89h-2.45L456,913.68l2.54,2.73-5.27,2.75v2.67l1.22,1.15v3.68c-1,2.19-3.49,2.77-5.53,3.17-4,.77-7.86,2.34-12,2.28-1.63,1.1-3.58.53-5.44.82a2.13,2.13,0,0,0,.26.45.53.53,0,0,0,.29.16c.24,0,.48,0,.72,0H494.1v73.94a70.39,70.39,0,0,1,8.24-2.17c1.71-.31,3.63-.07,5.05-.74,1.79-.83,3.54-.09,5.15-.63,4.06-1.36,8.2-.46,12.3-.63s8.39-.14,12.58,0c1.56.06,3.07.74,4.73.72a34.26,34.26,0,0,1,5.1.67c1.58.22,3.06,1.09,4.73.71,2.26,1.4,5,1.23,7.39,2.13s4.78,1.23,7,2.24c4.24,2,8.55,3.84,12.37,6.55a26.75,26.75,0,0,1,5.08,5.06,5.44,5.44,0,0,1,.68,5.54c-1,2.48-2,4.92-3,7.36a59.24,59.24,0,0,0-3.32,8.33c-.08.3-.49.51-.92.94-.57-1.65-.54-3.63-2.47-4.36l-.72-.72-.72-.72-.72-.71c-.34-.46-.58-1.08-1-1.35a56.87,56.87,0,0,0-7.55-4.34c-3.59-1.48-7.4-2.39-11.07-3.68a72.26,72.26,0,0,0-8.8-2.24c-2-.43-4-.19-5.81-.72a20.88,20.88,0,0,0-5.85-.61c-2,0-4.07,0-6.11,0-1.44,0-3.12-.48-4.26.11-1.53.79-3,.46-4.44.59s-2.7,0-4.06.65c-.85.44-2.13,0-3.19.11s-1.95.57-2.95.67a85.77,85.77,0,0,0-12.65,3.34c-.2.1-.34.33-.65.64v3.4q0,49.77,0,99.56a46.67,46.67,0,0,1-3.17,16.65c-2.72,7.28-6.42,14-12.16,19.42-2.4,2.27-4.61,4.76-7.38,6.55a76,76,0,0,1-8.72,5,177.86,177.86,0,0,1-26,10.15c-4.75,1.39-9.48,2.69-14.34,3.65-2.07.41-4.18,1-6.27,1.24s-4.34.7-6.5,1-4.21.12-6.18.62c-4.58,1.17-9.17.47-13.75.61s-9.35.07-14,0c-1.59,0-3-.91-4.74-.75a10.73,10.73,0,0,1-4.78-.54c-1.64-.61-3.61-.44-5.43-.71-2.83-.41-5.58-1.11-8.38-1.57s-5.42-1.51-8.13-2c-5.86-1.13-11.19-3.8-16.94-5.19a24.77,24.77,0,0,1-4-1.61c-5.5-2.37-10.94-4.92-16.19-7.78a26.2,26.2,0,0,1-6.93-5.06c-1-1.09-2.43-1.78-3.46-2.84a42.48,42.48,0,0,1-4.57-5.3,64.5,64.5,0,0,1-6.35-10.66,55.84,55.84,0,0,1-3.14-9.49,50.94,50.94,0,0,1-1.34-6.61c-.22-2.38-.05-4.79-.05-7.19V1029.13a37.26,37.26,0,0,0-5.93-2.07c-4.38-.74-8.62-2.31-13.13-2.22-2.57-1.21-5.41-.16-7.95-.83a27.84,27.84,0,0,0-7.64-.56,54.88,54.88,0,0,0-5.82.67c-1.82.22-3.63-.21-5.51.61-1.35.6-3.11.45-4.7.73a121.55,121.55,0,0,0-12.67,3.32,53.56,53.56,0,0,0-8.67,3.37,29.34,29.34,0,0,0-10.42,7.86c-1,1.21-1.13,2.68-.95,4.76-1.4-3.1-2.6-5.54-3.61-8-1.29-3.18-2.18-6.55-3.73-9.6-1.44-2.86,0-4.92,1.44-6.76a24.13,24.13,0,0,1,8.41-6.49,80.83,80.83,0,0,1,13.8-5.77,34.14,34.14,0,0,1,3.81-1.19c1.36-.2,2.55-1.22,4-.77,2.65-1.41,5.77-.91,8.48-2.08a3,3,0,0,1,1.05-.07c2.9-.24,5.8-.58,8.7-.7s6,0,9,0h9.71c2.92,0,5.74,1.22,8.7.72,2,1.19,4.44.69,6.61,1.39s4.38,1,6.56,1.5a2,2,0,0,0,.3-.23.51.51,0,0,0,.15-.29V933.55H343l0-.5a8.81,8.81,0,0,0-1.43-.21,24.12,24.12,0,0,1-7.38-1.3,18.89,18.89,0,0,0-3.38-.52c-2.47-.27-4.76-1.29-7.18-1.76-3-.59-4.05-1.73-4.33-5.39l2.32-2.33c-.54-3.41-3.72-3.39-5.78-4.79l2.68-3.77a5.41,5.41,0,0,0-4.27-1.76,6.25,6.25,0,0,1-2.1-.69v-4.12a11.86,11.86,0,0,1-7.55-3.15,24.48,24.48,0,0,1-5.82-6.28c-4.14-.86-5.19-1.48-6.78-4.05.46-4.58-2.84-6.68-6.2-9h-5.89c-.24-1.61-.49-3.09.82-4.47l-3.81-2.05c0-1.46-.36-2.92.64-4.28l.1.11.59-.5-.23-.23a3.56,3.56,0,0,0-.46.62c-1.33.09-2.26-.8-3.42-1.46v-3.94c1.38-.87,2.92-1.72,4.68-.44,1-1.53-.88-2.25-.44-4.22l-1.62,2.82h-3.29l-1.53-2.28v-2.56l2.72-1.64,2.81,1.49v-4.13l-1.27,2h-3.51L271,855.51l3.63-3.16,3.57,1.57v-2.83l-3.06.72-1.29-2.17-.43.34v-3.31l2.7-1.62c1.4.74,3,1.09,3.28,3.19l1.9-3h-2.47l-1.9-1.9v-2.89l1.8-1.76a4.88,4.88,0,0,1,3.2.52c.39,1.09.7,2,1.05,3.06l1.86-1.86a27.3,27.3,0,0,0-2.91-1.2c-.26-1.13-.56-2.44-.82-3.64l1.92-1.93c1.36,0,2.78-.29,4,.71a4.59,4.59,0,0,1,.67.78c.07.71.19,1.43.41,2.61l2.79-2.55c-1.31,0-2.23,0-3.2-.06a4.59,4.59,0,0,0-.67-.78v-4l1-1h3.76l1,1v4.14c.82-.69,1.36-1.19,1.95-1.6s1.14-.66,2.32-1.31l-2.37-.17c-1.54-1.74-1.5-3.59-.2-5.62h3.88c.25.36.6.81.9,1.3s.52,1,.75,1.44c-.29.64-.57,1.23-.84,1.81.35.18.59.4.74.36,1-.29,1.89-.64,3-1-2-1.51-4.5-2.86-1.57-6.18l3.11-.88,2.1,2.17c-.25,1.15-.55,2.47-.8,3.81l-.1-.1-.59.5.23.22a4.15,4.15,0,0,0,.46-.62c1.13,0,2.3,0,4,0l-1.84-2.76v-2.67l2.06-1.91,3.61.94v3.95L312,827.63a13.13,13.13,0,0,0,4.82.09l-1.73-2.54v-2.79l1-1h3.62l1.21,1.28c-.2,1.44-.43,3.12-.7,5.05l3.53.2c-.37-.88-1-1.2-1.45-1.79v-3.75l.87-.87h3.12l1.67,1.67v3l-2.33,1.51h4.13c.79,1,1.54,2,2.35,3,.3-.94.59-1.89.85-2.87l.11.11.59-.5-.23-.23a3.61,3.61,0,0,0-.47.62c-2.3-.09-3.53-1.54-4.31-3.67l1.57-2.71c1.44-.06,2.9-.37,4.22.66l.78.78c.06.86.06,1.79.06,3.1.85-.93,1.46-1.57,2-2.26.1-.11-.05-.43-.11-.78-.64,0-1.34,0-2-.06Zm53.9,30.27.14-.14-.51-.59-.22.23a2.08,2.08,0,0,0,.65.42,2.39,2.39,0,0,0,1.28.7l-.62,0,.27,1.4.47-.06a1.59,1.59,0,0,0-.68-1.36A3.42,3.42,0,0,0,388.33,852.39Zm49.78,2.86-.14-.14-.59.5.23.23a2.08,2.08,0,0,0,.42-.65,2.71,2.71,0,0,1,.62-.53c.66-.27,1.15-.51,1.67-.67s1.29-.3,1.76-.4l-.7-3.4c-.9,1.48-1.76,2.89-2.63,4.28A3.42,3.42,0,0,0,438.11,855.25ZM492,872.33h2.54l-1.5-2a13.54,13.54,0,0,0-1,2.17l-.14-.14-.59.5.23.22A1.7,1.7,0,0,0,492,872.33Zm-102.32-51-.62,0,.27,1.41.47-.06c0-.46-.08-.92-.11-1.36l-2-1,.38-.35h-3.19c-.54.91-1.05,1.77-1.56,2.65.32,4.58-1.63,9.11-.38,13.91.62-1.15.77-2.51,2.4-2.3.27,0,.57-.17.91-.29l-2.12-2.12v-3l1.64-1.65h1.87l2.1,1.62v3L387.7,834l2.68,1.73V823.12l-2.16,3.24h-2.45l.5-.52-2.52-1.26c.57-1.38.94-2.3,1.3-3.18C386.48,821.4,387.79,821.4,389.67,821.38Zm-55.24,48.19-3-1.44c1.85,4.92,2.11,5.33,4.46,7.19,1.75-.77,3.35-2.49,5.67-.58a15.63,15.63,0,0,0,1.25-9.06l-2.46,3.46a11,11,0,0,0-4.2-7.45C334.79,863.57,334.43,865.19,334.43,869.57Zm25.32,63.34c1.43.86,2.62.9,4.92,0-1.82,0-3.44,0-5.06-.08-.19-.24-.37-.68-.57-.69-2.07-.13-4.21.34-6.17-.75-4,.25-7.68-1.48-11.63-1.46-.4,0-.8-.4-1.22-.49-1.54-.34-3.11-.58-4.65-.93-2.83-.66-5.65-1.37-7.84-1.91l-3.09.51v-1.86a8.23,8.23,0,0,1,2.58-1c2.89,0,5.6-1.11,8.35-1.68s5.71-1.28,8.52-1.8c3.46-.64,7-1,10.53-1.56,2-.32,4.1,0,6.2-.65,1.62-.53,3.57,0,5.35-.14s3.4-.63,5.1-.66c5.87-.08,11.75-.16,17.61,0s11.81-.64,17.7.61c2.51.53,5.3-.21,7.76.43s5.39-.44,7.8,1.08c4.21-.34,8.17,1.52,12.35,1.44,1.21.93,3,.16,3.92.84,1.24,1,2.66.21,3.9,1.2,1,.8,2.84.54,4.28.85s2.59.7,3.87,1.06a4.59,4.59,0,0,0,.41,2.13l-3.12-.92a218.37,218.37,0,0,1-31.84,5.88c.12.15.17.3.24.31,4.36.87,8.59-1.06,12.93-.57,3.27-1.36,6.85-1.2,10.26-2,3.69-.9,7.48-1.49,11.12-3h.36c1.86-.19,2.5-.6,2.51-1.71,0-1.29-.74-1.62-1.95-2-2.8-.79-5.65-1.45-8.42-2.26-2.58-.75-5.24-1.08-7.81-1.88a52.37,52.37,0,0,0-8-1.42c-1.92-.28-3.86-.64-5.8-.81a41.71,41.71,0,0,1-5.84-.64c-2.32-.53-4.8-.17-7.25-.71s-5,0-7.52-.14-5.07-.58-7.61-.66c-3.47-.12-7-.13-10.43,0s-6.75.45-10.13.7c-2.89.21-5.77-.19-8.72.59-2.39.64-5.06,0-7.59.78-1.61.48-3.37,0-5.12.67-1.51.61-3.47-.25-5.05.83-3.39-.26-6.48,1.51-9.83,1.44-1.25,1.2-3.15.11-4.24,1s-2.45,0-3.6,1.07c-.83.78-2.59.52-3.91.85a22.83,22.83,0,0,0-2.69,1v2.51a9.71,9.71,0,0,0,2.72,1.44c5,.73,9.8,2.88,15,2.92,1.71,1,3.83.16,5.39.86s3.22.33,4.8.58,3.14.58,4.73.69C356,932.92,357.81,932.83,359.75,932.91Zm20.73,228.52a28.94,28.94,0,0,0-2.15,2.14c-1.23,1.51-2.26,3.18-3.57,4.61a53.71,53.71,0,0,1-16,11.69,68.94,68.94,0,0,1-8.58,3.56c-2.58.89-5.33.81-7.93,1.65-1.3.42-2.85.07-4.29.07h-7.08a4.33,4.33,0,0,0,2,1c3.62,1.07,7.07,2.66,10.85,3.33,2.28.4,4.44,1.46,6.71,2,3.63.79,7.28,1.48,10.92,2.25,1.65.36,3.38.18,5.1.69s3.73-.32,5.42.81c3.53-.22,7,.56,10.48.62,4.8.07,9.62.51,14.46-.51,3.14-.66,6.51.11,9.75-.78,1.51-.42,3.16.19,4.75-.7,1.14-.64,2.66.36,4.05-.7.86-.66,2.34.07,3.65-.68a10.11,10.11,0,0,1,4-.73c3.69-.23,7-1.78,10.49-2.56,3.74-.84,7.3-2.43,10.94-3.69a9.55,9.55,0,0,0-2.74-.35c-3.26-.24-6.48.18-9.8-.57a85.65,85.65,0,0,1-11-2.92,56.09,56.09,0,0,1-18-11.13c-1.49-1.33-2.95-2.7-4-3.81a17.13,17.13,0,0,0-4-5.26c-.1-.07-.4.12-.69.21v2.21c1.45.88,2.86,1.73,4.24,2.59.17.53.35,1.06.51,1.59.73,2.37,1.88,4.49,1.07,7.31a10.51,10.51,0,0,1-4.78,6.3c-1.75,1.16-3.58,1.28-5.51,1.46.25,1.56-.24,3,.57,4.58,1-.9,1.75-1.61,2.51-2.31,1.84-1.69,5.95-3.78,7.75-3.82,2.88,0,5.76-.11,8.63,0a20.8,20.8,0,0,1,4.26,1c.3.08.51.48,1,1-1.74,1.13-3.45,2.2-5.11,3.33-2.83,1.94-6.11,3.21-9.31,2.45s-6.25-.2-9.11-.59l-1.13,1.13v3.35c-1.59-.74-2.7,1.38-4.1.43.43-1.68.83-3.22,1.35-5.28l-2.14,1.12c-2.52,0-5.27,0-8,0a7.07,7.07,0,0,1-2.05-.25,22,22,0,0,1-9.2-5.56c-.91-1-2-1.76-3.18-2.81,3.8,0,7.48.06,11.16,0a12.16,12.16,0,0,1,4.87,1.26c3.05,1.23,5.48,3.4,8.33,5.2v-3.65c-2.21-.83-4.63-1.12-6.51-2.6a14.48,14.48,0,0,1-4.15-5.93c-.25-4.7.75-8.88,5.59-11.16a13.1,13.1,0,0,0-1.54-2.51h5.57l2.51-2.24q1.4,1.38,2.25,2.25l3.73-1.55c-3.13-4.82-4.82-10-6.92-15.81a75.39,75.39,0,0,1-2.91,8.94C383.39,1155.9,381.39,1158.2,380.48,1161.43Zm110.67-105V936.6H389.21v78.67a14.81,14.81,0,0,0,3.34.91c5.34.12,9.9,2.58,13.81,5.63a41.71,41.71,0,0,1,13.3,17.4,39.77,39.77,0,0,1,2.49,8.65c.2,1.36.44,2.68.71,4a23.51,23.51,0,0,1,.06,4.52Zm-207-119.92v119.88c12.7.52,65.17.31,68-.24.31-2.47.56-4.89,1-7.28s.93-4.82,1.46-7.5H304.3v-17.29h8.44V994l-3.36-.2V977.37h6.24v-7.9l-2.77-1c0-1.31,0-2.74,0-4.16s0-2.76.07-4H317c.12.79.22,1.42.32,2.05l1.09-.1.29-1.9h4.31v1.9h1.15l.31-2h4v8.64h-2.64v8.38H330v-19l-3.39-1V948h3.24l.46,1.27h1.73l.43-1.23h5.36l.44,1.31h.85l.62-1.27h3.91v9.82l-3.37.2v19.23h4.09v-7.86l-2.65-1c0-2.66,0-5.38,0-8.1,0-.08.17-.16.1-.1h3.24l.31,2.05,1.1-.1c.1-.63.2-1.29.29-1.91h5v1.91H353l.3-2h3.29v8.64h-2c0,1.54,0,3,0,4.38s.05,2.77.08,4.27H361V994h-4.13v30.06h9.52a36,36,0,0,1,12.33-7.17c2.49-.78,5.21-.42,7.42-1.67V936.48Zm192.7,163.92v8.2l3.56,3.55c.35,4.19,0,6.13-3.5,7.85v5.38l3.56,1.68c-.34,3.36-.65,6.48-1,9.8l-3.19,1.1c-1.29,2-.81,4.63-2.28,6.63a1.77,1.77,0,0,0,.42,1.94,4.82,4.82,0,0,1,1,4,8.63,8.63,0,0,1-5.21,5.25h-2.31l-4.74,4.36v4.59c-2.93,1.41-5.32,3.94-8.88,4l-2.4-2.28-6.52,1.84c-1.45,3.76-2.67,4.3-8.28,3.92l-3.81-4.09-6.29-1.71-2.61,2.6a18.64,18.64,0,0,1-8.84-5.18c.27-1.11.53-2.21.82-3.39-1.16-1.81-3.59-2.57-4.49-4.7h-3.38a8.27,8.27,0,0,1-4.88-4.81c-.88-2.19.79-3.72,1.42-5.51-.83-2.6-1.64-5.14-2.32-7.29l-3.45-1.27c-.45-3.27.48-6.56-.66-9.88l4.12-1.71v-4.44c-4.31-3.2-4.31-3.2-4.24-7.61a8.12,8.12,0,0,1,4.28-4.56v-7.91c-1.46-1.24-4.32-.44-4.57-3.26l-8.9,1.75-.92.74c0,9.47.08,18.81-.07,28.15,0,1.8.84,3.34.8,5.09-.05,1.91,0,3.83,0,5.75a2.19,2.19,0,0,0,.08.68c1,2.94,1.68,6,2.72,8.93,2.06,5.87,5.53,12.26,9.48,16.2l4.57,4.58a43.64,43.64,0,0,0,15.68,9.89c1.35.51,2.75.89,4.14,1.27a24,24,0,0,0,4.57,1.19c1.45.12,2.85.9,4.38.63s3.17.59,4.74.67c1.21.06,2.44-.64,3.66-.62a37.27,37.27,0,0,0,9.49-1.38c5.64-1.35,10.61-4,15.54-6.8,3.81-2.2,6.73-5.39,9.82-8.4a38.13,38.13,0,0,0,7.43-10.59,44.15,44.15,0,0,0,4.56-13.23c.52-3.64,1.33-7.21,1.32-10.92q0-34,0-67.9v-3.61H423.08c-.34,2.86-.67,5.58-1,8.46h5.09l1.87,3.61h4.86l3.34-3.58h5l3.52,3.52h4.94c.36-1.25.69-2.42,1-3.41h9.71c1.68.84.84,2.27,1.31,3.39h6.1l3.43-3.49H477c1.3,1.19,2.44,2.24,3.48,3.18v5.27L477,1079.7v8.11l3.39,1.2v9.8ZM355.3,1056.75c0,1.19.06,2.4,0,3.59a24.47,24.47,0,0,0,1.54,9.08,72.26,72.26,0,0,0,4.3,9.71,13.19,13.19,0,0,0,2.52,3.26c2.18,2.2,3.93,4.77,6.51,6.65a46,46,0,0,0,10,5.53,24.91,24.91,0,0,0,10.2,1.47,26.25,26.25,0,0,0,8.49-2.09c4-1.52,7-4.2,10-7.13a36,36,0,0,0,8.84-14c1.45-4.2,2.72-8.47,2.44-13-.07-1.13.36-2.28.36-3.42s-.38-2.36-.37-3.53a27.3,27.3,0,0,0-1.49-8.38,38.89,38.89,0,0,0-10-17.06c-1.25-1.2-2.68-2.2-4-3.32a25.38,25.38,0,0,0-13.11-5.61,26,26,0,0,0-9.78.48,32.73,32.73,0,0,0-13.6,7.13c-2.83,2.41-4.77,5.5-6.72,8.68-3.7,6-6.05,12.33-6.07,19.43C355.29,1055.07,355.3,1055.91,355.3,1056.75Zm-38.23,122.19V1059.51H304.93q0,55.35,0,110.38a17.33,17.33,0,0,0,.63,3.39C309.37,1175.5,312.87,1177.65,317.07,1178.94Zm12.43-119.53v122.8h10.38c1.64-1,1-2.6,1-3.94q0-57.66,0-115.3v-3.56Zm74.12-175.68c-4.74-.89-9.05-1.62-12.89-4.1-.31,1-1.05,2.06-.82,2.86,1.12,4,2.75,7.64,7.4,8.65,1,.21,2.36,1,2.86.6,1-.78,2.28-.14,3-.7,1.93-1.62,4.63-2.59,5.18-5.28-1-2-.21-3.91-.55-5.74l1.81-1.72h3.31l1.39,3.55-1.88,4.62c.22.75.43,1.5.64,2.22,2.77,3.63,6.39,5.29,10.91,4.41,2.14-.67,4.22-1.77,5.24-3.69s2.3-3.85,1.41-6.13c-3.83.77-7.38,1.72-11.38,1.27l.7-3L414,876.31l5.15-3.27h2.2l.3-3.79,8.54,3.83c-.49-3.17-.94-6.15-1.4-9.12a3.74,3.74,0,0,1,3.38.54c.29.22.89,0,1.32,0,.41-1.09.76-2,1-2.71a61,61,0,0,1-4.37-7.45l3.66-3.1a14.55,14.55,0,0,0-2.94-1.08c-4.41-.52-8.31-2.44-12.37-4A69.81,69.81,0,0,0,407.59,843c-3.43-.71-7-.87-10.55-1.29-.16,3.84.95,7.4,2.25,11.24l-5.81,5.8h3.4L393.54,869l10.12-2.34-.81,4.16c3,.56,5.44,2.34,7.8,4.1a13.16,13.16,0,0,1-7.73,5Zm-23.05-14.91c-1-3.51-2.53-6.49-3-9.86l2.34-.37-5.33-5.15c.8-4,2.3-7.81,2.2-11.82-1.79-.29-3.24.54-4.63.53-3.63,0-7.08,1-10.5,1.73a53.16,53.16,0,0,0-9.73,3.3c-3.26,1.37-6.54,3-10.27,3-.48,0-.95.65-1.65,1.16l3.13,2.86c-.3,3-2.62,4.94-3.67,7.45.63,1.23,1.23,2.4,1.73,3.35l3.7-1.42c1.25,3.18-1.37,5.94,0,8.84l7.59-2.86V873a11.53,11.53,0,0,1,7.28,2.7c-1.76,3.49-1.77,3.5-5.72,5.58l1.72,3.43c-2.49-.22-4.6.26-6.65-.28s-3.86-.92-5.95-1.31c.6,1.84,1.11,3.39,1.6,4.94.61,1.91,2.28,2.73,3.76,3.78a7.4,7.4,0,0,0,4.8,1.28,9.85,9.85,0,0,0,8.69-6.84,7.93,7.93,0,0,1-1.6-6l1.68-2.06h3c2.8,2.49,1.64,5.45,1,8.18,1.41,1.42,2.52,3,4,3.87s3.15,1,4.67,1.49c1.62-.51,3.39-.71,4.75-1.57s2.59-2.46,3.86-3.73c1.18-2.18.65-4.48.77-7.15-2.46,1.18-4.46,2.71-6.63,3s-4.64,1.77-7.08.53l.9-3a14.25,14.25,0,0,1-7.58-4.53,11.34,11.34,0,0,1,7.59-4.66c-.29-1.48-.55-2.74-.8-4Zm-50.32-12.91a2.37,2.37,0,0,0-3-1.37l-1.82-2.17c-11.07-.66-21.15,2-30.63,7.16-1.82,1-4,1.63-5.1,3.46l3.08,3c-1.91,3.42-3.63,6.51-5.39,9.69l4.37,1,.45-1.31,3.53,1.81,1.9,3.68c.07,1,.14,2.05.21,3.2l8.88-5.42c.68,1.36-.33,3,2,3.86,2,.16,4.91-.78,6.92,1.71a11,11,0,0,1-4.77,5l2.15,3.2-8.86,1.78c3.1,3.38,6.46,5.88,11,5.48l1.59-1.42,1.07-3-2-3v-4.56l.9-.9H320l2.31,3.32v3.49c1.69,2.14,4,2.76,6.37,3.14s4.37-1.07,6.2-2.28,2.51-3.47,3.1-5.48a4.11,4.11,0,0,0-1.29-4.54c-2.87,2.46-6.54,3.44-10.18,5.13v-3.49a11.64,11.64,0,0,1-7.13-2.46V882l5.07-4.29c-.24-.85-.52-1.88-.84-3.06,1.72,0,3.15,0,4.57,0s2.77-.25,4.56.9l-4.33-8.74h4.55V864c.7-1.51,1.14-2.48,1.76-3.8h-3.82l-1.54-3Zm109.49,4.45c.75,2.13,1.49,4.19,2.25,6.33.65,0,1.36,0,2.07,0s1.28.13,2,.21c-1.55,2.9-3,5.57-4.57,8.59,3.41-1.48,6.43-.66,9.54-1l-1.61,3.2c2.48,1.58,5.35,2.55,5.92,6l-7.15,2.72c-.08,1-.16,2.08-.25,3.11-3.53-1.59-7.39-2.08-10.06-5.38L436.61,886v5.24l5.58,5.57c4.15.15,7.83.35,10.23-3.39.05-1.92-.37-4.07,1.09-5.73,1.41-1.29,3-.88,4.81-.85.28,1.87.53,3.56.8,5.38l-2.34,1.92v3.15a4.5,4.5,0,0,0,4,3.2,18.89,18.89,0,0,0,9.8-6.4l-7.66-1.07.4-.23-2-.72,2.13-2.28c-4.36-4.55-4.36-4.55-4.22-6.72l7.34-.81c.36-1.15.71-2.3,1.05-3.43l8.49,5a10,10,0,0,1,3.95-7.63l2.56-.64c.1.47.16.79.26,1.26l3.56-1.16-5.43-9.3,3.37-2.72c-6.74-5.26-14.25-8.06-22-10.33-4.78-1.41-9.75-1-14.76-.94l-.33,1.21-3.49,1.29v3.52l-1.89,2Zm-87.21,202.73V1179.3c4.49-1.67,8.76-3.5,12.08-6.66V1087.9C358.14,1080.66,353.78,1072.68,352.53,1063.09Zm89.1-138c-2.35-.59-4.82-.82-7.19-1.57-1.36-.44-2.89-.11-4.39-.7a21,21,0,0,0-4.36-.69c-3.74-.55-7.51-.95-11.26-1.5-2.86-.42-5.77-.13-8.71-.65A36.88,36.88,0,0,0,396,920c-3.22.28-6.24-1.08-9.41-.76-1.47.14-2.91.56-4.38.67s-3.12-.05-4.68,0c-4,.25-8-.56-11.95.64-2.3.7-4.77-.22-7.28.64-2.19.75-4.79.13-7.23.78s-5,0-7.16,1c-1.88.83-3.8.11-5.66,1.15-1.67.93-4,.75-6,1.06l.15,1.14c2,.28,4.22,0,5.75,1s3.41-.32,4.53,1.27c1.66-.27,3.16.57,4.73.7s3.17.43,4.75.68c3.5.57,7,1.1,10.55,1.36s7,.71,10.48.91c4.69.26,9.45-.82,14.09.67.44.14,1.19.22,1.4,0,1.09-1.22,2.46-.57,3.7-.66,4.8-.37,9.66.61,14.45-.69,2.24-.61,4.61.39,7-.53,2.11-.83,4.53-.08,6.83-.86,2-.69,4.42-.28,6.48-.91,1.49-.46,3.26-.06,4.32-.75,1.6-1,3.34-.17,5-1.19,1.41-.89,3.49-.73,5.23-1Zm-118.64-4c3.35-.93,6.42-2.11,9.58-2.55s6.1-1,9.07-1.68c3.77-.81,7.63-1,11.37-1.93,2-.5,4.2.29,6.16-.79,3.77.41,7.46-.66,11.2-.69,9.11-.09,18.22-.11,27.32,0,3.74,0,7.46-.37,11.24.56,2.64.65,5.53,0,8.31.77,1.86.49,3.86.29,5.83.63,3.13.54,6.29,1.09,9.45,1.48a47.94,47.94,0,0,1,6.76,1.16c2.13.57,4.37.76,6.45,1.74,1.47.7,3.31.62,5.23.92l.87-2.36-6-4.49c.48-.49.82-.83,1.16-1.16,2.86-.09,5.85.45,8.28-1.77-.69-.38-1.34-1-2-1.07-3.77-.22-7.3-1.6-10.93-2.37-4.63-1-9.38-1.36-14-2.65-1.33-.38-3.14.44-4.23-.18-1.42-.81-2.74-.49-4.08-.56s-2.7-.53-4-.67c-3-.33-6-.35-9.05-.68-6-.65-12,.38-18-.81-3.4-.68-6.73.61-10.12.73-4.94.17-9.9-.69-14.82.61-1.57.41-3.35,0-5,.09s-3.16.51-4.74.68c-2.77.29-5.66.11-8.3.83-3.4.92-7,.54-10.28,2.06-4.15-.06-8,1.75-12,2.21-1.73.2-3.38,1-5.53,1.74a13.8,13.8,0,0,0,6.51,1.77,5.13,5.13,0,0,1,3.77,1.09L323,917.92ZM294,1162V1059.42h-9.95v68.93c0,1.55,0,3.11,0,4.67a14.84,14.84,0,0,0,.59,4.77,27.79,27.79,0,0,1,.76,4.7,38.65,38.65,0,0,0,3.25,10.16C290.08,1155.68,292,1158.48,294,1162Zm141.5-312.6c1.05-2.07,2.29-4.12,2.47-6.48s0-5,0-7.31c-.3-.58-.48-1-.72-1.36-1-1.52-1.48-3.26-2.81-4.61-5.4-5.48-12.25-7.43-19.59-8.28-3.87-.44-7.64.5-11.23,1.57-2.58.77-5.6,1.27-7.37,3.92V839l1.06,1.06c1.66.09,3.38.43,5,.58a85.94,85.94,0,0,1,9.09,1.61,40.66,40.66,0,0,1,8.63,2.59A57.51,57.51,0,0,0,435.52,849.44Zm-96.87,0c.78-.24,1.51-.48,2.26-.7,1.5-.43,3-.92,4.5-1.25,4.92-1.07,9.19-3.94,14.16-4.85,2.65-.48,5.22-1.35,7.88-1.77,3.07-.48,6.19-.65,9.59-1,.19-2.14.45-4.29.54-6.46s0-4.5,0-6.74c-4.88-3.35-10.3-4.69-15.94-5.22a25.27,25.27,0,0,0-6.9.57,43.86,43.86,0,0,0-9.22,3c-2.43,1-4.08,2.95-6,4.59-3.47,3-4,7-4.38,11.13a3,3,0,0,0,.16,1.36C336.36,844.48,336.31,847.37,338.65,849.42Zm108.12-1.17.93,1.91c1.6,0,3.27-.1,4.92,0s3.15.67,4.73.65c3.37-.05,6.48,1,9.6,2a56,56,0,0,1,15.29,7.28,10.54,10.54,0,0,0,2.83,1,6.46,6.46,0,0,0,1.14-1.5,22.61,22.61,0,0,0,.79-6.51c.16-4.19-1.64-7.46-4.29-10.43s-6.1-4.64-9.64-6.19a41.06,41.06,0,0,0-16.46-3.57c-3.34,0-6.76-.54-10,1.13l2.89,1.92v3.11l-1.58,1.58c.28.58.57,1.29.94,2s.91,1.48,1.21,2c-.27,1-.48,1.73-.7,2.51Zm-123-1.79c-.53-2.4.72-3.9,2-5.34l-1.28-1.28v-4l3.77-1.79A12.54,12.54,0,0,0,325,833c-4.08-.11-8.27-.64-12.2.12a59.19,59.19,0,0,0-12.25,3.32c-5.56,2.35-10.2,6-12.92,11.52l-.46.92a26.22,26.22,0,0,0-.91,5,28.56,28.56,0,0,0,1,5.11c.28.41.83,1.24,1.44,2.18,11.17-7.76,23.7-10.57,36.87-11l1.09-1.39Zm130.5,48.77c-1.92,1.16-3.37,2.61-5,2.86s-3.41,1.65-5.31.74c-1.7-.81-3.85-.56-5.18-2.28-1.13-1.47-2.36-2.86-3.35-4.06-.33-1.7-.6-3.15-.9-4.72,1.22-2.31.78-3-2-2.89-.35,1.46-.68,2.89-1.08,4.57-1.08,1.08-2.36,2.33-3.6,3.61a5.46,5.46,0,0,1-4.34,1.69c-2-.08-4.05,0-6.07,0-4-1.24-5.68-4.59-7.17-8.14-4.42,5.08-4.66,5.44-8.3,6.39s-6.93-.11-9.8-2.7-4.12-6-3.69-10.26l-2.93,1v4.14c-2,5.18-5.31,7.81-10.22,8.14-5.07.34-8.5-2.37-11.24-6.85-2.66,7-7.71,9-13.85,8.24-4.9-1.91-7.72-5.27-8.73-9.89h-2.09c.65,5.92-.85,10.67-6.85,12.88-3.69,1.36-7.35,1.22-12.49-3.07-1.07,3.24-2.27,6.37-6,7.33-7.32-2-7.12-2.49-13.22-7.81L300,895.9c2.15,1.92,3.55,4.59,6.17,6.36a13.72,13.72,0,0,0,9.4,2.46,4.62,4.62,0,0,0,2.85-1.65,36,36,0,0,0,2.66-4.6c3.74,2.8,8,3,12.31,1.73s6.5-4.76,8.55-8.53a13.91,13.91,0,0,0,8.3,5.53c1.11.22,2.44.58,3.33.16a4.71,4.71,0,0,1,2.33-.45,5.63,5.63,0,0,0,4.1-1.44c1.53-1.35,3.23-2.52,4.86-3.76a10.73,10.73,0,0,0,9,3.74c1.32,0,2.64,0,4,0a7,7,0,0,0,2.27-.59c3.14-1.05,4.84-3.61,6.81-5.88,2.17.3,1.77,3.08,3.86,3.7,1.65.49,3,1.88,4.32,2.72h8.77l6.07-3.57c1.81,1.44,3.47,2.88,5.26,4.14s4.11,1.09,6.16,1.55,4.31-.52,6.17-1.44,3.5-2.67,5.21-4a1.31,1.31,0,0,1,.24.39,11.5,11.5,0,0,0,7.9,7.71c4.75,1.5,6.24,1.48,10.72-.62a14.31,14.31,0,0,1,1.86-.59c.43.87.76,1.57,1.11,2.26a6.22,6.22,0,0,0,4.41,3.53c3.67.6,7-.76,9.82-3.06,1.92-1.57,3.56-3.49,5.28-5.21-.11-.7-.2-1.23-.35-2.09-2.24,1.25-3.31,3.38-5.39,4.31a51,51,0,0,0-5.46,3.25h-4.2l-3.42-3.26v-2.18l-.38.35ZM386,1133.56c-.08-.28-.61-1.12-.38-1.51,1.11-1.89.62-3.9.64-5.84.06-6.81,0-13.63,0-20.45v-6.51l-1-1c-3.78-.14-3.77-.16-7.79-2a6.83,6.83,0,0,0-1.87-.29v66C382.15,1153.45,385.15,1144.21,386,1133.56Zm68.11,6.88-6.63-7.89,2-3.12c-2.33-2.83-4.16-5.85-6.8-8.29-1.28,2-1.36,3.46-.92,15l3.38,1.58V1148l-3.35.78v11.73l4.28,3.26,3.49-1a13.34,13.34,0,0,0,0-2,6.39,6.39,0,0,0-.59-1.34l9.59-5.11,2.06,2,3.28-2.23a10.42,10.42,0,0,0-.51-4.06c-.38-1.1.45-2.6.69-3.7l-6.44-7.45Zm-22.4-7.75-6.77,7.72-3.48-1.51-6.59,7.53c1.53,2.18.81,4.49.24,6.24l3.48,3.48,2.64-1.78c2.77,1.69,5.49,3.69,8.84,4.44-.24,1.27-.49,2.56-.74,3.88l4.46,1,3.5-2.71v-12.17l-3.41-1.16v-9.48c.84-1.69,2.27-.84,3.48-1.35,0-4.84,0-9.72,0-14.6a8.78,8.78,0,0,0-.28-1.32l-7.49,8.48Zm-117.2-223c2.33-.7,4.52-1.51,6.79-2,2.64-.57,5.37-1,7.9-1.78,3-.9,6-1,8.94-1.78,2.09-.57,4.44-.23,6.48-.9a19,19,0,0,1,4.05-.63c1.34-.14,2.67-.55,4-.67,2.19-.19,4.35.06,6.57-.63,1.74-.55,3.8,0,5.71-.14s3.87-.63,5.81-.66c6.23-.09,12.46-.15,18.69,0s12.54-.73,18.74.69c4.5-.54,8.88,1,13.36.72.36,0,.88-.14,1.05,0,1.19,1.3,2.71.41,4,.67s2.67.54,4,.71c2.29.29,4.66.22,6.86.81s4.15,1,6.25,1.38,4.17.9,6.24,1.43c2.92.74,5.83,1.53,8.73,2.33.25.06.44.31.69.51l1.18-1.58c-.58-.51-.94-1.08-1.44-1.24-3.06-1-6.12-2-9.23-2.87-2-.53-4-.66-6-1.06s-4.05-.73-6-1.27c-3.75-1-7.63-1-11.37-2-1.87-.48-3.85.1-5.84-.66-1.75-.67-3.81-.07-5.81-.7s-4,0-6.07-.16-3.87-.67-5.81-.65c-13.43.17-26.89-.64-40.31.66-1.3.13-2.73-.29-3.93.08a44.68,44.68,0,0,1-8.41,1.36c-2.88.34-5.78.5-8.68.74-.12,0-.31-.05-.35,0-1,1.46-2.81.06-3.89,1-1.26,1.09-2.88,0-4.3,1-.89.67-2.62.54-3.94.72-4.94.67-9.53,2.51-14.29,3.74-.57.15-1,.8-1.63,1.32Zm158,169.2c-2.16,2.56-3.92,4.68-5.71,6.77s-3.75,4.31-5.49,6.3l2.15,3.36-6.75,7.78-3.45-1.52-7.27,8.68c.34.73.66,1.44,1,2.21h2.68c2-.75,1-2.44,1.59-3.53h10.73c.31,1.31.59,2.46.86,3.58h5.56l4.14-4.07v-8l-3.52-1.21V1089l3.47-1.19Zm-30.68,28.79c3.27-1.23,4.21-4.46,6.38-6.42.84-.76,1.15-2.1,1.64-3.07-.74-.87-1.26-1.48-1.9-2.21l6.61-8.14,3.49,1.53a20.09,20.09,0,0,0,2.88-2.94,56.89,56.89,0,0,1,5.9-7.21,7.21,7.21,0,0,0,2-3.26h-5.91c-.38,1.28-.72,2.44-1,3.39h-9.69c-1.69-.84-.83-2.27-1.31-3.38H446l-4.27,4.11v2.37c.77,2,2.49.89,3.43,1.52v10.45l-3.37,1.17Zm-25.59,24.9c1.46-1.46,2.54-2.58,3.67-3.65s1.33-3,3.41-3.53l3.08,1.38,6.58-7.56V1117h-4.06c-.37,1.08-.76,2.23-1.18,3.43H418l-1.88-3.53h-5.61l-3.93,3.5v5.06c1.26.21,2.61-.36,3.44,1.35,0,.86-.41,2.27.09,3.18,1.12,2.07.32,4.1.7,6.16l-3.74,1.77,1.69,5.57H412l6.12-7.09Zm12.7-56.67c-.39,1.15-.79,2.3-1.22,3.57H417.46l-1.95,4.28c1.77,2.13,3.38,4,4.91,5.9l3.86-1.5,6.65,7.75-2.27,3.52c3.39,2.19,4.73,6.23,8.65,8.55v-12.32l-3.51-1.3v-9.8l3.4-1.52v-3.2l-3.47-3.93Zm17.2,42.73c2.22,2.71,4.47,5.49,6.57,8.06l3.66-1.42,6.37,7.5c-.56,1.24-1.1,2.45-1.67,3.69l6.56,7.49,2.75-.71c.57-1.63,1.15-3.31,1.81-5.22l-3.89-2c.33-3.31.64-6.43,1-9.76l3.29-1.12v-4.9l-4-3.37h-5.73c-.42,1.23-.81,2.38-1.17,3.41h-9.86l-1.49-3.33h-3.32Zm-36.21-27.82v8l-3.41,1.52v8.29a6.26,6.26,0,0,1,3.79,3.8h6.05l1.18-3.43h10.35c.42,1.23.82,2.37,1.2,3.49h3.19l1-2.15-7.43-8.47-3.9,1.52c-.51-2-2.11-2.83-3.12-4.09s-2.1-2.68-3.17-4l1.71-2.12c-1.09-3-1.09-3-4.24-5.67Zm-12.29,77.9-3.27-3c-2.3.36-2.16-1.54-2.57-2.93l-1.64,1.52-1-1.47-.92-1.35-2.59,3.26-1.07-2-.53.37.65,1.71-3.72,1.37c-2.92,2.15-3.78,6.94-2.58,9.85a5.48,5.48,0,0,0,1.72,2.48,47.36,47.36,0,0,0,5.58,3c.34.16.86-.07,2.24-.22-3.43-2.6-3-5.78-3.13-8.89s1.31-5.72,3.19-8a9,9,0,0,1,4,6.8,12,12,0,0,1-3,10.35c3.82.16,6.2-1.79,8.25-4.16C399.48,1174.74,398.4,1171.78,397.57,1168.73Zm-.5-316.47a46.19,46.19,0,0,1-2.22-15.4c.09-2,.48-4.22-.12-6.06s-.38-3.43-.6-5.14-.58-3.6-.94-5.79l-3.3-3.32c-4.08-.58-7.24-.2-9.13,2.86a16,16,0,0,0-.95,3.78c0,4-1,7.89-.85,11.92a94.64,94.64,0,0,1-.65,10.48c0,.32-.25.62-.31.94-.43,2.08-.84,4.17-1.15,5.71l5.56,5.55,1.12-.87-5.21-5.21c.21-.51.48-1.12.71-1.74,1.45-3.88,1.36-8,2.07-12.05a31.74,31.74,0,0,0,0-8.6c-.28-2.87,1.31-5.48.75-8.22,3.42-4.23,7.12-4.92,10.08.84.22,2.6-.07,5.11.62,7.7.6,2.23.1,4.76.14,7.15,0,1.77-.34,3.74.31,5.25.77,1.77,0,3.59,1,5.36.86,1.46.71,3.52,1,5.25l-3.61,3.48v1.79Zm-2.27-46.43-6.27.62V789.72h4.73v-3.63h-5v-4.82h-2.79v5h-4.92v3.63h4.83v15.72h-5.8l-1.44,1.17,1.14,2.32h15.37c.36-.83.66-1.54.95-2.2Zm40.27,50a59.33,59.33,0,0,0,4.35-5.67c1.32-2.21,2.48-4.58,2.21-7.33,1.9-2.8-.17-5.54-.23-8.31a7.44,7.44,0,0,0-1.47-3.66,23.6,23.6,0,0,0-8.43-8.06c-1.37-.72-2.42-1.84-4.1-2.26-3-.75-5.95-1.83-9.16-2.21a36,36,0,0,0-13.31.46,43.27,43.27,0,0,0-9.39,3.65c.09.59.18,1.21.29,2a11.86,11.86,0,0,0,1.18-.58,25.22,25.22,0,0,1,11.3-3.84c6.11-.6,12.29-.32,18.13,2a23.77,23.77,0,0,1,11.65,9.37c1.33,2.11,1.45,4.47,2,6.7.4,1.68.67,3.74-.6,5.42-.24,4.29-3,7.25-5.55,10.25a6.37,6.37,0,0,1-1.58,1l3.37,5.64c.64-.53,1.12-.94,1.6-1.35Zm-94-.64c-1.47-2.15-3.37-3.35-4.58-5.33a19.16,19.16,0,0,1-2.83-11.41,16.25,16.25,0,0,1,4-9.82c4.47-5.24,10.77-7.17,17.2-8.71,4,.41,7.9-.28,11.94.55a44.76,44.76,0,0,1,10.1,3.45c.16.07.33.11.6.2V822c-1.32-.52-2.75-1.13-4.2-1.67a34.84,34.84,0,0,0-12.94-2.54c-1.95,0-4-.58-5.81.7-3.5-.08-6.5,1.52-9.63,2.76s-5.63,3.47-8,5.85a18.51,18.51,0,0,0-4.44,18.56,21.58,21.58,0,0,0,6.14,9.73l-1.95,3.82,1.13,1.12C338.92,858.65,340,857,341.09,855.23ZM485.58,867.1a22.32,22.32,0,0,0,4.22-7.17,20.79,20.79,0,0,0,.73-4.37,17.23,17.23,0,0,0,0-4.65,22.23,22.23,0,0,0-1.32-4.83c-2.39-5.41-6.61-8.92-11.58-11.74-2.43-1.38-5.2-1.91-7.76-3s-5.56-.83-8.11-2.08c-4.54.28-9.17-.76-13.65,1l.19,1.18h12.23a6.11,6.11,0,0,1,2.14,0c3.23,1.29,6.73,1.46,10,2.75,4.71,1.84,10.39,5.39,13,9.22a20.55,20.55,0,0,1,2.5,4.69,28.88,28.88,0,0,1,1,5.34c.1.69.26,1.69-.1,2.07-1.12,1.15-.24,2.52-.84,4l-4.59,7.71,4.08,7,1.78-.72Zm-195.21-.22a18.47,18.47,0,0,1-5-17.46c1.2-4.54,3.49-8.25,7.06-10.64,6.81-4.57,13.76-7.42,22.8-7.32,3.21,0,6.43,0,9.52,0l1-1.07-1-1.09c-3.65,0-7.24,0-10.84,0a27.6,27.6,0,0,0-6.47.92,48.26,48.26,0,0,0-11.22,4.07c-3.94,2-6.91,5.12-9.84,8.25a13.67,13.67,0,0,0-2.27,4.06,17,17,0,0,0-.76,3.28c-.25,1.21-.46,2.43-.73,3.64s.6,2.22.68,3.3c.28,3.8,2.12,6.82,4.37,9.71.44,2.89-2.73,4.35-2.84,7l.95,1C287.26,872.05,288.75,869.56,290.37,866.88Zm49.71,173.06c0-3.79.67-7.59-.53-10.54-1.29-1.36-2.1-2.21-2.93-3.1-2.83-.22-5.51,0-6.51,3.74,0,1.38,0,3,0,4.72a30.81,30.81,0,0,0,.15,5.18Zm50.8-176.89c-1.29-2.88-1-6.58-3.81-8.58-3,2.56-3,6-3.2,9.88l-1.63-2.63-2.51-1c1.47,3.64,2,7.19,4,10.1l2.61-1.37,4.75.85c1-3,2.08-6.1,3.21-9.42C392.38,861,391.92,862.44,390.88,863.05Zm1,14.88c3,1.79,5.81,3.5,9.46,3.05l-1.38-2.71h2.86l5.31-2.84c-2.5-2.29-5.07-3.47-8.28-3a8.63,8.63,0,0,0,.78-1.43,7.32,7.32,0,0,0,0-1.06c.06-.35.94-.41.3-1.13-3,1.33-6.72.92-8.88,4C393.37,874.47,392.68,876.06,391.85,877.93ZM373,881c3,0,5.6-.5,7.85-2.16a10.87,10.87,0,0,0,1.23-1.22c-.23-1-.42-1.89-.69-3.1.42-.83.42-.83.2-2.91l-8.43-2.8c.14.9.18,1.47.32,2a13.22,13.22,0,0,0,.61,1.46c-3.05.23-5.82.31-7.49,3.16,2.08,2.24,4.87,2.34,7.54,3.07ZM321.8,999a9.77,9.77,0,0,1-.72.72,6.51,6.51,0,0,0-2.51,5.81c.17,1.77,0,3.57,0,5.29l1.08,1.08h7.2l1.09-1.1c-.14-3.06.46-6.24-1-9.64A5.69,5.69,0,0,0,321.8,999Zm227.92,9.9c-1.1,4.76-2.11,9.18-3.1,13.49l3.64,1.11c-.13-2.27.77-4,1.4-6a11.14,11.14,0,0,1,2.19,5l1.87,2.42,2.72-.35-3-6.8,3.61-1.32c.41-.81.87-1.69,1.31-2.56-1-1-1-2.4-2.66-2.95A42,42,0,0,0,549.72,1008.9ZM348.41,999c-3.86,0-4.08.13-6,3v9.17c1.54,0,3,0,4.38,0s2.77,0,4.14-.08v-9.63Zm-46.6-107.12c1.2,0,2.52.08,3.82,0s2.52.41,3.93-.47l-1.73-2.17c1-.66,1.86-1.16,2.63-1.81s1.6-1.57,2.41-2.38c-2.29-1.73-4.88-.66-7.1-1.21l-.31-1.94c-3.2,1.73-6.8,2.73-7.65,6.4ZM461,885a26.89,26.89,0,0,0,2.74,2.5,34.2,34.2,0,0,0,3.77,1.93l-2.34,2.33h7.43l3.77-3.74c-1.35-2.87-4-4.63-6.86-6.06-.11-.06-.33.1-.63.2v1.7C466.25,884.21,463.59,883.33,461,885Zm-179-3.48c6.69,1.44,6.63.74,11.16,6.74l3.17-1.06c0-1.42,0-2.84,0-4.27.05-2.33-1.19-3.78-3.3-5.05-.21,1-.36,1.73-.49,2.38l-3.71-2.74H285l-3.06,2.3Zm157.54-11.14c-.18-3.08.48-6.14-1.41-9-2.63,1.92-3.5,4.64-4,7.94L431,865.78c.21,1.9.31,3.35.56,4.78s.64,2.75,1,4.36c2.55-2.22,4.4.11,6.76.43l3.62-7.07-.45-.38ZM489,877.93l.45-.46h-3.63l-3.79,2.82-1.21-2.11-2.3,2.4-.79,3.41.84,3.32,3,1a11.88,11.88,0,0,1,4.69-5c2-1.18,4.38-1.2,6.61-1.83Zm-145.75-2c2.22,1.75.62,4,1.34,5.6a14.45,14.45,0,0,0,8.73.62l-2.72-1.44c2.69-1.39,5.44-1.84,6.68-4.44a16,16,0,0,0-7.17-1.75v-2.42Zm-9,1.7c-1.43-.32-2.62-.62-3.83-.83s-2.58-.38-4.35-.64l1.8,2.6-3.35,1.13.4.35-3,3,4.66,1.4,2.2-.93-.62,3.18c4.67-1.7,4.67-1.7,6.84-4C333.77,881.26,334.84,879.39,334.3,877.6Zm118.59,5.5c-1.71-2.91-4.22-3.32-5.89-4.34l.43-2.7-7,1.36c-.33,2.22-.62,4.14-.93,6.23l6.23,3.55.34-3.25C448.76,885.8,450.35,883,452.89,883.1ZM214.53,1026.63q-1.18-3.08-2.2-5.74c1.85-1.27,4.24-1.64,5.52-3.65v-3.48l-1.68-1.79c-3.5-.59-6.06,1.75-9.08,2.49-.36.08-.6.61-.78.79,1.7,4.35,3.28,8.42,4.86,12.47ZM424.38,874.5a13.32,13.32,0,0,0-7.4,2.08l6.13,4.36-.92,1.46h5.33l1.63-.83c.34-2.07.65-4,1-5.83-1.6-2.21-4-2.63-6.87-3.43C423.76,873.33,424,873.81,424.38,874.5Zm138.27,151.71.65.3,2.51-2.53,4.73,2.7v5.23L574,1033v-4.29c0-1.32-.44-2.86.09-3.9,1.2-2.32.25-4.61.67-6.77l-1.35-1.22-4.41,3q-4.18,2.91-8.36,5.83c-.11.07-.1.32-.16.57Zm-319-5.69c2.41-4.46,3.77-9.45,6.07-14.42-1.5.07-2.05.53-2.4,1.56-.88,2.61-1.88,5.19-2.86,7.77a10,10,0,0,1-.88,1.34l-5.33-9.91L235,1007a8,8,0,0,0,.41,1.92c2,3.72,4,7.41,6.07,11.11a2.29,2.29,0,0,0,.5.48Zm269.46-2.89-6.23-9.23h-3.32v1.37l8,11.53,1.79-.11c.8-2.52,1.54-5,2.35-7.37s1-4.79,2.13-7c.06-.12-.17-.39-.28-.64a3.65,3.65,0,0,1-.75.64,3.09,3.09,0,0,1-.9.17C515,1010.4,514.17,1013.7,513.14,1017.63Zm-258.54-8.24a6.28,6.28,0,0,0,.81,4.37l5.63,3.37v1l-1.76,2.43c-2.52.09-4.31-.53-5.28-3.56v3.34c2.19,1.46,4.54.79,6.72,1l3.13-2.39v-3.39l-6.32-4.58v-2.5h4.37l1,1.64,1.21-2.07a12.86,12.86,0,0,0-7-1.06Zm281.93,11.74h3.59c.33-4,.65-8,1-12h3.84l-.49-.61,1.6-.47c-4.57-.23-8.76-2-13.13-.83l.34,1.19h4.07c0,2.25.53,4.57-.14,6.46C536.42,1017,536.9,1019,536.53,1021.13ZM523,1006.28v14.09h8.58l-.21-1.38h-5v-11.88C525.05,1006.2,525.06,1006.16,523,1006.28Zm-294.75,15.11c-1-4.36-1.87-8.38-2.75-12.36a3.18,3.18,0,0,0-.9,0c-.83.3-1.65.65-2.56,1l3.05,13.29,8.48-1.67V1020Zm211.28,88.86-3.58,2.31v3.33l2.31,2.3h3.09l2.38-2.38C443.68,1112.24,443.47,1111.94,439.56,1110.25ZM281,850.25c-2,7-2,7-1.28,10.38,1.8,8.09,1.8,8.09,3.89,9.85l2.05-3.11C281.27,862.43,280.66,856.52,281,850.25Zm209.24,20.93c4.14-6.5,5-13.16,2.74-21-.71,3.66.07,6.67-.93,9.64a43.89,43.89,0,0,1-3.72,7.52ZM439,879.66l-2.5-3.61h-3.3L431,879c.3,1,.54,1.85.81,2.75a5.56,5.56,0,0,0,4.64,1.42Zm-55.24-65.45c2,0,3.84.08,5.62,0a4,4,0,0,0,3.89-3.43H380.44C380.55,813,382.62,813.07,383.74,814.21Zm6,58.3-3.92-1-2.7,3.84,2.54,3.57h2.22l2.86-2.66C390.43,875.1,390.11,873.91,389.74,872.51Zm-51.13,10.72h1.94l2.41-2.45V878.3l-2.46-1.47h-3.13c-.34,1.3-.67,2.58-.91,3.52C337.26,881.41,337.79,882.13,338.61,883.23Zm45.47-35.48,2.28,1.89,1-.88.56.47,1.79-1.41v-3.4l-2.73-1.55-2.86,1.73Zm18.82,281.39v4.79h3.36v-4.79Zm73.78-234.25,2.94-1c.37-1,.7-1.93,1.06-2.91l-1.5-1.33c-2.11.82-3.59,1.86-3.68,4.1Zm-53.37,203.53,3-1.61c-2-1.29-2.43-3.54-4.28-4.51l-1.89,1.89Zm1.66-26.67h-4.2c.43,1.15-1.59,1.92-.43,3.35H425ZM293.39,891.52l2.46,3.21h2l1.21-.82a5.69,5.69,0,0,0-4-4ZM459.5,1075.11v-2.64H454v2.64ZM384.79,839l1,1c1.17.08,2.39.4,3.18-.9a2.81,2.81,0,0,0-1.33-3.52l-2.87.9Zm53.36,300.92v5.71l2.65-.13v-5.58Zm18.06-4.32,2-1.84-3.19-3.2c-1.59.16-1.59.16-2.45,1.39Zm3.34-22.23h-5.71c.05,1,.1,1.89.14,2.65h5.57Zm-76.11-309.3c-.28-1.85.26-3.49-.56-5.45-1.84,1.7-3.55,3-3.82,5.45Zm43.15,327.69-1.86-2-3.15,3.15v1.63l1.49.7ZM395.07,804c-.89-2.28-2-4-4.36-5.09V804Zm28.85,360.79,1.78-3L421,1159.4l-1.12,2.4Zm34-5.5-4.08,2.61c-.1,1.28.19,2.18,1.49,2.43l3.74-1.9ZM453,1096.36l2.35,2,3-3.86-2.42-1.71Zm-11.39-23.44c-1-1.8-2.23-1.29-3.32-1.26l-.94,2,2.12,2.46,2.14-1.13Zm32-1.28c-1,1.46-1.32,2.85-.36,3.81l1.35.47L477,1074l-1.1-2.4ZM427.82,898a13.34,13.34,0,0,0,7.61,1c-1.51-1.34-2.48-2.72-3.83-3.56Zm-22.71,214.6h-2c-.37.68-.73,1.36-1.08,2-.05.1,0,.24,0-.23l1.81,2.67,2.51-1.29C406.31,1114.66,406.71,1113.5,405.11,1112.55ZM437,1166.22l2.4,2.72,2.13-1.12v-2.92l-1.52-.52Zm36.29-74.52c.19,1.68-.17,3.36.19,4.91h2.81c-.22-1.73.13-3.34-.25-4.91ZM420.11,1116h5c-.06-1-.11-1.89-.16-2.63h-4.84Zm20.68-24.38v-5l-2.64.15v4.85Zm35.31,37.56h-2.63V1134h2.63Zm-2-12.68,3.09-1.65-1.16-2.23h-2.81l-.94,2.26Zm-83.4-221.13-3.43-3.53a18.78,18.78,0,0,1-4.22,3.53Zm-43.88,2.78-4.7-2.74-3,3.9Zm61.06,253h3.48v-2.35l-1.06-1h-2.42Zm60.57-3.32c-1.22,1.83-1.22,1.83.05,3.36h2.34l.82-1.64-.87-1.72ZM361.77,881.73c1.11,2.1,1.11,2.1,2.47,3,.39-.77.79-1.53,1.2-2.33-.57-.87-1.08-1.73-1.69-2.52-.16-.2-.61-.18-.91-.25Zm48.6-2.64c-.51,1.76-1.51,2.82-1.07,4.12.22.64.94,1.11,1.46,1.7l1.31-1.25v-3ZM456.22,888c-1.85,1.77-2.61,2.85-2.31,3.81.21.64.91,1.12,1.73,2,.71-1.61,1.21-2.77,1.66-3.78C457,889.4,456.65,888.82,456.22,888Zm-74-35c.57-.87,1.13-1.75,1.63-2.52l-2.39-3.33-1,4.12Zm7.78-2.48,1.65,2.45,1.8-1.79c-1.73-.67.35-3.36-2-3.7C391,848.46,390.55,849.45,390,850.52Zm66,65.12-2-1.36h-3.56l2.82,2.91ZM320.54,917c2.17-.88,2.17-.88,3.62-2.76h-3.87l.31.36-2.07,1.35ZM320,890.4l-1.6-2.08c-1.74.89-1.13,2.21-1.14,3.75l2.74.6Zm86.23,206.23v-3.76c-1.72.93-3,1.84-3.53,3.76ZM361.77,896.48l.16.45,5.55-1-2.5-1.72ZM331,825.68c1.5.23,2.4-.21,2.71-1.52l-1-1.54C331,823.3,330.57,824.2,331,825.68ZM487.59,836.5c.69,1.33,1.56,1.82,2.83,1.23.39-1.31,0-2.21-1.76-2.89C488.4,835.23,488.05,835.79,487.59,836.5ZM331.71,856.07c-.52,1.44.09,2.29,1.53,2.84l1.31-1.39C333.94,856,333.06,855.61,331.71,856.07Zm107.88,0c-.38,1.55.14,2.39,1.51,2.77l1.46-1C441.91,856,441,855.67,439.59,856.06ZM406.8,896.17c1.18,0,2.16-.3,2.72.06.86.54,1.55.9,2.3.53l-2.36-2.45ZM290,830.11l-1.79,2.27,1.8,1.5,1.63-1.78Zm-15.28,39.23,2.4,1.89,1.51-1.79-1-.94Zm210-35.78v-2.75h-1.92v2.75ZM356.86,811.4v2.75h1.91V811.4Zm90.25,19.4-2-1.86L443.57,831l1.81,1.41Zm-58.72-1.3h-2.75v2l2.75-.15ZM272.52,862.87l2.4,1.89,1.5-1.79c-.66-.61-1.15-1.05-1-1ZM441.78,826c.57-.77,1-1.36,1.52-2l-1.87-1.38-1.57,1.86Zm-114.42,9.84-1.79,2.28,1.8,1.5,1.63-1.79Zm119.34.1L445,838.08l1.66,1.47-.32-.68,2.72-.73ZM383,839.44c.78,1.86-1.94,3.2-.74,5,1.07-.72,1.13-2.32,2.42-2.52Zm8.17,4.38V839.1c-.9,1-1.56,1.72-2.29,2.54C389.67,842.41,390.31,843,391.14,843.82Zm56.26-18.44c1.26,1,2.06.14,2.79-.68l-1.12-2A2.17,2.17,0,0,0,447.4,825.38Zm-19-8.86,2,1.52,1.38-1.87-1.87-1.56Zm-78.71-3.68v2.75h1.92v-2.75Zm-51.48,15.8-2-1.86-1.57,2.06,1.81,1.41Zm21.59-4.31-2-1.86-1.57,2.06,1.82,1.41Zm46.14-10.27a1.85,1.85,0,0,0-.93-2.61l-1.87,1.18C363.7,814.09,364.58,814.51,365.91,814.06Zm82.51,29.88c-2-.51-2.94,0-3.27,1.5l2.23,1.12Zm-170.07,5L276,847.05l-1.51,1.8c.66.6,1.15,1,1.05,1Zm63.46-32.61,2.12,1.73,1.52-1.71-1.6-2.2Zm74.07-1.81,1.52-2-1.87-1.39c-.57.68-1,1.19-1.57,1.87Zm60.47,12.63v2.75h2c-.06-1-.11-1.88-.16-2.75Zm-39.27-5.81c.21-2.71.21-2.71-1.8-2.68v2.68Zm-112.13,5,1.8-2.27-1.8-1.5-1.64,1.78Zm99.86-12.09-2-1.86-1.57,2.06,1.82,1.41Zm-87.37,3.63-1.8,2.27,1.8,1.5,1.63-1.78Zm65.88-3.64-2.13-1.73-1.52,1.71,1.6,2.2Zm-73,36.25-.63-.59-2.42,1,2.31,1.9Zm168.92-2.09c-.78-1.06-1.63-1.52-2.78-.89a1.85,1.85,0,0,0,.86,2.46ZM326.91,830.8l1.86,1.76,1.57-2.07-2.16-1.07Zm116.06,20,1.86,2.26,1-1V850Zm49.9-10.28c-.3,1.69-.16,2.61.62,2.88l2.5-1.77Zm1.66,36.39.59-.63-1-2.42c-.69.84-1.23,1.51-1.9,2.31Zm-214.11-3.15L278.59,876a1.79,1.79,0,0,0,2.81.3Zm174.39-50.86c-.15,2.22-.16,2.23,1.8,2.67v-2.67Zm14.1,2.5a1.94,1.94,0,0,0,2.43,1.73c.18,0,.34-.26.38-.29V825c-.83,0-1.52,0-2.21,0C469.32,825,469.15,825.25,468.91,825.41Zm-6.06-2.57-1,1v1.7c1.3.62,2.07,0,2.76-.91ZM309,823.66c.69,1.82,1.54,2.41,3.17,1.84,0-.66-.09-1.3-.13-1.84Zm-7.16,3c1.48,1,2.36.47,2.92-.5l-1.8-2.22Zm194.85,41.45-1,1v1.7c1.3.63,2.07,0,2.75-.91Zm-222.73-10.8,2.24-1.72c-.83-1.07-1.67-1.57-3.07-.72ZM501.19,856l-2.2-1.74c-.57.68-1,1.19-1.45,1.74l1.2,1.26Zm-3.37,5.74c-.22,1.76.25,2.69,2,2.85v-2.85ZM409.2,811.14c-1.34,1-1.74,1.84-1.08,3.09l2.19-.16C409.89,813,409.59,812.18,409.2,811.14ZM285.87,837.93l-1.24-3.07-1.3,1.3c.05.55.12,1.17.18,1.77Zm-6.11,2.34-1.85,2.52h3.67ZM326,843.76c-.07,1.77.35,2.82,1,2.65.84-.73,1.37-1.54.65-2.65Zm119.12,4-2-2.94a9.82,9.82,0,0,1-.12,2,16.29,16.29,0,0,1-1.06,2.27ZM281.6,873.16l.5-.44-1.85-3.17a2.67,2.67,0,0,0-.52,1.51,8,8,0,0,1-.66,1.38,7.69,7.69,0,0,1,1.72,0C281.1,872.55,281.34,872.92,281.6,873.16Zm99.08-56.11c-1-1.35-1.82-1.73-3.09-1.11,0,.58.06,1.21.12,2.18Zm-46.55,37.47c.13-.33.24-.64.22-.59l-1.73-2.31c-1,.82-1.52,1.64-.78,2.78l1.33-.79Zm62.09-37.88c-1.64-1.23-2.33-1.35-2.93-.24l1.75,1.7Zm-71.64,85.64-2.77-1.17-1,2.31Zm60.33-50.54c.25,1-1.55,1.59-.69,2.52l3-2.52ZM444,840.1V843l2.4-1.59Zm8.74,60.95-2.46,1.22c1.08.41,2,.76,2.9,1.07.15,0,.39-.14.59-.22ZM329.2,847.91a8.88,8.88,0,0,0,1.29.78c.24.12.62-.06,1-.11L330,845.69Zm1-5.36c-.33-.77-.69-1.63-1.09-2.58l-1.34,1.66c.8.53,1.41.94,2,1.32C329.79,843,329.92,842.8,330.17,842.55Zm113.56-9.11-.7.35c.1.68.19,1.35.35,2.45l1.94-1.54ZM410.83,933c1.12.5,2.27.82,3.35,0ZM387.39,824.22l-.69-1.49-.34.25v1.24ZM330,834.47l-.62,0,.27,1.21.35,0ZM490.07,876h.24v-.72h-.24Zm-206.24-.72h-.24V876h.24Zm82.5,58.23h.24v-.72h-.24Zm29.26-113.11v-.24h-.72v.24Z" transform="translate(-92.69 -706.38)"/><path d="M220.16,1173.65c3.71,2,7.31,3.53,11.37,3.59a17.51,17.51,0,0,0,7.14-1.83,16.7,16.7,0,0,1,8.27-1.76c.24,0,.48,0,.72,0,5.34,0,5.35,0,10.22,2.24a12.74,12.74,0,0,0,6.66,1.31v6.53l-2.26-.73h-3.55a24.74,24.74,0,0,0-11.29-3.59,49.05,49.05,0,0,0-7.19,1.74A13.69,13.69,0,0,1,232,1183a3.47,3.47,0,0,0-.72,0c-3.68.51-7-.69-10.24-2.2-2.64-1.23-5.64-1.19-8.52-.85a16.47,16.47,0,0,0-6.64,2.28,8.38,8.38,0,0,1-3.27.74,30.48,30.48,0,0,1-3.33,0v4.93c.58-.23,1.08-.63,1.55-.58a9.84,9.84,0,0,0,5.54-1.45,11.34,11.34,0,0,1,5.14-1.5c1.34,0,2.58-1,4-.68,2.82.72,5.85.81,8.43,2.22a18.31,18.31,0,0,0,7.78,2,15.68,15.68,0,0,0,8.3-2.36,8.72,8.72,0,0,1,4.23-1.15c1,0,2-.79,2.92-.61,2.75.55,5.64.31,8.24,1.81a10.9,10.9,0,0,0,6.11,1.75c.4,0,.82.29,1.34.5l1.6-.88c.27,2.39.08,4.48.15,6.61-3.4.88-6.41-.4-9.3-1.6-5.34-2.22-5.85-2-12.29-1.18-2.61.32-4.4,2.13-6.94,2.48a42.63,42.63,0,0,1-9,.16c-3.06-.44-5.49-2.46-8.53-2.91a19.91,19.91,0,0,0-7.26,0,25,25,0,0,0-5.9,2.25,11.07,11.07,0,0,1-6.89.87v-27.05a24.7,24.7,0,0,0,3.93-.31,26.23,26.23,0,0,0,3.82-1.53v-13.4a9.67,9.67,0,0,0,2.17,0c2.92-.7,4.25-3.32,3.35-6.36-.25-.85-.41-1.74-.59-2.55l2.17-1.13h36.47l1.06,1.11c-.19,1.13.4,2.37-.64,3.58-.8,1,.31,2.11.75,2.82a5,5,0,0,0,4.77,2.55v13.13a23.66,23.66,0,0,0,7.88,2.14l.84.84v5.19c-1.58,1-2.85-.6-4.3-.44a8.26,8.26,0,0,1-4.22-1.11c-2.31-1-4.57-2-7.18-1.8-.38,0-.79-.39-1.2-.61-1.31,1.51-3.15.07-4.65.7l-6.3,2.7a37.37,37.37,0,0,1-5.54.77,38.45,38.45,0,0,1-5.75-.81c-2.72-1.38-5.33-3-8.59-2.76a4,4,0,0,1-1.63-.59c-3.77.86-7.59,1-10.34,3.26l-5.53,1v4.32a25.45,25.45,0,0,0,8.26-2.47,8.49,8.49,0,0,1,4.56-1.19C214.91,1173.69,217.67,1173.65,220.16,1173.65Zm34.35-20h-46c0,1.77,0,3.43,0,5.08a26.34,26.34,0,0,0,.15,4.87,5.18,5.18,0,0,0,1.28,0,18.89,18.89,0,0,1,9.55-.17,22.58,22.58,0,0,0,5,.87c4.67.11,9.34,0,14,0a7.09,7.09,0,0,0,3-.63c3.09-1.33,6.46-.71,9.72-.8.94,1,2.06.82,3.27.52Zm-6-7.18H214.59c-.39,1-.65,1.85-1,2.64s-.87,1.4-1.35,2.17c14.08.46,35.06.29,37.7-.23C249.44,1149.59,249,1148.11,248.46,1146.46Zm-20.4,19.41,0,.59c2.23,0,4.46,0,6.7,0,.08,0,.16-.3.29-.57Z" transform="translate(-92.69 -706.38)"/><path d="M510.78,1194v-27.64c2.79.47,5.22-.45,7.75-1.6v-13.26h2.4l3.39-3.59c.82-1.89-1.52-3.76-.36-5.85a4,4,0,0,1,.76-.78h37.39a2.33,2.33,0,0,1,.87,3.34c-.82,1.19-.2,2.31-.53,3.44l3.48,3.29h2.16v13a11.72,11.72,0,0,0,8,2v27.18c-2.85.71-5.63-.26-8.15-1.36-5.2-2.26-6.84-2.36-12.53-1.47-2.69.43-4.63,2.32-7.23,2.62-.19,0-.38.38-.55.36-3.26-.29-6.6.74-9.78-.69-.81-.36-1.7-.54-2.49-.93-4.39-2.19-7.12-2.31-12.22-1.33a17.12,17.12,0,0,0-4.42,1.53,5.67,5.67,0,0,1-1.5.7C515.16,1193.4,513.11,1193.68,510.78,1194Zm56-40.4h-46.7v5.09c0,1.63,0,3.25,0,4.87a11.35,11.35,0,0,0,2.15,0c4.66-1,5-1,10.19,0a25.3,25.3,0,0,0,4.37.69c4.43.1,8.86,0,13.29,0a5.59,5.59,0,0,0,2.1-.13,17.67,17.67,0,0,1,8.09-1.3c1.48.07,3-.27,4.4.67.48.31,1.35,0,2.1,0Zm-12.45,20h10.59c3.2,2.17,6.75,2.93,10.39,3.65V1173l-5.53-1c-2.84-2.29-6.76-2.43-10.5-3.26-1.29,1.68-3.72-.4-5.08,1.36-2-.1-3.26,1.37-4.68,1.85-1.8.37-3.33.8-4.9,1-2,.26-5.36-.52-9.17-2.09-1.85-.77-3.69-1.7-5.85-1.53a8.28,8.28,0,0,1-2.52-.6c-.53.22-1,.64-1.55.62a12.71,12.71,0,0,0-7.37,2.17,3.36,3.36,0,0,1-1.84.69c-1.82-.25-3.23.89-4.72,1v4.33c3.75-1,7.35-1.7,10.38-3.76h10.68C540,1178.26,547.11,1178.21,554.3,1173.65Zm21.08,9.3c-2.3.13-4.27.2-6.13-.67a14.94,14.94,0,0,1-3-1.47c-1.34-1.07-3-.19-4.29-.92a4.45,4.45,0,0,0-4-.34c-1.31.69-2.56.21-3.7.62s-2.26,1.55-3.51,1.92c-1.5.44-3,1.12-4.66.94a22.68,22.68,0,0,0-4.66,0,10.62,10.62,0,0,1-6.52-1.58,16.34,16.34,0,0,0-7.08-1.92,13.55,13.55,0,0,0-7.84,1.72c-.77.43-1.67.61-2.43,1-1.91,1.08-4.07.5-6,.8v4.78a7.11,7.11,0,0,1,1.87-.53,10.26,10.26,0,0,0,5.14-1.47c2.52-1.39,5.41-1.38,8.09-2.12,1.38-.38,2.68.49,4,.62a14,14,0,0,1,4.83,1.39,19.94,19.94,0,0,0,10.25,1.61,15.16,15.16,0,0,0,5.49-1.53,24.61,24.61,0,0,1,8.82-2.07c1.07-.08,2.18.57,3.29.63a14,14,0,0,1,4.49,1.31c2,.8,3.89,1.85,6.16,1.64.43,0,.89.37,1.44.62Zm-50.7-31.71h37.69c-2.19-1-.44-3.76-2.35-4.84H526.19C525.67,1148.06,525.18,1149.62,524.68,1151.24Zm15.62,14.63,0,.59c2,0,4,0,6,0,.08,0,.16-.3.29-.57Z" transform="translate(-92.69 -706.38)"/><path d="M260.74,1045.75c1.49,2.66,1.08,5.74,1.61,8.61s1.54,5.91.63,9.25a18.25,18.25,0,0,1-5.3,5.37c-1.89,1.22-3.55,2.82-5.49,4.1a155.91,155.91,0,0,1-17.78,10c-5.19,2.51-10.65,4.34-15.94,6.58-3.15,1.33-6.47,2.22-9.5,4-4.34,2.54-8.64,5.06-12.44,8.89l-.25-1.42c-1.11-3.77-1.57-8-2.8-12.19-.42-1.44-.06-3.09-.06-4.61a19.44,19.44,0,0,1,6.93-5.65,43.09,43.09,0,0,1,7.51-3.57c2.1-.63,4-2,6-2.74a218.34,218.34,0,0,0,20.68-9.06c2.1-1,4.06-2.29,6.18-3.26a65,65,0,0,0,5.86-3.18c2-1.21,4-2.47,6-3.81s3.82-2.91,5.78-4.27C259.49,1048,259.44,1046.36,260.74,1045.75Z" transform="translate(-92.69 -706.38)"/><path d="M513.55,1044.86c.77.92,1.51,1.86,2.32,2.75,2.86,3.21,6.67,5.13,10.19,7.45,5.41,3.57,11.31,6.2,17.13,9a166.26,166.26,0,0,0,18.4,7.6c4.62,1.55,8.86,4,13.28,6.08,2.12,1,3.65,2.62,5.63,3.71.75.41,1,1.65,1.37,2.18l-3.12,16.79a38.18,38.18,0,0,0-12-8.3,122.28,122.28,0,0,0-12.07-4.66c-3-1-5.94-2.47-9-3.48-5.08-1.69-9.71-4.35-14.45-6.71a86.91,86.91,0,0,1-13.13-8.12,25.16,25.16,0,0,1-6.79-6.85,105.25,105.25,0,0,1,.92-11.1A38.43,38.43,0,0,1,513.55,1044.86Z" transform="translate(-92.69 -706.38)"/><path d="M982.54,933.62h7.21v51.52h-6.93c-1-1.17-2.12-2.6-3.27-4s-3-2.33-3.6-4.26c-.12-.41-.65-.68-1-1-2.88-3.12-5.89-6.13-8.61-9.38-3.54-4.23-7.13-8.39-10.94-12.37-2.3-2.39-4.31-5.05-6.47-7.58-.05-.06-.23,0-.35,0a1.21,1.21,0,0,0-.28.18c-.08.07-.18.18-.18.27,0,12.69,0,25.38,0,38.22H941V934.45c1.79-1.76,4.06-.49,6.07-1,3.08,3.35,6.25,6.54,9.11,10,3.3,3.95,6.82,7.71,10.11,11.65,2.22,2.66,4.71,5.08,6.8,7.89,2.71,3.62,6.1,6.74,9.44,10.35Z" transform="translate(-92.69 -706.38)"/><path d="M728.69,958.93a21.61,21.61,0,0,1,2.51-11.69,25.67,25.67,0,0,1,9.7-10.1,25.27,25.27,0,0,1,11.07-3.7c1.81-.17,3.63-.88,5.46-.58,4.64.76,9.42,1,13.61,3.56a54,54,0,0,1,5,3.67c2.68,2,4.37,4.73,6,7.54a21.33,21.33,0,0,1,2.19,6.3,23.51,23.51,0,0,1,.57,6.91,27.16,27.16,0,0,1-5.16,14.4c-3.92,5.44-9.48,7.8-15.28,10-2,.76-10.22,1.51-11.83.68-2-1-4.1,0-6-1.26-1.55-1-3.47-1.43-5.17-2.24a15.71,15.71,0,0,1-3.83-2.94,18.7,18.7,0,0,1-3.36-3.2,41.84,41.84,0,0,1-3.3-5.13,17.87,17.87,0,0,1-2.19-9.15C728.74,961.16,728.69,960.32,728.69,958.93ZM750,940.78a40.17,40.17,0,0,1-3.61,2c-4.91,2.08-7.36,6-9.19,10.82-.76,2,.13,4.19-1.3,5.94a1,1,0,0,0,.08,1c.85.62.68,1.49.6,2.27-.18,1.69.72,3.06,1.16,4.56.81,2.69,3,4.35,4.82,6.28,5.3,5.61,12.08,5.58,19,5,.82-1.3,2.67.19,3.43-1.27a15.86,15.86,0,0,0,7.68-5.64,17.33,17.33,0,0,0,3.64-7.13,38.47,38.47,0,0,0,.55-6.56c.07-2.49-1.3-5.68-2.63-8.25-1-1.88-2.61-3-3.9-4.48-3.28-3.83-7.86-4.68-12.52-5.36C755.1,939.6,752.57,940.94,750,940.78Z" transform="translate(-92.69 -706.38)"/><path d="M1054.65,959.48c-.35,2.37,0,4.75-.62,7.24a25.54,25.54,0,0,1-4.79,9.15,25.92,25.92,0,0,1-4,4.06,17,17,0,0,1-4.49,3c-2.48,1-4.87,2.22-7.64,2.42-2.29.18-4.55.66-6.88.73a32.69,32.69,0,0,1-12-2.32,23.66,23.66,0,0,1-6.79-4.37,22.8,22.8,0,0,1-7.65-11.88c-1.32-1-.11-2.62-.9-4-.63-1.07-.4-2.75-.31-4.14a14.6,14.6,0,0,1,.51-4.07c.58-1.74.8-3.68,1.39-5.53a23.69,23.69,0,0,1,2.3-4.45c3.57-6.26,9.95-9.51,14.39-11.06a12,12,0,0,1,4.72-.8c1.82.11,3.55-1.17,5.44-.66,3.07.82,6.29.58,9.35,1.7a29.65,29.65,0,0,1,8.28,4.21,25.44,25.44,0,0,1,9.06,13.07C1054.71,954.4,1054.42,956.91,1054.65,959.48Zm-28.21,19.26c4.2.65,7.87-.67,11.44-2.74,2-1.16,3.24-3.06,5-4.47a11.1,11.1,0,0,0,3.13-5.17,9,9,0,0,0,.72-4.37c2-2.83,0-5.55-.4-8.25s-2.2-5.15-4.23-7.21a21.45,21.45,0,0,0-15.28-6.58,29.15,29.15,0,0,0-6.16.88,11.54,11.54,0,0,0-5.42,2.39c-3.76,3.38-7.53,6.75-8.3,12.36-.49,3.57-.63,8,.66,11.14a20.51,20.51,0,0,0,8.67,9.91A14.73,14.73,0,0,0,1026.44,978.74Z" transform="translate(-92.69 -706.38)"/><path d="M991.19,1052v-39.95h7.2v50.71h-7l-4-4.83c-1.42-1.7-3.5-2.83-4.34-5-.08-.21-.33-.34-.49-.52-3-3.2-6-6.32-8.88-9.63-3.43-4-6.93-7.93-10.36-11.91-2-2.33-4.15-4.48-6.19-6.76a3.25,3.25,0,0,0-.26.27.71.71,0,0,0-.1.31q0,18.87,0,37.74c0,.1-.09.2-.19.41h-6.12V1012h6.34c1.86,3.48,5.46,5.76,7.58,9.3a7.47,7.47,0,0,0,1,1c2.88,3.12,5.88,6.14,8.62,9.38,3.39,4,6.88,8,10.38,11.9,2,2.19,3.89,4.38,5.91,6.51A9.44,9.44,0,0,1,991.19,1052Z" transform="translate(-92.69 -706.38)"/><path d="M674.12,1062.94v-51c8.11,0,16.15-.42,24.12.13,7.19.5,13.88,3.14,18.4,9.16,2.47,3.28,4.55,6.86,5,11.25.16,1.67.56,3.38.57,5.1a25.68,25.68,0,0,1-4.62,14.62c-3.3,5-8.13,7.79-13.51,9.81a13.69,13.69,0,0,1-4.63.93C691.07,1063,682.69,1062.94,674.12,1062.94Zm7.15-6.46c3.91,0,7.5,0,11.1,0a32.23,32.23,0,0,0,7.62-.65,18.22,18.22,0,0,0,11.56-8.42,20,20,0,0,0,2.81-11.07,16.49,16.49,0,0,0-3-9.52,23.25,23.25,0,0,0-5.53-5.49,16.88,16.88,0,0,0-8.46-2.83c-5.33-.4-10.7-.12-16.09-.12Z" transform="translate(-92.69 -706.38)"/><path d="M794.29,933.55c5,0,10-.39,14.8.13,3.36.36,6.91.41,10,2.66,3.5,2.51,6,5.34,6,9.78,0,2.17-.33,4.35-.5,6.42l-6,5.54c7.41,3.53,7.41,3.53,10.84,8.9v8.72a35.78,35.78,0,0,1-2.83,4.11,16.57,16.57,0,0,1-12.81,5.48c-6.45.06-12.91,0-19.49,0Zm7.14,45.29c2.6,0,4.87,0,7.14,0a34.33,34.33,0,0,0,6.9-.58,7.93,7.93,0,0,0,5.09-3.24A7.44,7.44,0,0,0,817.84,964a18.33,18.33,0,0,0-6.15-1.52c-3.36-.48-6.84-.13-10.26-.13Zm0-23c2.22,0,4.14,0,6.05,0,4.35,0,7.81-1.43,9.65-5.45v-5.92L813,940.85H801.42Z" transform="translate(-92.69 -706.38)"/><path d="M718.58,937.3v7.63c-3-1.14-5.61-3.2-8.86-3.48-1.07-1.28-2.83-.46-4.13-1.36-.65-.44-1.86-.07-2.82-.07H698.1a15.89,15.89,0,0,0-11,4.61c-1.94,1.81-4.12,3.49-5.15,6.11-3,7.61-3.22,11.78.81,19.42,2.32,4.39,6.59,7.13,11.25,8.55a21.25,21.25,0,0,0,9.72.79c2.84-.49,5.6-1.45,8.36-2.19V966.69h-9.84v-6.46h17.69v21.26c-1.08,1.53-3.14,2-4.89,2.26-2.81.44-5.52,1.31-8.34,1.75a40.77,40.77,0,0,1-8,.46,30.73,30.73,0,0,1-11.14-2.53c-8.29-3.64-11.87-8.58-14.81-16.29.24-3.49-2.17-6.95-.16-10.47-.21-3.53,1.1-6.65,2.72-9.65a25,25,0,0,1,14.62-12.11,20.67,20.67,0,0,1,7-1.41c1.1,0,2.27-.79,3.29-.61,4.22.77,8.6.7,12.65,2.39C714.67,936.05,716.59,936.61,718.58,937.3Z" transform="translate(-92.69 -706.38)"/><path d="M935.29,985.3h-9.1a24.19,24.19,0,0,0-2.06-3.45c-2.49-3-4.09-6.49-6.29-9.61-2.56-3.65-5.11-7.51-10.28-9.22h-5.1a1.79,1.79,0,0,0-.25.23.59.59,0,0,0-.12.31c0,7.17,0,14.34,0,21.62h-7V933.55c4.77,0,9.54,0,14.32,0,1.1,0,2.21.68,3.29.62a8.09,8.09,0,0,1,3.3.79c4.12,1.51,7.48,3.85,8.55,8.41,1.64,7,.7,13.58-7.14,16.93-.09,0-.13.18-.31.48a5.31,5.31,0,0,0,1,1.23c4.8,3.53,7.31,8.84,10.62,13.53,1.42,2,2.7,4.16,4.08,6.21C933.49,982.89,934.31,984,935.29,985.3Zm-18.1-33.92v-6c-.15-.14-.39-.28-.49-.48-1.13-2.45-3-3.57-5.7-4.29s-5.29-.33-7.68-.62l-1.12,1v14.63l.84.83c3.09.67,6-.38,9-.64a4.32,4.32,0,0,0,2.34-1.17A34.85,34.85,0,0,0,917.19,951.38Z" transform="translate(-92.69 -706.38)"/><path d="M943.85,1062.79h-7.73c-2.22-4.79-4.55-9.79-6.92-14.86H907.32l-6.53,14.89h-8a91.49,91.49,0,0,0,5-11.62c.6-1.76,1.72-3.29,2.26-5.17.69-2.42,2.17-4.59,3.18-6.93,2.07-4.77,4.28-9.48,6-14.37.75-2.08,1.93-4,2.84-6,1.08-2.43,2.07-4.89,3.15-7.44h5.25c2,4.27,4,8.57,6,12.91,2.27,5,4.5,10.11,6.85,15.12s4.34,9.94,6.8,14.79C941.57,1056.84,942.59,1059.78,943.85,1062.79Zm-33.66-21.53H925.7c-1-4.12-6.26-15.46-8.16-17.36C915.07,1029.73,912.64,1035.46,910.19,1041.26Z" transform="translate(-92.69 -706.38)"/><path d="M1026.48,1011.2h5a29.42,29.42,0,0,1,2.06,3.75c1.92,5.09,4.48,9.88,6.67,14.84,2.45,5.57,5,11.09,7.53,16.63,2.21,4.83,4.14,9.79,6.62,14.49a7,7,0,0,1,.37,1.86h-7.11c-3.3-4.29-4.21-10.19-7.56-14.85h-21.7l-6.39,14.92h-7.82c1-2.28,1.85-4.39,2.77-6.49q2.77-6.39,5.58-12.77c2.45-5.57,5-11.08,7.31-16.72q2.3-5.7,4.86-11.28C1025.3,1014.18,1025.85,1012.73,1026.48,1011.2Zm10.84,30.06L1029,1023l-7.7,18.22Z" transform="translate(-92.69 -706.38)"/><path d="M885.3,933.67l.87.87v5.2l-1,1H864.09v15.11h20.35l1,1v5.25l-1.06,1.06H864v15.7H886.9v6.37H856.11V934.56l.89-.89Z" transform="translate(-92.69 -706.38)"/><path d="M215.72,927.08h3.89c.83-.54,1.26-1.8,2.59-1.44,1.54.92,1.54.92,3.83.13.58-.21,1.15-.31,1.24.62l-.1-.11-.59.5.23.23a4.74,4.74,0,0,0,.46-.62c.68,0,1.4,0,2.12,0a2.48,2.48,0,0,0,3.6,0l4.31-.72c1.27,1.44,2.58.76,4.14.12l.93,1.32h4.29c.24.48.48,1,.75,1.47,0,0,0-.06-.1-.11l-.59.5.23.23a4,4,0,0,0,.46-.62,3.83,3.83,0,0,1,.69,0l-.95,4.14-.81.29v3.42h8.8v14.42H252c-.69.83.18,2.11-1.08,2.6a16.91,16.91,0,0,0-2.06,1.1v2.65c.38.06.8,0,1,.18a24.56,24.56,0,0,1,1.79,1.74v2.25c-.43.32-.88.68-1.36,1s-1,.59-1.52.93V1001l-1.34.23V964.56h-3.64v37.05c-.33.09-.44.16-.5.13s-.25-.16-.25-.25c0-12,0-24,0-35.88-.87-1.37-2.1-1.31-3.67-1v37.17c-.81-4-.61-8-.65-12s0-8.14,0-12.22V965.54l-1-1H216l-1.06,1v40.46h-1.22V962.56l-2-.39-1-2.08a10.13,10.13,0,0,1,1.56-2.07c1.79-1.48,1.84-1.43,2.11-3.26-1.09-1.42-3.49-1.53-3.76-3.89h-3.28V936.45h9.93c-1.25-1.55,0-3.81-2.21-4.65l.68-.69c-.38-.9-1.79-1.27-1.36-2.6a4,4,0,0,1,1.59.42c.39-.14.24-.41.14-.39a6.5,6.5,0,0,0-1,.31c.43.12.87.25.87.08A1.49,1.49,0,0,1,215.72,927.08Zm2.15,6.61,0,.66,2.12-.28,0-.48a3,3,0,0,0-2.09.68l-.6.23a2.46,2.46,0,0,0,.61.4,15,15,0,0,0,10,1.14c-3.81-.43-6.9-.78-10-1.06C217.88,934.74,217.88,934.51,217.87,933.69Zm7.92-.86h4c1.2,0,2.4-.08,3.58,0s2.45-.31,3.73.59c.8.57,2.34,0,3.51.15a22.73,22.73,0,0,1,3.45,1.08c-1.87.41-3.29.82-4.73,1-1.6.2-3.26-.15-4.86.47,2,.27,4.13.72,5.94.15s4.13.19,5.59-1.74c-2.33-.93-4.47-2-7-1.74a4.12,4.12,0,0,1-1.4-.09,24.45,24.45,0,0,0-11.79.33c-1.66,0-3.33-.51-5,.25C222.48,933.41,224.14,933.75,225.79,932.83Zm-16.43,5.08v11.48c.93-.06,2,.2,2.47-.22.9-.78,1.8-.51,2.69-.51q16.68,0,33.38,0c.7,0,1.65-.21,2.06.16,1.21,1.06,2.47.23,3.75.65V937.91Zm6.43,19.25h30.68v-3.37H215.79Zm-2.88,3.58h36.56v-1.19H212.91Zm.92-8.59h33.81l2.13-1a3.93,3.93,0,0,0-1-.37H213.31c-.16,0-.31.23-.46.34Zm27.65-23,0-.42c-3.58-.32-7.16-.54-10.72-1-1.72-.23-3.09.82-4.73.79s-3.5.17-5.27.27l2.86,1.24c-.14.63-1,.69-.49,1.25H239.3l.34-2Zm-21.53.26c-1.31-.37-2.55-.54-3.34.67l.86,2.56,4.72-.84,0-.27-3.15-.4ZM241,931.35l0,.56,4.15.62.17-1.65,1.42-.5c-1.47-.67-2.72-1.85-4.25-.86l2,1.83Zm-2.9-4.15a4.55,4.55,0,0,0,4.16,0Zm-13.89.47c-1.13-.12-2.34-1.27-3.55,0Zm-6.95.25v.64l1.94-.26,0-.38Zm27.78.47v-.64l-1.93.26,0,.38Z" transform="translate(-92.69 -706.38)"/><path d="M558.9,927.08l1.44,1.18a8.24,8.24,0,0,1-2.16,5.09c0,.2,0,.35,0,.43.2.29.43.55.67.84l-1.63,1.74h10.22v14.3h-3.06c-.78,2.11-2.61,3.14-3.88,4.68.28,2,2.55,2.24,3.43,3.84v2.36l-2.84,1.09v44l-1,.26c-.17-.22-.42-.4-.42-.58,0-13.88,0-27.75,0-41.76h-4.31V978c0,4.68,0,9.35,0,14a86.31,86.31,0,0,1-.64,13.43V964.55h-2.9v39.29l-.51.07a11.13,11.13,0,0,1-.25-1.69q0-17.25,0-34.49c0-1.16.33-2.43-1.17-3.27-6.63,0-13.46,0-20.27,0a9.11,9.11,0,0,0-2.26.59v35.84l-1.06.25c-.16-.23-.4-.41-.4-.59,0-12.68,0-25.36,0-37.94L523,961.58v-2.45c.86-1.44,2.84-1.81,3.35-3.78-.83-1.46-2.92-2.26-3.56-4.53H519.4V936.53h9.74c.36-1.25-1.29-1.3-1.14-2.51l.69-.93-1.13-.4c-.47-1.57-.91-3.06-1.41-4.7,1.43-.19,3-1.3,4.85-1,.14,0,.37-.44.56-.68l.72-.72c1.7-.43,3.19,1.52,5.61.05l.36-.68,2.16,1.11-2.91.57c4.71.62,10.17.57,10.58,0l-1.43-.69,2.18-1.05,1,1.57,3.82-.76a9.06,9.06,0,0,1,.9,1.61c0,.09,0-.09,0-.26-.71,0-1.43,0-2.15,0s-1.46.12-2.19.18l0,.35a22.59,22.59,0,0,0,4.26-.27A23.94,23.94,0,0,1,558.9,927.08Zm-38,10.78v10.41a1.94,1.94,0,0,0,2.62,1c2.15-1.12,4.38-.61,6.57-.63,8.86-.07,17.73,0,26.6,0,2.31,0,4.66-.35,6.9.68a3.32,3.32,0,0,0,1.43,0l1-1v-9.54l-1-1H520.9ZM528,957.15h30.91c-.07-1.25-.12-2.37-.17-3.35H528Zm-2.88,3.6h36.57v-1.21H525.15Zm-.37-9.9,1.33,1.33h34.68l1.18-1.33Zm26.06-20.74,3.77-1.6c-2.51,0-4.27.1-6,0a41.49,41.49,0,0,1-5.07-.71c-1.91-.38-3.57.77-5.43.76a20.5,20.5,0,0,0-5.44.24c1.3.69,2.78.14,3.06,1.66l-.6.81h16.7Zm-20,4.51c2.81,0,5.38-1.37,8.23-1.13a59.42,59.42,0,0,0,9,0c2.74-.17,5.22.79,8.33,1l-1.95.81c1.53.81,2.3.11,3-.74-5.22-3.32-22.8-3.29-28,0,1.24,1,1.24,1,2.83.7Zm28.28-4.21c-1.56-.76-2.75-1.5-4.21-1.16-.12,0-.17.31-.26.47.6.36,1.87.17,1,1.74h-3.25a26.38,26.38,0,0,0,4.48,1.36c.09,0,.2-.08.39-.17.09-.6.18-1.26.27-1.87Zm-26.93-.91c-1.6-.91-2.83.25-4.16.71,0,0,0,.16,0,.25l1.22.44c.06.63.12,1.19.15,1.54l5-.53v-.39l-4.32-.33Zm.15-2.3,0,.6c1.28,0,2.55,0,3.83,0,.08,0,.16-.3.29-.57Zm3.38,9.1,0-.62-2.61.17,0,.45Zm15.34-.48,0,.63,2.63-.18,0-.45Zm6.22-7.43v-.64l-1.93.26,0,.38Zm-25.9,0v-.64l-1.93.26,0,.38Zm-2.86.72-.08-.62-1.17.28.06.34Zm30.94,0-.08-.62-1.17.28,0,.34Z" transform="translate(-92.69 -706.38)"/><path d="M761,1011.9v6.39H738.77c0,2.82-.11,5.54,0,8.25.13,2.52-.71,5.18.73,7.64h20.7v6.38H738.87v15.85H761.7v6.4H732c-.57-2.85-.77-37.88-.26-50.91H761Z" transform="translate(-92.69 -706.38)"/><path d="M798.61,1033.24l1,1H820v6.38H798.55v15.73h22.78v6.48H791.45V1012h29.19v6.37h-22Z" transform="translate(-92.69 -706.38)"/><path d="M864.79,1011.9c6.75,0,13.46-.38,20.1.14,4.53.36,8.56,2.49,10.76,7.07a11,11,0,0,1,1.42,5.52c-.11,2,0,4.06,0,6.15a5.38,5.38,0,0,0-.71,1.09,12.43,12.43,0,0,1-7.9,7.63,14.87,14.87,0,0,1-5.26,1.17c-3.69,0-7.38,0-11.19,0v22.16c-1.25,0-2.39.1-3.54.12s-2.36,0-3.66,0Zm7.19,6.47v15.75H883.6a23.27,23.27,0,0,1,2.57-1.35,4.41,4.41,0,0,0,2.62-3c.51-1.48,1.31-3.21,1-4.56-1.35-5.22-4.51-7-8.7-6.88C878.07,1018.41,875.1,1018.37,872,1018.37Z" transform="translate(-92.69 -706.38)"/><path d="M844.49,1057.18A35.73,35.73,0,0,0,848,1054c1.28-1.48,2.51-3.1.87-5.18-.23-.29,0-.92,0-1.36-2.46-2.42-4.7-5-7.65-6.81-2.49-1.49-5.18-2.69-7.51-4.38s-4.74-3.68-5.8-6.75a6.79,6.79,0,0,1-.62-2.25v-6.85c1.11-2.07,1.94-4,3.59-5.33a15.29,15.29,0,0,1,9.88-3.92c1.08,0,2.16,0,3.23,0,2.95-.19,5.55.91,8.1,2.16a26.25,26.25,0,0,1,2.43,1.48v8c-.56-.21-1.07-.24-1.31-.51-2.19-2.5-5.3-3.45-8.22-4.45s-6-.07-8.63,1.31a6.76,6.76,0,0,0-2.3,2.93,2.55,2.55,0,0,0,.39,3.2c.24.24,0,.91,0,1.22,2.87,3.62,6.72,5.67,10.52,7.8a33.17,33.17,0,0,1,5.94,3.84,18.74,18.74,0,0,1,5.27,8.93c1.07,3.45.15,6.31-1.08,9.12a12.44,12.44,0,0,1-7.87,6.72c-3.48,1.15-9.79,1.23-13.32-.2-2.37-1-5-1.49-6.51-3.6v-9.21C835,1057.64,837.23,1057.32,844.49,1057.18Z" transform="translate(-92.69 -706.38)"/><path d="M544.51,917c2.11-1.4,1.16-3.68,1.58-5.72l1.46.83c-.38-1.1-.64-1.86-1-2.91l2.49-.14c-.34.86-.55,1.41-.8,2.06h2l-.78-1.41,1.28-1.5c.28.54.54,1,.93,1.76l-.74,1.27,2.25.73c.24.48.48,1,.68,1.48-2.33-.55-4.59-2.9-7.06-.33v1.61c2.56.42,5.17-.52,7.69,1.1-.3-1-.49-1.71-.63-2.38.65.52,1.26,1.09,2.42,2.15.81.2,2.45.51,4,1s2.78,1.1,4.39,1.75V917h.72c.51,1.87.51,1.87,3,2.37l-3.81,3.21v3.25l-1-.88-1.1,1.4-.24-.6-.48.6-.72.72-1.08-.62-1.08.62v-1.45l-3.29.83-2-3a3.54,3.54,0,0,1-2.42,2.14l-2.34-.64v-1.65l-1.89,1.65h-2.43c-.37-.93-.74-1.86-1.14-2.89-.22.54-.4.93-.54,1.34s-.32,1-.48,1.55h-2.47l-1.4-1.48-2.52,2.4-3.68-2.37v2.17l-.72.72-3.26-.61-1.65,1.47c-1.56-1.21-3.75-1.4-5.16-3l1.15-1.44h-1.87V921l-2.23-1.4,1.13-1.13.66.6,2.6-4.21.72-.72h1.12c-.11-.94-.23-1.89-.41-3.38,1.06.7,1.6,1.07,2.19,1.47l-.82.95,1.36.31c.11-.79.2-1.44.3-2.12,1.24-.32,1.7.4,2,1.33-1.1.25-.89.8-.35,1.44h1.07v1.37h1.44v-2.09l1.58-1.06L531.32,911l2.11-1.64c.17,1,.28,1.64.41,2.43,2-.94,4-.6,6.21-.27l.72-1.54v6l1.58,1.06c0,1.09-.24,2.29,1,2.69C544.89,919.2,544.46,918,544.51,917Zm10.2,4.8,1.54-3.39-2.67.13c.39,1.13.68,2,.16,4.55.57-.52.84-.66.82-.77a6.07,6.07,0,0,0-.31-1C554.13,921.76,554,922.19,554.71,921.81ZM540.18,913c-4.15-1.87-7.23-.9-7.65,2.27,1.77-.14,3.56-.31,5.36-.44.59,0,1.2,0,1.79,0,.18,0,.35-.26.5-.38Zm-10.36,2.37c-1.9-1-3.21-1.86-4.79-.56-1.17,1-2.55,1.71-2.88,3.5Zm2.26,5.39.74-.18v-2.27l-2.44.43Zm10-.12-1.15-.84-1.59,1.06,1.81,1.61Zm4.47-1L544.18,921l2.37,1.26Zm11,1.09-2.38,1.77,2.2,1.32C557.41,922.83,557.44,922.2,557.53,920.72ZM526,923.82l-1.86-1.22.52.83-1.78.34,1,1Zm5.78-1.5L529.29,921l.42,3Zm2-.4h2v-1.19h-2Zm19.21,0,.14-.51-2.08-1v1.47Zm8,2.17h2.26a13.84,13.84,0,0,0-1.18-1.31c-.13-.11-.45,0-.84,0Zm-28.19-2.76h-.36v1.43h.36Zm10.49,0h.24v-.72h-.24Z" transform="translate(-92.69 -706.38)"/><path d="M837.46,933.62h6.94v51.62h-6.94Z" transform="translate(-92.69 -706.38)"/><path d="M248.7,1140.52h-35V1094l1.23-.2V1138l1.17,1.18c6.67,0,13.37,0,20.08,0a2.52,2.52,0,0,0,2.7-1.41c0-18.1,0-36.63,0-55.16,0-.07.16-.15.49-.43V1139h2.73l1-1.06v-57.59c.2-.05.31-.12.37-.09s.25.16.25.25q0,29.22,0,58.52h3.6v-61h1.33Z" transform="translate(-92.69 -706.38)"/><path d="M525.93,1076.67h1.2V1138l1.2,1.2c6.64,0,13.34,0,20,0a2.5,2.5,0,0,0,2.73-1.43v-50.35a157.63,157.63,0,0,1,.61,17.1V1139h2.88v-49.45h.65v49.47h4.34v-48l1.35-.07v49.51h-35Z" transform="translate(-92.69 -706.38)"/><path d="M214.88,1070.78h-1.23v-17a84.59,84.59,0,0,1-8.72-1.71,10.32,10.32,0,0,1-5.74-4c-.22-1.3-.5-2.86-.73-4.43a3,3,0,0,1,.62-1.9c1.65-2.92,3.75-4.9,7.39-4.71,2.26.12,4.53,0,7.06,0v-5.68h1.35Z" transform="translate(-92.69 -706.38)"/><path d="M574.73,1039.22c.08.45,0,1,.28,1.31a5.25,5.25,0,0,1,1.2,4c-1.4,4.54-5,5-7.93,6.1-1.88.72-4,.69-6.4,1l-.86.89V1070l-1.24.16v-38l1.07-.18c.58,1.18-.47,3.06.74,3.41l6.84-.65c1.69.32,2.31,2.48,4.14,2.33l.72.71.72.72Z" transform="translate(-92.69 -706.38)"/><path d="M259.61,1046.39l-10.87,8.15-1.3-1.22V1025l1.3-.2v13c3.75,1.79,8.07,1.76,11.29,4.4C261.11,1043.7,259.47,1045,259.61,1046.39Z" transform="translate(-92.69 -706.38)"/><path d="M217.88,911.26a16.93,16.93,0,0,1,7.2-1.45c1.47,0,3,.35,4.31-.71a2.78,2.78,0,0,1,0,1c-1.22,2.89-1.05,3.33.74,6.93,0,1.26-.11,2.59,1.83,2.86l1.24-2.79c-1.22,0-2.15,0-3.07-.07v-1.43l2.16.86v-6.68H233c.11,2.12-.24,4.28.72,6.36v-6.36c.83,0,1.67.06,2.51,0a13.09,13.09,0,0,1,7.67,1.86c-2.82,1.41-4.48,3.89-6.42,6.14-1,1.11-.95,2.76-2.32,3.52a1.64,1.64,0,0,0-2.26-1.29l.7,1.79-1.32.43v1.94c-.88-.88-1.77-1.76-2.68-2.68l.56-.61-1.69-1.27-1,1.93c-.54-2.13-2.39-3.08-3.25-4.87-.63-1.31-2.16-2.17-3.16-3.34S218.52,912.6,217.88,911.26Zm13,9.59v.24h.72v-.24Z" transform="translate(-92.69 -706.38)"/><path d="M527.13,1054.37c-2.89-1.89-5.82-3.35-8.12-5.75-1-1-2.37-1.43-3.14-2.94a6.66,6.66,0,0,1-.84-3.26c2.94-2.8,7.08-2.51,10.77-4.15v-12.64h1.33Z" transform="translate(-92.69 -706.38)"/><path d="M217.16,913.42c-.36,0-.72,0-1.07,0-.09,0-.16.16-.36.39l2.86,2.11c.83.62.7,2.15,2.13,2.36l-2.27.35,1,2h2.79a3.22,3.22,0,0,1-1,2.85,17.07,17.07,0,0,0-2.18,3.07l-3.32-.63v1.18h-2.88l-.23-.6-.49.6-2.87-2.88,1.14-1.44h-1.86l-.72-.72c0-.59.24-1.4-.05-1.73-1-1.1-.61-1.85-.07-3.06.47-1,.34-2.24,1.86-2.39.88-1.71,3.32-1,4.08-2.65,1,.18,1.8.28,2.61.51C216.58,912.82,216.85,913.18,217.16,913.42Zm2.09,8h-2.12l.14,2.21C218.57,923.29,219.45,922.94,219.25,921.45ZM211,924.08h2.58l-.25-1.65Zm9.09-1.49,2.12-1.15H220.1Z" transform="translate(-92.69 -706.38)"/><path d="M980.18,1001c1.44-.72,3-1.47,3.45-3.37h2.47c.74,3.31-1,5.71-2.7,8.26-.69.2-1.42.45-2.17.63a4.28,4.28,0,0,1-2,.33c-2.42-.77-4.78-1.7-7.88-2.83h-2.78l-2.26,2.79h-2.26v-4l2.63-4.29C971.8,997.43,975.94,999.43,980.18,1001Z" transform="translate(-92.69 -706.38)"/><path d="M205,1117.49c-.28-.35-.8-.7-.79-1,0-3.47-2.54-5.3-4.65-7.38a25.25,25.25,0,0,0-3.26-2.32v-2.7l6.85-6c3.16,1.42,3.67,4.62,5.32,7.1C208.56,1113.64,208.22,1114.83,205,1117.49Z" transform="translate(-92.69 -706.38)"/><path d="M570.36,1116.52c-3.22-3.71-4.88-7.53-4.22-12a15,15,0,0,1,4.89-8.77c2.3,1.79,4.45,3.43,6.56,5.12a2.11,2.11,0,0,1,.63,1.16,18.82,18.82,0,0,1,.15,2.24c-1.15.86-2.16,1.9-3.4,2.8A10.16,10.16,0,0,0,570.36,1116.52Z" transform="translate(-92.69 -706.38)"/><path d="M246,913.38a3.82,3.82,0,0,1,.88-.66c.48-.16,1.24.22,1.25-.74,1.35,1,2.74,1.93,4,3a6,6,0,0,1,2.44,5.68,10.9,10.9,0,0,0,0,1.4,1.78,1.78,0,0,0-2,1c-.3.5-.31,1.12.58,1.17l-1.44,1.44-.72-.71c.18-1.31-.54-1.91-1.86-2.29l-.36,1.2,2.22,1.09.72.71-1.44,1.44-.23-.6-.48.6h-2.88v-1.44l-1.14.59-.62-.52-1.08.77a3.86,3.86,0,0,0-.86-.57c-1.29-.37.19-2.22-1.34-2.43v-.72c.48-.24,1-.48,1.34-.62a15.2,15.2,0,0,0,2,1.25l.42-.45-.55-1.88c-.81.49-1.28.76-1.88,1.08a6,6,0,0,0-1.34-1.24v1.86l-1.44-2.15c1.3-.09,2.81.48,3.51-1.06l-.63-3.26.72-.72.72-.71c.24-.3.46-.62.72-.89s.48-.37.75-.59l-.11.1.5.59.23-.23A4.74,4.74,0,0,0,246,913.38Zm.93,11.54h.24v-.72h-.24Z" transform="translate(-92.69 -706.38)"/><path d="M555.18,1030.71v37.46C554.41,1065.7,554.21,1038,555.18,1030.71Z" transform="translate(-92.69 -706.38)"/><path d="M551.58,1029.27V1066C550.81,1063.57,550.6,1036.79,551.58,1029.27Z" transform="translate(-92.69 -706.38)"/><path d="M370.61,817.09,369,815.18V813l2.38-1.59h2.3l1.79,1.78v2l-2.55,1.86Zm.49-1.55h2.06c-.09-1.92-.09-1.92-1.92-2.89C371.19,813.64,371.15,814.52,371.1,815.54Z" transform="translate(-92.69 -706.38)"/><path d="M239.34,1025.68v34.57C238.57,1057.81,238.37,1033,239.34,1025.68Z" transform="translate(-92.69 -706.38)"/><path d="M243.66,1025v32.51C242.9,1054.86,242.72,1031.4,243.66,1025Z" transform="translate(-92.69 -706.38)"/><path d="M229.39,909.1v-3.26l1.18-1a1.87,1.87,0,0,1-.84,2.72h2.16l-.44-3.8,2-1c1.14,1.47-.73,1.1-1.29,1.87l1.56,2.16v3.05H233l-.24-.59-.48.59-1.22-1.52-.44,2.33Z" transform="translate(-92.69 -706.38)"/><path d="M557.46,912.7l1-1.48,1,1c-.16.33-.33.66-.56,1.11h1.87c.61-.61-.59-.53,0-1.39l2.08-1.1c-.54,1.46-.82,2.22-1.23,3.31h1.61l.72.72.72,2.15a11.84,11.84,0,0,0-2.13-1.71c-1.42-.7-2.81-2.11-4.6-.6-.44.37-1.13.34-1.19-.56l.72-.72.6-.24Z" transform="translate(-92.69 -706.38)"/><path d="M545.23,909.1c-.79.24-1.58.51-2.39.69-.11,0-.32-.45-.49-1a3.25,3.25,0,0,1,0,.34l1.4-.28-.06-.46a2.49,2.49,0,0,0-1.36.4.79.79,0,0,1-.71.27l-.79-1.34,1.92-3.86a3.5,3.5,0,0,1-.41,3.64h1.83s.24-.24.2-.33c-.77-1.79-.76-1.79.12-3.14Z" transform="translate(-92.69 -706.38)"/><path d="M565.17,916.63l1.27-2,1.23,1.57c-.35.48-.74,1-1.14,1.54Z" transform="translate(-92.69 -706.38)"/><path d="M229.39,926.36a3.3,3.3,0,0,1,2.88-1.44l.72,1.44Z" transform="translate(-92.69 -706.38)"/><ellipse cx="449.3" cy="206.68" rx="0.25" ry="3.56"/><path d="M553.29,912l-.78-1.18,1.87-1.42c.11,1,.17,1.67.25,2.48Z" transform="translate(-92.69 -706.38)"/><path d="M556.74,914.14c-1-.28-1.51-.84-1.39-2.29l2.11.85v.72Z" transform="translate(-92.69 -706.38)"/><path d="M529.4,912.7l1.92-1c.1.72.17,1.21.24,1.7l-1.44.72Z" transform="translate(-92.69 -706.38)"/><path d="M522.93,914.86l-1.61-1.43.35-.55.87-.25,1.11,1.51Z" transform="translate(-92.69 -706.38)"/><path d="M237.3,924.92l-1.43-.72.65-1.13-.78-.86,1.56-.19Z" transform="translate(-92.69 -706.38)"/><path d="M563.22,914.14c.38-.53.77-1,1.06-1.44h.63l.38.24c.34,1.14-.41,1.59-1.35,1.92Z" transform="translate(-92.69 -706.38)"/><path d="M248.13,912a12.1,12.1,0,0,0-1.82-.7,3.66,3.66,0,0,1-1.72-.48c.53-.09,1.07-.21,1.61-.26s1.12,0,1.81,0Z" transform="translate(-92.69 -706.38)"/><path d="M544.56,902.83l-1.15-.86-.84.71-.33-1.31,2.17-.22C544.46,901.74,544.5,902.18,544.56,902.83Z" transform="translate(-92.69 -706.38)"/><path d="M217.74,911.18h-3.49C216.38,910.35,216.38,910.35,217.74,911.18Z" transform="translate(-92.69 -706.38)"/><path d="M519.34,915.64h1.28l.21,1.05C519.87,917.25,519.28,917.24,519.34,915.64Z" transform="translate(-92.69 -706.38)"/><path d="M536.54,909v1.4l-1.17.22c-.09-.45-.16-.85-.25-1.35Z" transform="translate(-92.69 -706.38)"/><path d="M538.1,910.65v-1.4l1.17-.22c.08.45.16.85.25,1.34Z" transform="translate(-92.69 -706.38)"/><path d="M224.21,920.59l.19,2-1.69.19c.47-.61.79-.86.9-1.19a3.86,3.86,0,0,0,0-1.13Z" transform="translate(-92.69 -706.38)"/><path d="M240.18,920.61h-1.44a5.47,5.47,0,0,1,.5-.84,7.43,7.43,0,0,1,.94-.78Z" transform="translate(-92.69 -706.38)"/><path d="M223.63,920.61H222.2l.72-1.44C224,919.23,223.53,920.06,223.63,920.61Z" transform="translate(-92.69 -706.38)"/><path d="M542.35,917c.73-1,1.44-1,2.16,0Z" transform="translate(-92.69 -706.38)"/><path d="M231.05,904l-1.62.13.14-1.68Z" transform="translate(-92.69 -706.38)"/><path d="M230.67,901.46l1.45-.36.21,1.89Z" transform="translate(-92.69 -706.38)"/><path d="M249.54,927.8c-.07,1.07-.9.61-1.44.71C248.16,927.44,249,927.9,249.54,927.8Z" transform="translate(-92.69 -706.38)"/><ellipse cx="448.58" cy="196.97" rx="0.25" ry="1.02"/><path d="M544.51,904.07v-1.44l.72.9Z" transform="translate(-92.69 -706.38)"/><path d="M545.79,909.09l.12,1.37-.47.06-.27-1.4Z" transform="translate(-92.69 -706.38)"/><path d="M238.74,922l-.72-.89.72-.54Z" transform="translate(-92.69 -706.38)"/><path d="M237.3,925.64v-.72h1.32l0,.48Z" transform="translate(-92.69 -706.38)"/><path d="M225.09,925.48l-1.37.12-.07-.47,1.41-.27Z" transform="translate(-92.69 -706.38)"/><path d="M226.51,924.2h-.72v-1.44C226.87,922.82,226.4,923.66,226.51,924.2Z" transform="translate(-92.69 -706.38)"/><path d="M214.28,928.51c-.54-.1-1.38.36-1.44-.71C213.39,927.9,214.22,927.44,214.28,928.51Z" transform="translate(-92.69 -706.38)"/><path d="M232.27,924.92v-.72l.59.48Z" transform="translate(-92.69 -706.38)"/><path d="M230.19,924.27l-.51.58-.22-.22.58-.5Z" transform="translate(-92.69 -706.38)"/><path d="M226.58,924.13l.59.5-.23.22-.5-.58Z" transform="translate(-92.69 -706.38)"/><path d="M225.79,924.2l-.72.72Z" transform="translate(-92.69 -706.38)"/><path d="M222.13,925l-.59-.51.23-.22.5.59Z" transform="translate(-92.69 -706.38)"/><path d="M521.49,924.2l-.72-.72Z" transform="translate(-92.69 -706.38)"/><path d="M253.85,923.48l-.72.72Z" transform="translate(-92.69 -706.38)"/><path d="M241.7,923.55l-.51.58-.22-.22.59-.5Z" transform="translate(-92.69 -706.38)"/><path d="M230,924.14l.51-.59.22.23-.59.5Z" transform="translate(-92.69 -706.38)"/><path d="M209.25,924.2l-.72-.72Z" transform="translate(-92.69 -706.38)"/><path d="M235.94,924.27l-.5.58-.23-.22.59-.5Z" transform="translate(-92.69 -706.38)"/><path d="M520.77,923.48l-.72-.72h.72Z" transform="translate(-92.69 -706.38)"/><path d="M254.57,922.76l-.72.72Z" transform="translate(-92.69 -706.38)"/><path d="M520,922.84l-.59-.5.23-.23c.16.2.33.39.5.59Z" transform="translate(-92.69 -706.38)"/><path d="M254.57,922l.6.49-.6.23Z" transform="translate(-92.69 -706.38)"/><path d="M238.81,922l.59.5-.23.23-.5-.59Z" transform="translate(-92.69 -706.38)"/><path d="M225.73,922.84l-.59-.5.23-.23.5.59Z" transform="translate(-92.69 -706.38)"/><path d="M207.81,922.76l-.6-.48.6-.24Z" transform="translate(-92.69 -706.38)"/><path d="M222.2,924.92l.59.48-.59.24Z" transform="translate(-92.69 -706.38)"/><ellipse cx="147.13" cy="218.9" rx="0.17" ry="0.51"/><path d="M235.22,921.39l-.5.59-.23-.23.59-.5Z" transform="translate(-92.69 -706.38)"/><ellipse cx="148.57" cy="213.15" rx="0.17" ry="0.51"/><ellipse cx="128.42" cy="213.15" rx="0.17" ry="0.51"/><path d="M222.92,919.17l-.72-.72Z" transform="translate(-92.69 -706.38)"/><path d="M241.69,917.66l.58.5-.22.22-.5-.58Z" transform="translate(-92.69 -706.38)"/><path d="M241,917.8l-.5.58-.23-.22.59-.5Z" transform="translate(-92.69 -706.38)"/><path d="M222.13,918.53l-.59-.51.23-.22.5.59Z" transform="translate(-92.69 -706.38)"/><path d="M240.9,917.73l.72-.72v.72Z" transform="translate(-92.69 -706.38)"/><path d="M241.62,917l.72-.72Z" transform="translate(-92.69 -706.38)"/><path d="M220.82,916.22l.59.5-.23.23-.5-.59Z" transform="translate(-92.69 -706.38)"/><path d="M243.06,916.29h-.72l.72-.72Z" transform="translate(-92.69 -706.38)"/><path d="M220,915.57l.72.72Z" transform="translate(-92.69 -706.38)"/><path d="M243.06,915.57l.72-.71v.71Z" transform="translate(-92.69 -706.38)"/><path d="M220,915.57l-.72-.71Z" transform="translate(-92.69 -706.38)"/><path d="M243.78,914.86l.48-.6.24.6Z" transform="translate(-92.69 -706.38)"/><path d="M219.25,914.93l-.59-.5.23-.23.5.59Z" transform="translate(-92.69 -706.38)"/><path d="M217.22,913.34l.59.5-.22.23-.51-.59Z" transform="translate(-92.69 -706.38)"/><ellipse cx="452.18" cy="206.68" rx="0.51" ry="0.17"/><path d="M541.71,909.17l-.5.59-.23-.23.59-.5Z" transform="translate(-92.69 -706.38)"/><path d="M562.5,926.36l-.72.72v-.72Z" transform="translate(-92.69 -706.38)"/><path d="M205,1117.64l-.5.59-.22-.22.58-.51Z" transform="translate(-92.69 -706.38)"/><path d="M212.84,927.8l-.72-.72h.72Z" transform="translate(-92.69 -706.38)"/><path d="M250.25,927.08l-.71.72v-.72Z" transform="translate(-92.69 -706.38)"/><path d="M230.83,901.92l-.72.71Z" transform="translate(-92.69 -706.38)"/><path d="M561.78,927.08l-.48.59-.24-.59Z" transform="translate(-92.69 -706.38)"/><path d="M208.53,923.48l-.72-.72h.72Z" transform="translate(-92.69 -706.38)"/><path d="M1277.05,934.33h6.66c5.29,6.47,10.47,12.83,15.86,19.43l15.86-19.36h6.47c.51,2.9.69,37.27.22,47.91h-7v-37c-1.91,2.2-3.41,3.85-4.81,5.59-1.58,2-3,4-4.6,6-1.94,2.35-4,4.61-6,7a53.1,53.1,0,0,1-8-9.29c-1.23-1.82-2.86-3.37-4.27-5.07-.81-1-1.49-2-2.32-3a7.68,7.68,0,0,0-1.71-1v36.93h-6.38Z" transform="translate(-92.69 -706.38)"/><path d="M1491.35,1095.3a25.18,25.18,0,0,1,14.15,3.53,31,31,0,0,1,7.19,6c.87.9,4.38,8,4.52,8.88a9.74,9.74,0,0,1,0,1.43c0,1.43-.35,3,.15,4.25s-.25,2.27-.22,3.41c.11,4.46-1.68,8.21-4.28,11.85-3.5,4.89-8.52,7.15-13.74,9.28a1.83,1.83,0,0,1-.61.25c-3.4,0-6.69,1.21-10.12.73-5.91-.84-11.45-2.45-15.84-6.86-2.36-2.37-4.58-4.79-5.85-8a28.53,28.53,0,0,1-1.37-4.47,24.85,24.85,0,0,1-.65-5.82,27.3,27.3,0,0,1,3.6-12.87,23.43,23.43,0,0,1,7.07-7.27A24.09,24.09,0,0,1,1491.35,1095.3Zm18.68,25.17c0-4.7-.25-4.6-2.09-9-1.62-4-4.74-6.17-8.17-7.93-3.66-1.88-7.78-2.07-11.85-1.69a14.19,14.19,0,0,0-3.84,1.12,19.82,19.82,0,0,0-10.82,10.4c-.65,1.38-.12,2.88-.82,4-1,1.62-.22,3.24-.54,4.82,1.41,1.31.48,3.24,1.34,4.84a33,33,0,0,0,4.85,6.62c2.7,3,6.38,4,9.9,4.72a18.4,18.4,0,0,0,13.5-2.76c1.74-1.1,3.67-2.28,4.79-3.92C1508.66,1128.15,1510.8,1124.44,1510,1120.47Z" transform="translate(-92.69 -706.38)"/><path d="M1649.52,958.62c.75,4.86-1,9.32-3.64,13.09a23.21,23.21,0,0,1-12.08,9.37,52.82,52.82,0,0,1-7,1.49,20.83,20.83,0,0,1-5.47.54A60,60,0,0,1,1615,982a22.86,22.86,0,0,1-7.56-3.38c-4.61-2.93-7.48-7.49-9.59-12.42a14.77,14.77,0,0,1-.75-5.42c-.06-3.14-.34-6.3.66-9.4.83-2.56,1.47-5.16,3.39-7.22.77-.83,1.31-1.88,2.06-2.73,3.26-3.68,7.54-5.66,12.1-7.19a11.69,11.69,0,0,1,4.38-.73,48.46,48.46,0,0,0,5.39,0c4.83-.28,9.17,1.42,13.2,3.68a21.81,21.81,0,0,1,9.4,10.65A20.39,20.39,0,0,1,1649.52,958.62Zm-25.8-18.56a17.74,17.74,0,0,0-13.5,4.53c-5.26,4.64-7.15,11.67-5.28,18.77,1.34,5.11,4.77,8.4,8.94,10.91a18,18,0,0,0,9.41,2.42,27.86,27.86,0,0,0,4.38-.64c5.28-.88,8.91-3.93,11.86-8.09a9.07,9.07,0,0,0,1.41-1.93c1.49-4.41,2.29-8.87.75-13.47a17.55,17.55,0,0,0-9.37-10.66C1629.58,940.59,1626.63,939.42,1623.72,940.06Z" transform="translate(-92.69 -706.38)"/><path d="M1340.35,1144.18V1096c7.62,0,15.15-.15,22.66.08a26.75,26.75,0,0,1,9.42,2.34c2.6,1.11,7.47,5.2,8.52,7.07a35.52,35.52,0,0,1,4,9.48,20.84,20.84,0,0,1,.54,7.25,27.46,27.46,0,0,1-4.64,12.08c-2,3-5,4.67-7.7,6.64-1.8,1.32-4.25,1.86-6.48,2.47a26.06,26.06,0,0,1-7.23.8C1353.11,1144.1,1346.79,1144.18,1340.35,1144.18Zm7.14-6.47c3.9,0,7.49,0,11.08,0a22.88,22.88,0,0,0,6.56-.63,16.91,16.91,0,0,0,6.83-3.44c3.11-2.83,5.53-6.11,5.69-10.56,2.07-3.81.19-7.46-.91-10.89-1.2-3.74-7.94-8.77-11.64-9.61a30.91,30.91,0,0,0-3.21-.11c-1-.12-2-.64-2.94-.66-3.8-.08-7.6,0-11.46,0Z" transform="translate(-92.69 -706.38)"/><path d="M1396.23,982.38h-6a5.2,5.2,0,0,0-.66-1.31c-2.69-3-5.43-5.89-8.12-8.87-1.32-1.46-2.56-3-3.82-4.52s-3.18-2.48-3.83-4.53c-.06-.2-.33-.34-.49-.51-2.88-3.12-5.79-6.21-8.64-9.37-2.26-2.5-4.44-5.08-7.13-8.16v37.25h-6.39V934.45h6.28c2.65,3.45,6.3,6.58,9,10.54a4,4,0,0,0,.5.51c2.88,3.12,5.85,6.17,8.63,9.38,3.59,4.17,7.06,8.44,10.93,12.37a45.91,45.91,0,0,1,3.33,4.42V934.34h6.39Z" transform="translate(-92.69 -706.38)"/><path d="M1277,1062.94v-48.16h3.11c4.91,0,9.82.12,14.72-.06,1.92-.07,3.65.87,5.44.71a14.67,14.67,0,0,1,5.42.92,31,31,0,0,1,6.81,3.45c2.93,1.71,4.67,4.58,6.52,7.28a16.3,16.3,0,0,1,1.77,4.27,31.3,31.3,0,0,1,.75,3.64c.24,1.22.5,2.43.71,3.65s-.63,2.5-.62,3.65a16.38,16.38,0,0,1-2.25,7.71,23,23,0,0,1-13.54,11.59,24.25,24.25,0,0,1-8.41,1.38C1290.72,1062.9,1284,1062.94,1277,1062.94Zm7.22-5.75c2.4,0,4.67-.15,6.91,0,3.42.29,6.73-.61,10.1-.77.31,0,.6-.3.92-.37,3.28-.71,5.7-2.68,8-5a13.82,13.82,0,0,0,4.23-10.1,27.28,27.28,0,0,1,0-2.86,14.26,14.26,0,0,0-2.84-9.6,16.86,16.86,0,0,0-12.22-7.1c-4.92-.62-10-.14-15.08-.14Z" transform="translate(-92.69 -706.38)"/><path d="M1649.76,1062.33c-.23.29-.3.46-.37.46h-7.49c-1.86-1.57-3-4.12-4.51-6.35-2.29-3.36-4.23-7-6.94-10s-6.27-5.09-11-4.16v20.59h-7.12v-48.07c4.7,0,9.36-.18,14,.07a20.09,20.09,0,0,1,7.2,1.62c3.94,1.83,7.47,5.49,7.38,11.11,0,1.57.77,3.33-.61,4.75-.59,4.18-3.7,6.06-7.19,8,.8.72,1.72,1.36,2.65,2.09a19,19,0,0,1,3.73,4.51c2.72,4.12,5.28,8.35,8,12.5A34.79,34.79,0,0,0,1649.76,1062.33Zm-16-32.41v-3.29c-.07-.07-.19-.14-.24-.24-.18-.4-.32-.83-.51-1.22-.93-1.82-1.35-2.52-3.28-3.15a26.23,26.23,0,0,0-9.18-1.48l-1.06.93v13.91l1,1c1.34,0,3,.46,4.12-.12,1.52-.78,3.06-.14,4.38-.68a5.54,5.54,0,0,0,3.38-2.7C1632.74,1031.94,1633.21,1031.06,1633.77,1029.92Z" transform="translate(-92.69 -706.38)"/><path d="M1526.7,1096c5.23,0,10.38-.26,15.49.08a13.62,13.62,0,0,1,11.6,7.36c.26.48.43,1,.84,2,0,1.24-.09,3,0,4.81.27,4.26-1.7,7.23-5.14,9.47a23.94,23.94,0,0,0-2.24,1.85c5,3.69,7.76,8.93,11,13.84,1.42,2.19,2.59,4.55,4.47,6.43A10.8,10.8,0,0,1,1564,1144h-8.31c-1.65-2.52-3.45-5.22-5.21-8-.73-1.12-1.33-2.32-2-3.46-2-3.13-4.77-5.52-7.4-8a4.22,4.22,0,0,0-3.43-1.26,31.58,31.58,0,0,1-3.8,0v20.78h-7.1Zm7.13,20.85h7.67a10.19,10.19,0,0,0,5.89-4.81v-5.29l-3.62-4.11c-1.81-.32-3.37-.72-4.94-.85s-3.3,0-5,0Z" transform="translate(-92.69 -706.38)"/><path d="M1544.54,961.58v20.74h-6.29V934.27c5.48,0,11-.12,16.45.05a11.31,11.31,0,0,1,6.42,2.61,14.83,14.83,0,0,1,3.72,4.13,8,8,0,0,1,1.3,4.87c-.11,1.87.17,3.89-.45,5.57-1.41,3.84-2.09,5.57-7,7.63,2.13,2.51,4.19,5,6.28,7.42s3.34,5.33,5.09,8,3.6,5.08,5.57,7.84h-8.53a18.23,18.23,0,0,0-1.79-3.17c-2.6-3-4.19-6.71-6.51-9.86a28.15,28.15,0,0,0-8.16-7.73Zm.14-21.61v15.19c3.58-.24,7.1.54,10.88-1.23L1559,950v-4.93l-3.48-4C1551.58,939.46,1548.17,940.22,1544.68,940Z" transform="translate(-92.69 -706.38)"/><path d="M1436.64,1014.78h7.2v2.73c0,8.61.08,17.23-.06,25.84a32.87,32.87,0,0,0,.83,6.52,5.8,5.8,0,0,0,1.41,2.62c1.68,1.9,3.46,3.75,6,4.59,2.16.28,4.36,1,6.47.75,3.58-.34,7.08-1,9.92-3.84a11.66,11.66,0,0,0,3.47-8.63c.1-9.21,0-18.43,0-27.64v-2.86h7.19v30.06a7.08,7.08,0,0,1-.65,3.69c-.51.92.41,2.36-.79,3.25-.79,4.28-3.6,6.93-7.22,8.93-3.32,1.83-6.77,3.13-10.66,2.89-1.55-.1-3.11,0-4.67,0a19.24,19.24,0,0,1-15-7,15.57,15.57,0,0,1-2.66-6.06,26.4,26.4,0,0,1-.81-7.23C1436.7,1033.9,1436.64,1024.46,1436.64,1014.78Z" transform="translate(-92.69 -706.38)"/><path d="M1593.84,1052.14c.49-1.38.87-2.2,1.07-3.06a29.74,29.74,0,0,0,.76-7.24c-.08-8,0-16,0-24v-2.91h7.2v3c0,7.54.07,15.08,0,22.62a40,40,0,0,1-.78,9.37c-1.17,4.5-3.22,8.68-7.79,10.86-3.49,1.66-7,3.23-11,2.9-1.54-.12-3.11,0-4.67,0-7.17-.24-12.76-3.43-16.39-9.54a14.27,14.27,0,0,1-1.68-6.8c-.16-10.76-.07-21.52-.07-32.41h7.07c0,.76.12,1.66.12,2.57q0,14.18,0,28.36c0,5,1.57,7.31,6.1,10,4.37,2.55,8.71,2.39,13.41,1.07C1590.12,1056,1592,1054,1593.84,1052.14Z" transform="translate(-92.69 -706.38)"/><path d="M1698.45,1062.83h-7.56c-1-2.21-2.1-4.52-3.15-6.83s-2-4.46-3-6.66h-21.19c-1.84,4.33-3.73,8.78-5.71,13.46h-7.45c1.54-3.37,2.94-6.7,4.32-10,1-2.34,2-4.69,3.06-7a77.09,77.09,0,0,0,3.26-7.26c.87-2.52,2.13-4.87,3.08-7.36s1.94-4.7,3-7c1.45-3,2.77-6,4.22-9.22h5.15c2.59,5.6,5.32,11.29,7.85,17.06,2.14,4.86,4.39,9.68,6.57,14.52C1693.41,1051.92,1695.77,1057.38,1698.45,1062.83Zm-31.84-20.14h14.51c-.11-2.3-5.73-14.36-7.58-16.31C1671.25,1031.75,1669,1037.1,1666.61,1042.69Z" transform="translate(-92.69 -706.38)"/><path d="M1428.64,1018.56v7.23c-1.58-.77-2.92-1.46-4.29-2.08a23.33,23.33,0,0,0-9.76-2.46h-6.11a13.14,13.14,0,0,0-8.4,3.15,19.69,19.69,0,0,0-4.42,4.16,27.69,27.69,0,0,0-3,6.7c-1.47,4-.31,7.75.92,11.31,1.47,4.23,4.83,7.21,8.88,9.07a13.92,13.92,0,0,0,5.82,1.55c1.56,0,3.13-.09,4.68,0,5,.37,9.25-1.74,13.6-3.63a24.09,24.09,0,0,0,2.75-1.73v7.26c-1.23,1.94-3.68,2.29-5.72,3a23.93,23.93,0,0,1-6.19,1.5,53,53,0,0,1-11.12-.06,26.06,26.06,0,0,1-10.64-3.76c-5-3.3-7.89-8-9.83-13.5a30.64,30.64,0,0,1-1-10.37,55.47,55.47,0,0,1,3.61-10c2.49-3.77,9.17-9.08,13.27-10.34a36.45,36.45,0,0,1,4.71-.79,29.51,29.51,0,0,1,4-.69c3.8-.1,7.45.92,11.11,1.8a21.76,21.76,0,0,1,5.73,1.77C1427.78,1017.94,1428.23,1018.29,1428.64,1018.56Z" transform="translate(-92.69 -706.38)"/><path d="M1338.15,1042v15.13h20.63v5.76H1331v-48h27.78V1021c0-.06,0,.05-.12.11a.59.59,0,0,1-.31.12h-20.19v14.3h18.87l1.09,1.08V1042Z" transform="translate(-92.69 -706.38)"/><path d="M1530.1,975.84v6.48h-28.54v-48h27.73V940h-20.7c0,2.72-.12,5.32,0,7.91.14,2.39-.74,5,.81,7.26h19.2v5.57h-18.75l-1.22,1.15v14Z" transform="translate(-92.69 -706.38)"/><path d="M1422.18,1096v5.66h-20.63v15.13h19.84v5.79h-19.87v14.89s0,0,.12.12a.75.75,0,0,0,.32.1h19.78c.1,0,.2.09.55.26,1.43,1.7.34,3.91.77,6.07h-28.49c-.57-2.82-.77-34.71-.26-48h27.87Z" transform="translate(-92.69 -706.38)"/><path d="M1614.47,1115.91l1,1h18.91v5.55h-18.91c-.36.45-.65.83-1.07,1.37v13.77h21.34v6.47H1608v-48h27v5.6h-19.57l-1,1Z" transform="translate(-92.69 -706.38)"/><path d="M1430.29,1096c6.35,0,12.59-.3,18.78.1a12,12,0,0,1,11.31,9.49,11.71,11.71,0,0,1,.69,2.94c-.14,4.86-1.35,9.14-5.9,12a20.18,20.18,0,0,1-6.32,2.21c-4,1-8,.24-12.17.71v20.67h-6.39Zm7.43,5.75c-.34.35-.81.6-.82.85,0,4.71,0,9.43,0,14.27,4.43-.28,8.9.65,12.7-.7,3-1.73,3.47-4.4,4.1-6.87a13.25,13.25,0,0,1-.47-1.83,5.51,5.51,0,0,0-3.81-4.77,16.12,16.12,0,0,0-4.63-.91C1442.39,1101.66,1440,1101.76,1437.72,1101.76Z" transform="translate(-92.69 -706.38)"/><path d="M1423.11,978.61v-8.67c4.82,5.36,10.12,8.46,17.87,5.68l2.84-3.34a8.79,8.79,0,0,0-4.33-8.54c-3.43-2.15-7-4.12-10.23-6.53-2.58-1.93-5.09-4.12-6.29-7.38,0-1.67.06-3.34,0-5a9.46,9.46,0,0,1,3.28-7.59c2.53-2.27,5.54-4,9.23-3.7a21.77,21.77,0,0,0,3.23,0c3.49-.26,6.39,1.2,9.33,3V944l-6.18-3.73c-4.83-1.09-9-1.28-12.3,2.94v4.25c2.59,3.47,6.15,5.61,9.81,7.6s7.29,4.37,9.46,8.24c.54,1,1.46,2,1.4,3-.14,2.66.5,5.27-.52,8a12.28,12.28,0,0,1-8.87,8c-1.84.48-3.77,1.28-5.79.78C1430.92,982.13,1426.58,981.71,1423.11,978.61Z" transform="translate(-92.69 -706.38)"/><path d="M1530.19,1021.28h-16.43v-6.14c2.94-.55,26.81-.72,40.74-.26V1021c.06-.06,0,0-.1.11a.59.59,0,0,1-.31.12h-16.71v41.62h-7.19Z" transform="translate(-92.69 -706.38)"/><path d="M1292.81,1112.15c4.89-5.06,8.85-10.73,13.2-16.05h8.42c-1.24,1.82-2.26,3.53-3.49,5.07-2.47,3.07-5.08,6-7.59,9.07-2,2.39-3.94,4.81-5.83,7.28a6,6,0,0,0-1.2,3.81c.06,7.53,0,15.05,0,22.71h-7.06c-.32-4.21-.08-8.59-.13-13s0-8.61,0-12.92c-2.93-3.68-5.86-7.37-8.82-11s-5.49-7.3-9.27-11h9.11Z" transform="translate(-92.69 -706.38)"/><path d="M1584.14,1101.65v42.4h-7c.06,0,0,0-.11-.11a.53.53,0,0,1-.13-.3v-40.8c-.34-.33-.59-.58-1-1h-16.14c-.37-1.94,0-3.8-.23-5.76h40.94c.33,1.71,0,3.57.19,5.53Z" transform="translate(-92.69 -706.38)"/><path d="M1494.79,940h-16l-1.15,1.06v41.27h-6.28c.07.06,0,0-.1-.1a.51.51,0,0,1-.13-.3V941.1l-1-1h-16.1v-5.74h40.73Z" transform="translate(-92.69 -706.38)"/><path d="M1488.51,1062.83v-47.91h7.09v41.16l1,1h21.24c.22,1.94.05,3.79.13,5.76Z" transform="translate(-92.69 -706.38)"/><path d="M1581.38,934.33h6.94v48h-6.94Z" transform="translate(-92.69 -706.38)"/><path d="M1407.26,934.33h7v48c-1,0-2.16.1-3.3.12s-2.37,0-3.66,0Z" transform="translate(-92.69 -706.38)"/><path d="M1333.16,934.33h7v48c-1,0-2.16.1-3.31.12s-2.36,0-3.65,0Z" transform="translate(-92.69 -706.38)"/><path d="M461.06,956.55h1.88c.14.39.28.81.49,1.42l.79-.57c1.09.42,1.31,1.31,1.11,2.51-2.63-.72-5.26-.91-7.87.48,0,1.07,0,2.13,0,3.19-.05.9.39,1.94-.64,2.61.87.82.31,2.06.73,2.86s.9,1.56.39,2.52l-2.38-1.73c.27,2.81,1.83,4.52,3.27,6.68v3.58c-.75.18-.89-.57-1.28-.85a16.68,16.68,0,0,1-1.54-1.51v6.84l-3.51-4v9.62l-2.78-3.89a14.31,14.31,0,0,0,1.17,5.72,44.48,44.48,0,0,0,5.22,9.31c1.31,2,3.74,2.92,6.1,3.24,1.11.16,2.35-.57,3.89-1l2.13-2.13c.23-1.3.84-2.79.67-4.17a42.44,42.44,0,0,0-1.25-5.92c-1.36-4.84-3.1-9.74-2.2-14.86.68-3.86.55-7.7.69-11.56a10.28,10.28,0,0,1,.87-3.22c.69-1.75,1.63-3.4,2.22-5.18a24.21,24.21,0,0,0,.67-4,5.6,5.6,0,0,1,2.16,3.77c1.34-1,2.71-2,4-3,1.11-.87,2.18-1.81,3.36-2.59-.7,1.5-.29,3-.43,4.57-.88,1.41-1.83,2.93-2.89,4.61l3,.3c-1.24,1.54-2.42,2.86-3.44,4.31a17.08,17.08,0,0,0-1,2.44c-.9,1.85-1.07,4.15-3.53,5-.82.28-1.38,1.29-2.06,2-.55,1.15.46,2.62-.76,3.64.91,1.08.65,2.38.57,3.6-.12,1.79.62,3.31,1.22,4.89,1,2.7,2.46,5.31,2.93,8.1.54,3.17.72,6.56-.55,9.69a8.11,8.11,0,0,1-6.18,5.1c-3.95.78-4.11.84-6,4.06.21,2.39-.63,5.12,1.17,7.67,2.32,1,4.73,2.08,5.39,5.44-.4.69-1,1.62-1.5,2.61-1,2-2.3,3.91-2.79,6s-.51,4.22,1.52,5.65l-2.22,3.31c.34.86,1.31,1.69-.09,2.85l-2.53-2.29-1.27-3.21-4.15,2v2.8l-2.15-3c-.28-2.07.8-4,2.11-5.91l.11.11.58-.5-.22-.23a4,4,0,0,0-.47.62l-3.11-1.52-3.52,1.58c.82-2,1.2-3.89,3.56-4.38a9.61,9.61,0,0,0,2.45-1.45l3.1.91,1.08-1.24v-3l-1.68-1.39c-.27,1.09-.45,1.79-.68,2.72-.43-.19-.92-.26-1.13-.54a5,5,0,0,0-1.37-1.64l.38,1.86c-4.61-1-7.7-7.75-5.49-12.58h-4.86a2,2,0,0,0-.92,2.19c.55,2.53,1.09,5.06,1.68,7.58a1.56,1.56,0,0,0,.42.61l-3.16,3.13c-.94-.17-2.51-.49-4.09-.71s-2.93-.29-4.88-.48l-1.07,2.3-2.84,2.28,1.06,1.49-2,.18-1.75-2.85.66-1.12-.6-1,1.13-2.29-2.9.7-1.46-1.37h-2.47l-1.06,1.56c-1-1.65.07-2.84.42-4.08a13.67,13.67,0,0,1,3.18-1.73c1-.23,2.09.19,3.34.35-.52-1.43-1.76-2.39-1.94-3.94-.15-1.3-1.66-.48-2.59-1.14l2-1.41c1.26-.7,2.62-.11,4.07.25,1.25.3,1.94.68,1.93,2,0,.23,0,.53.1.67.74.79,1.52,1.54,2.55,2.57l4.54-.78a16.83,16.83,0,0,1-.7-1.65,14.76,14.76,0,0,1-.24-1.93l-.63,1.85c-3.46-2.73-3.46-2.73-3.46-9.27a8.87,8.87,0,0,1,5.3-5h8.23l.17-.42c-1-.55-2-1.19-3-1.64-3.39-1.45-5.65-4.14-7.74-7a10.62,10.62,0,0,1-1-3h-1.68c-1.3,1.58-3.31,2.75-4.31,5.09-.14-.83-.26-1.49-.4-2.31l-5.31,4.21c-1.11-1.21.62-2.06.44-3.27l-5.64,1.53-.17,3.75-1.36,1c0,1.32-.38,2.44,1,3.43l-2.17.18-2.49-3.33v-4l-1.21.78a5.37,5.37,0,0,0-5.06-.24c-.58-1.4.43-2.51,1.1-3.6l4.52-1.89c-1.26-1.35-2.32-2.49-3.44-3.71l-1.49.72v-1.79l1.93-1h4.11l2,2.06h4.38l6.4-4.66c-2-.79-2.72-2.74-3.78-3.58l-8.7-2.8,2.9-1.4-4.07-1.7-.54.54-1.18-1.12,3.61-1.35-3-4c-1,.27-2.2,1-2.71.65-2.1-1.33-3.67-.42-5.47.8-.66-2,.38-3.29,1.7-4.38a38.72,38.72,0,0,1,3.81-2.5c-2-1.42-2.52-4.53-6.44-4.78a30.93,30.93,0,0,1,3.75-2c1.39-.46,2.76.22,4,.75,1,.44,1.71,1.46,2.9,2.53.08-1.44.14-2.47.22-3.72l2.32-1.94c-.42-.92-.74-1.61-1.29-2.83l3,1a27.5,27.5,0,0,1,.87,2.69c.2.87-.33,1.94.71,2.58l-2.05,3.15v2.52l1.61,2.2c2.25,1.39,4.43,2.75,6.63,4.06,1.53.92,3,2.42,4.85,2,1.25-.28,2.27.13,3.39.09a7,7,0,0,0,6-2.86l-3-3,2.54-1.83.62.44.67-.6,1.39,1,.86-1.71c.21.2.12,0,0,0H430.4l-8.14-7c1.89-2,4.42-.46,6.71-1.12A15.34,15.34,0,0,0,438.7,963c.68.11,1.46-.39,2.49-.7-1.29-1.17-2.08-.6-2.92,0-.16-.42-.31-.84-.47-1.25l-1.37.69a14.1,14.1,0,0,1-2.75-5.56l2.54-1.69H441l2-2.52,2.86-1c.25-2.79.2-5.35-1.28-7.7,1.16-.72,2-.22,2.7.72s1,1.73,1.55,2.6l-2,1.43c1.11,0,1.54,0,2,0l-.11.1.5.59.23-.23a4,4,0,0,0-.62-.46c0-.44,0-.92,0-1.4l3.06-1.52,1.25,1.1v3.29c-.48.24-1,.48-1.47.76l.11-.1-.5-.59-.23.23a4.74,4.74,0,0,0,.62.46c.56,1.48,1.54,1.75,3,1l-1.54-.69v-1.11l3.34-1.33,1.67,1.66-.66.74.62.67a5.91,5.91,0,0,0-.65,2.64c0,.46,0-.34,0-1.15,0-.12-.31-.35-.32-.34a9.56,9.56,0,0,0-.72.65l-.85-.63-.42.44c.7.76,1.39,1.51,2.33,1a4.48,4.48,0,0,1,4-1.5,1.62,1.62,0,0,1-.29,2.43c.92.67,0,1.26-.08,1.88-.48,0-1,0-1.48,0l.11-.1-.5-.59-.23.23a5.52,5.52,0,0,0,.62.46c0,.4,0,.84,0,1.2C461.25,958.34,461,957.34,461.06,956.55Zm-16.92-2.09c-.21,1.93.25,2.25,2.58,1.58Zm-10.9,61.76h.24v-.72h-.24Z" transform="translate(-92.69 -706.38)"/><path d="M412.13,1056.82c0,2.09,0,3.65,0,5.2,0,2.09-.8,4-1.42,5.88a32.93,32.93,0,0,1-5.06,9.39A26.75,26.75,0,0,1,391,1087.38c-1.07.31-2.39,1-3.25.63-2.17-.88-4.56-.33-6.62-1.35a59.58,59.58,0,0,1-5.29-2.84c-6-3.75-9.43-9.43-11.61-15.94a41.28,41.28,0,0,1-1-6c-.25-1.46.65-3.09-.7-4.39a.76.76,0,0,1,0-.69c1.06-2,.24-4.22.8-6.15a54,54,0,0,1,3.49-10,26.41,26.41,0,0,1,16.08-13.38c1.52-.49,3.31-.06,4.95-.23a17,17,0,0,1,8.37,1.51,19.35,19.35,0,0,1,4.86,3,32.35,32.35,0,0,1,9,12.06c.7,1.58.75,3.25,1.37,4.82C412.53,1051.24,412,1054.33,412.13,1056.82Zm-1.44.18a35.79,35.79,0,0,0,0-3.59c-.13-1.23-.5-2.43-.69-3.66-.39-2.55-1.77-4.8-2.21-7.34-2.7-3.17-4.26-7.14-8-9.62s-7.68-4.22-12.24-4.38c-1.31,0-2.45.55-3.66.69-6.52.79-10,5.75-14.18,9.88-2.76,5.58-5.05,11.25-5.1,17.66a52,52,0,0,0,.85,8.31,23.07,23.07,0,0,0,1.91,6c2.1,4.58,3.74,6.48,7.79,10a24,24,0,0,0,10.52,4.93,8.85,8.85,0,0,0,4.6-.1,29.39,29.39,0,0,0,7.82-3.57,29,29,0,0,0,6.79-6.84C408.62,1069.91,411,1063.83,410.69,1057Z" transform="translate(-92.69 -706.38)"/><path d="M376.44,906.77l3.65-2.7c4.11,0,8.27,0,12.43,0a5.51,5.51,0,0,1,4.42,1.74v2.92l-1.68,1.83h-16.8Zm2.73-.43A2.09,2.09,0,0,0,380,909h14.65l1.2-1.56-1.37-1.1Z" transform="translate(-92.69 -706.38)"/><path d="M415.26,912.05c-1.28-1.89-2.8-3.41-.65-5.51,1.05-.75,2.41-1.65,4-.31,3.3-.55,6.44,1.23,9.7.67,2.11,2.72,2.11,2.72,1.11,5.51-1.49.59-2.93,1.92-4.63.33-.07-.07-.23-.06-.34,0C421.33,913.26,418.44,911.58,415.26,912.05Zm12.09-3.95c-4.2,1.11-7.81-1.32-11.93-.11.46,1,.85,1.84,1.19,2.55,1.7,0,3.24-.44,4.29.09,2.32,1.19,4.6.25,7.24.77Z" transform="translate(-92.69 -706.38)"/><path d="M346.39,913.51l-1.87-1.89V908.7l1.78-1.64c2.47-.27,5-.57,7.51-.82a7.2,7.2,0,0,0,2.62-.62c1.3-.62,2.51.63,3.76,1.4v3.32l-1.64,1.52-6.09.84Zm-.41-2.25c1.73,0,3.17.09,4.59,0s2.91-.63,4.37-.65a8.29,8.29,0,0,0,3.63-.82c.16-.08.22-.38.45-.8l-1.36-1.48c-3.38.35-6.73.66-10.06,1.08-.59.08-1.12.65-1.62,1Z" transform="translate(-92.69 -706.38)"/><path d="M332.22,914.24l-.87-3.21,2.18-1.87h2.94l1.7,2.92-1,2.54C335.73,915.59,334.21,916,332.22,914.24Zm3.3-.82c1-1.28.16-2.08-.74-2.86-1.26,1.63-1.4,2.24-.67,2.86Z" transform="translate(-92.69 -706.38)"/><path d="M371.55,910.24c-1.52,1.48-3.05,1.16-4.52.16a3.42,3.42,0,0,1,.28-4.92c1.12-.79,2.65-1.06,4.48.49C372.46,907.06,373.14,908.56,371.55,910.24Zm-1.49-1,.59-.63-1-2.43-1.9,2.32Z" transform="translate(-92.69 -706.38)"/><path d="M439.67,915.57h-1.28l-1.78-1.78v-2.94l1.91-1.7h2.13l1.25,1.9.37-.3v3.19Zm1.39-4.19H438c.06.76.1,1.4.14,1.92C439.73,913.67,440.59,913.17,441.06,911.38Z" transform="translate(-92.69 -706.38)"/><path d="M403.86,904.79H406l1.75,1.88v2.9l-2.15,1.63h-1.89c-.27-.49-.69-1.22-1.1-1.94l-.5.39V906.5Zm-.3,4.19h2.76v-1.91h-2.76Z" transform="translate(-92.69 -706.38)"/><path d="M556,1011.44v3.77l-.92.92h-3c-.85-1.09.24-1.88.41-2.82s-.29-2.24.93-2.63Z" transform="translate(-92.69 -706.38)"/><path d="M334.5,869.49l.58.5-.22.23-.5-.59Z" transform="translate(-92.69 -706.38)"/><path d="M215.12,1016.28l-1,2.59-2.16,1c-.2-.12-.56-.24-.56-.36,0-1.82-1.12-3.34-1.57-5.24h3.52Z" transform="translate(-92.69 -706.38)"/><path d="M571,1020.43v5.12l-4.41-2.32Z" transform="translate(-92.69 -706.38)"/><path d="M229.56,928.57h3.84l1,1-.92.9h-5.16Z" transform="translate(-92.69 -706.38)"/><path d="M238,929.42,236.09,931l-.31-1.53Z" transform="translate(-92.69 -706.38)"/><path d="M225.67,929.35v1.19l-.34.06-.28-1.18Z" transform="translate(-92.69 -706.38)"/><path d="M227.11,929.35v1.19l-.34.06-.28-1.18Z" transform="translate(-92.69 -706.38)"/><path d="M541,930.56v-1.91h4.74l1,1-1.6.58.41.31Z" transform="translate(-92.69 -706.38)"/><ellipse cx="444.99" cy="223.57" rx="0.25" ry="1.02"/><ellipse cx="456.5" cy="223.57" rx="0.25" ry="1.02"/><path d="M542.35,924.92h2.16a3.31,3.31,0,0,0,.56.7c.25.17.59.2.87.57h-5.19Z" transform="translate(-92.69 -706.38)"/><path d="M399,1036.26c1.6,3.31,4.19,6,2.46,10h3.16l2.34,3.22c-.55,1.45-1.07,2.79-1.57,4.11l-3.66-.89-1.11,2.17,2.71.28v2.55l-1.9.36,1.51,3.34-2.49-.75-2,1.78-2.05-1.74-2.44,1.19,1.78-3.72-2.27-.42v-2.65h3.08l-1.35-2.47-2.66,1c-1.79-.28-1-2.14-1.81-3.06-1.05-1.13.47-2.06.63-3.34l4.08-1.1C395.43,1042.69,395.52,1039,399,1036.26Z" transform="translate(-92.69 -706.38)"/><path d="M381.51,1074.61l-1.74-2.74v-3.56l2-1.86h2.9c-.56-3.39-1.67-2.53,2.61-10,3,2.59,3.7,6,3.16,10,1.93,0,3.75.28,5,1.76.77,2.39-.77,4.15-1.51,6l-2.82-1.56c-.63.79-1.05,1.3-1.77,2.19l3.2.4v2.61l-2.22.39c.56,1.15,1.05,2.12,1.7,3.44l-2.4-.83-1.88,1.61-2.18-1.68-2.41.73,1.54-3.34-1.93-.29v-2.59l2.63-.29-.81-1.88H382.2Z" transform="translate(-92.69 -706.38)"/><path d="M369.09,1047.19l4.1-1.08v-5l3.38-5.19,3.17,6.12c-.12,1.14.39,2.74-.61,4.32h3.29l2.25,3.09c-.54,1.44-1.05,2.84-1.58,4.26l-2.86-1-1.53,2.06,2.39.44v2.49l-1.16.41c-.06.21-.21.46-.16.64.27.81.6,1.6,1,2.7l-2.55-.77-2.32,1.89-.83-1.87-3.3.89,1.69-3.31-1.49-.53v-2.55l2.07-.38c-1.23-2.34-1.23-2.34-3.6-1.21C368.45,1051.93,368,1050.11,369.09,1047.19Z" transform="translate(-92.69 -706.38)"/></svg>